<?xml version="1.0" encoding="UTF-8" standalone="no"?>
<!DOCTYPE svg PUBLIC "-//W3C//DTD SVG 1.1//EN"
 "http://www.w3.org/Graphics/SVG/1.1/DTD/svg11.dtd">
<!-- Generated by graphviz version 2.43.0 (0)
 -->
<!-- Title: %3 Pages: 1 -->
<svg width="225pt" height="335pt"
 viewBox="0.00 0.00 225.20 335.20" xmlns="http://www.w3.org/2000/svg" xmlns:xlink="http://www.w3.org/1999/xlink">
<g id="graph0" class="graph" transform="scale(1 1) rotate(0) translate(21.6 313.6)">
<title>%3</title>
<g id="clust1" class="cluster">
<title>cluster_File</title>
<path fill="#1e1e1e" stroke="#b39ddb" d="M20,-8C20,-8 162,-8 162,-8 168,-8 174,-14 174,-20 174,-20 174,-272 174,-272 174,-278 168,-284 162,-284 162,-284 20,-284 20,-284 14,-284 8,-278 8,-272 8,-272 8,-20 8,-20 8,-14 14,-8 20,-8"/>
<text text-anchor="middle" x="91" y="-267.2" font-family="sans-serif" font-size="16.00" fill="#e0e0e0">File</text>
</g>
<!-- Closed -->
<g id="node1" class="node">
<title>Closed</title>
<path fill="#2d2d2d" stroke="#b39ddb" d="M131.5,-228C131.5,-228 50.5,-228 50.5,-228 44.5,-228 38.5,-222 38.5,-216 38.5,-216 38.5,-181 38.5,-181 38.5,-175 44.5,-169 50.5,-169 50.5,-169 131.5,-169 131.5,-169 137.5,-169 143.5,-175 143.5,-181 143.5,-181 143.5,-216 143.5,-216 143.5,-222 137.5,-228 131.5,-228"/>
<text text-anchor="middle" x="91" y="-194.8" font-family="sans-serif" font-size="14.00" fill="#e0e0e0">Closed</text>
</g>
<!-- Open -->
<g id="node2" class="node">
<title>Open</title>
<path fill="#2d2d2d" stroke="#b39ddb" d="M127,-97C127,-97 55,-97 55,-97 49,-97 43,-91 43,-85 43,-85 43,-50 43,-50 43,-44 49,-38 55,-38 55,-38 127,-38 127,-38 133,-38 139,-44 139,-50 139,-50 139,-85 139,-85 139,-91 133,-97 127,-97"/>
<text text-anchor="middle" x="91" y="-63.8" font-family="sans-serif" font-size="14.00" fill="#e0e0e0">Open</text>
</g>
<!-- Closed&#45;&gt;Open -->
<g id="edge1" class="edge">
<title>Closed&#45;&gt;Open</title>
<path fill="none" stroke="#b0b0b0" d="M68.12,-168.87C63.44,-150.67 62.75,-126.87 66.05,-107.02"/>
<polygon fill="#b0b0b0" stroke="#b0b0b0" points="69.51,-107.55 68.14,-97.05 62.66,-106.12 69.51,-107.55"/>
</g>
<!-- Open&#45;&gt;Closed -->
<g id="edge2" class="edge">
<title>Open&#45;&gt;Closed</title>
<path fill="none" stroke="#b0b0b0" d="M113.86,-97.05C118.55,-115.24 119.26,-139.03 115.97,-158.89"/>
<polygon fill="#b0b0b0" stroke="#b0b0b0" points="112.5,-158.37 113.88,-168.87 119.35,-159.8 112.5,-158.37"/>
</g>
</g>
</svg>
