<?xml version="1.0" encoding="UTF-8" standalone="no"?>
<!DOCTYPE svg PUBLIC "-//W3C//DTD SVG 1.1//EN"
 "http://www.w3.org/Graphics/SVG/1.1/DTD/svg11.dtd">
<!-- Generated by graphviz version 2.43.0 (0)
 -->
<!-- Title: %3 Pages: 1 -->
<svg width="645pt" height="428pt"
 viewBox="0.00 0.00 644.70 428.20" xmlns="http://www.w3.org/2000/svg" xmlns:xlink="http://www.w3.org/1999/xlink">
<g id="graph0" class="graph" transform="scale(1 1) rotate(0) translate(21.6 406.6)">
<title>%3</title>
<g id="clust1" class="cluster">
<title>cluster_Session</title>
<path fill="#1e1e1e" stroke="#b39ddb" d="M20,-101C20,-101 168,-101 168,-101 174,-101 180,-107 180,-113 180,-113 180,-365 180,-365 180,-371 174,-377 168,-377 168,-377 20,-377 20,-377 14,-377 8,-371 8,-365 8,-365 8,-113 8,-113 8,-107 14,-101 20,-101"/>
<text text-anchor="middle" x="94" y="-360.2" font-family="sans-serif" font-size="16.00" fill="#e0e0e0">Session</text>
</g>
<g id="clust2" class="cluster">
<title>cluster_AuthFlow</title>
<path fill="#1e1e1e" stroke="#b39ddb" d="M204,-101C204,-101 566,-101 566,-101 572,-101 578,-107 578,-113 578,-113 578,-365 578,-365 578,-371 572,-377 566,-377 566,-377 204,-377 204,-377 198,-377 192,-371 192,-365 192,-365 192,-113 192,-113 192,-107 198,-101 204,-101"/>
<text text-anchor="middle" x="385" y="-360.2" font-family="sans-serif" font-size="16.00" fill="#e0e0e0">AuthFlow</text>
</g>
<!-- Active -->
<g id="node1" class="node">
<title>Active</title>
<path fill="#2d2d2d" stroke="#b39ddb" d="M132.5,-321C132.5,-321 55.5,-321 55.5,-321 49.5,-321 43.5,-315 43.5,-309 43.5,-309 43.5,-274 43.5,-274 43.5,-268 49.5,-262 55.5,-262 55.5,-262 132.5,-262 132.5,-262 138.5,-262 144.5,-268 144.5,-274 144.5,-274 144.5,-309 144.5,-309 144.5,-315 138.5,-321 132.5,-321"/>
<text text-anchor="middle" x="94" y="-287.8" font-family="sans-serif" font-size="14.00" fill="#e0e0e0">Active</text>
</g>
<!-- Expired -->
<g id="node2" class="node">
<title>Expired</title>
<path fill="#2d2d2d" stroke="#b39ddb" d="M137.5,-190C137.5,-190 50.5,-190 50.5,-190 44.5,-190 38.5,-184 38.5,-178 38.5,-178 38.5,-143 38.5,-143 38.5,-137 44.5,-131 50.5,-131 50.5,-131 137.5,-131 137.5,-131 143.5,-131 149.5,-137 149.5,-143 149.5,-143 149.5,-178 149.5,-178 149.5,-184 143.5,-190 137.5,-190"/>
<text text-anchor="middle" x="94" y="-156.8" font-family="sans-serif" font-size="14.00" fill="#e0e0e0">Expired</text>
</g>
<!-- Active&#45;&gt;Expired -->
<g id="edge1" class="edge">
<title>Active&#45;&gt;Expired</title>
<path fill="none" stroke="#b0b0b0" d="M94,-261.87C94,-243.75 94,-220.09 94,-200.29"/>
<polygon fill="#b0b0b0" stroke="#b0b0b0" points="97.5,-200.05 94,-190.05 90.5,-200.05 97.5,-200.05"/>
</g>
<!-- Pending -->
<g id="node3" class="node">
<title>Pending</title>
<path fill="#2d2d2d" stroke="#b39ddb" d="M440.5,-321C440.5,-321 349.5,-321 349.5,-321 343.5,-321 337.5,-315 337.5,-309 337.5,-309 337.5,-274 337.5,-274 337.5,-268 343.5,-262 349.5,-262 349.5,-262 440.5,-262 440.5,-262 446.5,-262 452.5,-268 452.5,-274 452.5,-274 452.5,-309 452.5,-309 452.5,-315 446.5,-321 440.5,-321"/>
<text text-anchor="middle" x="395" y="-287.8" font-family="sans-serif" font-size="14.00" fill="#e0e0e0">Pending</text>
</g>
<!-- Authenticated -->
<g id="node4" class="node">
<title>Authenticated</title>
<path fill="#2d2d2d" stroke="#b39ddb" d="M366,-190C366,-190 234,-190 234,-190 228,-190 222,-184 222,-178 222,-178 222,-143 222,-143 222,-137 228,-131 234,-131 234,-131 366,-131 366,-131 372,-131 378,-137 378,-143 378,-143 378,-178 378,-178 378,-184 372,-190 366,-190"/>
<text text-anchor="middle" x="300" y="-156.8" font-family="sans-serif" font-size="14.00" fill="#e0e0e0">Authenticated</text>
</g>
<!-- Pending&#45;&gt;Authenticated -->
<g id="edge2" class="edge">
<title>Pending&#45;&gt;Authenticated</title>
<path fill="none" stroke="#b0b0b0" d="M373.92,-261.87C360.08,-243.08 341.86,-218.34 326.97,-198.12"/>
<polygon fill="#b0b0b0" stroke="#b0b0b0" points="329.77,-196.03 321.02,-190.05 324.14,-200.18 329.77,-196.03"/>
</g>
<!-- Failed -->
<g id="node5" class="node">
<title>Failed</title>
<path fill="#2d2d2d" stroke="#b39ddb" d="M536,-190C536,-190 462,-190 462,-190 456,-190 450,-184 450,-178 450,-178 450,-143 450,-143 450,-137 456,-131 462,-131 462,-131 536,-131 536,-131 542,-131 548,-137 548,-143 548,-143 548,-178 548,-178 548,-184 542,-190 536,-190"/>
<text text-anchor="middle" x="499" y="-156.8" font-family="sans-serif" font-size="14.00" fill="#e0e0e0">Failed</text>
</g>
<!-- Pending&#45;&gt;Failed -->
<g id="edge3" class="edge">
<title>Pending&#45;&gt;Failed</title>
<path fill="none" stroke="#b0b0b0" d="M418.08,-261.87C433.3,-243 453.35,-218.12 469.69,-197.85"/>
<polygon fill="#b0b0b0" stroke="#b0b0b0" points="472.43,-200.03 475.98,-190.05 466.98,-195.64 472.43,-200.03"/>
</g>
<!-- Session.Active -->
<g id="node6" class="node">
<title>Session.Active</title>
<path fill="#2d2d2d" stroke="#b39ddb" d="M348,-59C348,-59 214,-59 214,-59 208,-59 202,-53 202,-47 202,-47 202,-12 202,-12 202,-6 208,0 214,0 214,0 348,0 348,0 354,0 360,-6 360,-12 360,-12 360,-47 360,-47 360,-53 354,-59 348,-59"/>
<text text-anchor="middle" x="281" y="-25.8" font-family="sans-serif" font-size="14.00" fill="#e0e0e0">Session.Active</text>
</g>
<!-- Authenticated&#45;&gt;Session.Active -->
<g id="edge4" class="edge">
<title>Authenticated&#45;&gt;Session.Active</title>
<path fill="none" stroke="#b39ddb" stroke-width="1.5" stroke-dasharray="5,2" d="M295.78,-130.87C293.1,-112.67 289.6,-88.87 286.67,-69.02"/>
<polygon fill="#b39ddb" stroke="#b39ddb" stroke-width="1.5" points="290.12,-68.43 285.2,-59.05 283.2,-69.45 290.12,-68.43"/>
</g>
<!-- Session.Expired -->
<g id="node7" class="node">
<title>Session.Expired</title>
<path fill="#2d2d2d" stroke="#b39ddb" d="M589.5,-59C589.5,-59 444.5,-59 444.5,-59 438.5,-59 432.5,-53 432.5,-47 432.5,-47 432.5,-12 432.5,-12 432.5,-6 438.5,0 444.5,0 444.5,0 589.5,0 589.5,0 595.5,0 601.5,-6 601.5,-12 601.5,-12 601.5,-47 601.5,-47 601.5,-53 595.5,-59 589.5,-59"/>
<text text-anchor="middle" x="517" y="-25.8" font-family="sans-serif" font-size="14.00" fill="#e0e0e0">Session.Expired</text>
</g>
<!-- Failed&#45;&gt;Session.Expired -->
<g id="edge5" class="edge">
<title>Failed&#45;&gt;Session.Expired</title>
<path fill="none" stroke="#b39ddb" stroke-width="1.5" stroke-dasharray="5,2" d="M502.99,-130.87C505.53,-112.67 508.86,-88.87 511.63,-69.02"/>
<polygon fill="#b39ddb" stroke="#b39ddb" stroke-width="1.5" points="515.1,-69.44 513.02,-59.05 508.17,-68.47 515.1,-69.44"/>
</g>
</g>
</svg>
