<?xml version="1.0" encoding="UTF-8" standalone="no"?>
<!DOCTYPE svg PUBLIC "-//W3C//DTD SVG 1.1//EN"
 "http://www.w3.org/Graphics/SVG/1.1/DTD/svg11.dtd">
<!-- Generated by graphviz version 2.43.0 (0)
 -->
<!-- Title: %3 Pages: 1 -->
<svg width="465pt" height="859pt"
 viewBox="0.00 0.00 465.20 859.20" xmlns="http://www.w3.org/2000/svg" xmlns:xlink="http://www.w3.org/1999/xlink">
<g id="graph0" class="graph" transform="scale(1 1) rotate(0) translate(21.6 837.6)">
<title>%3</title>
<g id="clust1" class="cluster">
<title>cluster_Payment</title>
<path fill="#1e1e1e" stroke="#b39ddb" d="M20,-8C20,-8 402,-8 402,-8 408,-8 414,-14 414,-20 414,-20 414,-796 414,-796 414,-802 408,-808 402,-808 402,-808 20,-808 20,-808 14,-808 8,-802 8,-796 8,-796 8,-20 8,-20 8,-14 14,-8 20,-8"/>
<text text-anchor="middle" x="211" y="-791.2" font-family="sans-serif" font-size="16.00" fill="#e0e0e0">Payment</text>
</g>
<!-- Created -->
<g id="node1" class="node">
<title>Created</title>
<path fill="#2d2d2d" stroke="#b39ddb" d="M353.5,-752C353.5,-752 264.5,-752 264.5,-752 258.5,-752 252.5,-746 252.5,-740 252.5,-740 252.5,-705 252.5,-705 252.5,-699 258.5,-693 264.5,-693 264.5,-693 353.5,-693 353.5,-693 359.5,-693 365.5,-699 365.5,-705 365.5,-705 365.5,-740 365.5,-740 365.5,-746 359.5,-752 353.5,-752"/>
<text text-anchor="middle" x="309" y="-718.8" font-family="sans-serif" font-size="14.00" fill="#e0e0e0">Created</text>
</g>
<!-- Authorized -->
<g id="node2" class="node">
<title>Authorized</title>
<path fill="#2d2d2d" stroke="#b39ddb" d="M364,-621C364,-621 254,-621 254,-621 248,-621 242,-615 242,-609 242,-609 242,-574 242,-574 242,-568 248,-562 254,-562 254,-562 364,-562 364,-562 370,-562 376,-568 376,-574 376,-574 376,-609 376,-609 376,-615 370,-621 364,-621"/>
<text text-anchor="middle" x="309" y="-587.8" font-family="sans-serif" font-size="14.00" fill="#e0e0e0">Authorized</text>
</g>
<!-- Created&#45;&gt;Authorized -->
<g id="edge1" class="edge">
<title>Created&#45;&gt;Authorized</title>
<path fill="none" stroke="#b0b0b0" d="M309,-692.87C309,-674.75 309,-651.09 309,-631.29"/>
<polygon fill="#b0b0b0" stroke="#b0b0b0" points="312.5,-631.05 309,-621.05 305.5,-631.05 312.5,-631.05"/>
</g>
<!-- Captured -->
<g id="node3" class="node">
<title>Captured</title>
<path fill="#2d2d2d" stroke="#b39ddb" d="M358,-490C358,-490 260,-490 260,-490 254,-490 248,-484 248,-478 248,-478 248,-443 248,-443 248,-437 254,-431 260,-431 260,-431 358,-431 358,-431 364,-431 370,-437 370,-443 370,-443 370,-478 370,-478 370,-484 364,-490 358,-490"/>
<text text-anchor="middle" x="309" y="-456.8" font-family="sans-serif" font-size="14.00" fill="#e0e0e0">Captured</text>
</g>
<!-- Authorized&#45;&gt;Captured -->
<g id="edge2" class="edge">
<title>Authorized&#45;&gt;Captured</title>
<path fill="none" stroke="#b0b0b0" d="M309,-561.87C309,-543.75 309,-520.09 309,-500.29"/>
<polygon fill="#b0b0b0" stroke="#b0b0b0" points="312.5,-500.05 309,-490.05 305.5,-500.05 312.5,-500.05"/>
</g>
<!-- PartiallyRefunded -->
<g id="node4" class="node">
<title>PartiallyRefunded</title>
<path fill="#2d2d2d" stroke="#b39ddb" d="M206,-359C206,-359 50,-359 50,-359 44,-359 38,-353 38,-347 38,-347 38,-312 38,-312 38,-306 44,-300 50,-300 50,-300 206,-300 206,-300 212,-300 218,-306 218,-312 218,-312 218,-347 218,-347 218,-353 212,-359 206,-359"/>
<text text-anchor="middle" x="128" y="-325.8" font-family="sans-serif" font-size="14.00" fill="#e0e0e0">PartiallyRefunded</text>
</g>
<!-- Captured&#45;&gt;PartiallyRefunded -->
<g id="edge3" class="edge">
<title>Captured&#45;&gt;PartiallyRefunded:e</title>
<path fill="none" stroke="#b0b0b0" d="M302.72,-430.97C293.15,-395.39 271.36,-338.26 228.97,-330.41"/>
<polygon fill="#b0b0b0" stroke="#b0b0b0" points="229.28,-326.92 219,-329.5 228.64,-333.89 229.28,-326.92"/>
</g>
<!-- FullyRefunded -->
<g id="node5" class="node">
<title>FullyRefunded</title>
<path fill="#2d2d2d" stroke="#b39ddb" d="M297,-228C297,-228 163,-228 163,-228 157,-228 151,-222 151,-216 151,-216 151,-181 151,-181 151,-175 157,-169 163,-169 163,-169 297,-169 297,-169 303,-169 309,-175 309,-181 309,-181 309,-216 309,-216 309,-222 303,-228 297,-228"/>
<text text-anchor="middle" x="230" y="-194.8" font-family="sans-serif" font-size="14.00" fill="#e0e0e0">FullyRefunded</text>
</g>
<!-- Captured&#45;&gt;FullyRefunded -->
<g id="edge4" class="edge">
<title>Captured&#45;&gt;FullyRefunded:e</title>
<path fill="none" stroke="#b0b0b0" d="M320.84,-430.82C346.29,-365.67 397.86,-211.21 320.13,-199.24"/>
<polygon fill="#b0b0b0" stroke="#b0b0b0" points="320.23,-195.74 310,-198.5 319.72,-202.72 320.23,-195.74"/>
</g>
<!-- Settled -->
<g id="node6" class="node">
<title>Settled</title>
<path fill="#2d2d2d" stroke="#b39ddb" d="M271.5,-97C271.5,-97 188.5,-97 188.5,-97 182.5,-97 176.5,-91 176.5,-85 176.5,-85 176.5,-50 176.5,-50 176.5,-44 182.5,-38 188.5,-38 188.5,-38 271.5,-38 271.5,-38 277.5,-38 283.5,-44 283.5,-50 283.5,-50 283.5,-85 283.5,-85 283.5,-91 277.5,-97 271.5,-97"/>
<text text-anchor="middle" x="230" y="-63.8" font-family="sans-serif" font-size="14.00" fill="#e0e0e0">Settled</text>
</g>
<!-- Captured&#45;&gt;Settled -->
<g id="edge5" class="edge">
<title>Captured&#45;&gt;Settled:e</title>
<path fill="none" stroke="#b0b0b0" d="M332.71,-430.79C346.87,-411.73 363.5,-385.43 371,-359 406.96,-232.23 418.61,-75.68 294.02,-67.81"/>
<polygon fill="#b0b0b0" stroke="#b0b0b0" points="294.1,-64.31 284,-67.5 293.89,-71.31 294.1,-64.31"/>
</g>
<!-- PartiallyRefunded&#45;&gt;PartiallyRefunded -->
<g id="edge6" class="edge">
<title>PartiallyRefunded&#45;&gt;PartiallyRefunded:e</title>
<path fill="none" stroke="#b0b0b0" d="M218.37,-353.6C257,-355.5 290,-347.46 290,-329.5 290,-299.79 249.9,-297.24 224.67,-321.84"/>
<polygon fill="#b0b0b0" stroke="#b0b0b0" points="221.93,-319.66 218,-329.5 227.21,-324.26 221.93,-319.66"/>
</g>
<!-- PartiallyRefunded&#45;&gt;FullyRefunded -->
<g id="edge7" class="edge">
<title>PartiallyRefunded&#45;&gt;FullyRefunded:w</title>
<path fill="none" stroke="#b0b0b0" d="M121.59,-299.97C115.2,-265.14 110.13,-209.66 140.08,-199.97"/>
<polygon fill="#b0b0b0" stroke="#b0b0b0" points="140.62,-203.42 150,-198.5 139.6,-196.5 140.62,-203.42"/>
</g>
<!-- PartiallyRefunded&#45;&gt;Settled -->
<g id="edge8" class="edge">
<title>PartiallyRefunded&#45;&gt;Settled:w</title>
<path fill="none" stroke="#b0b0b0" d="M121.35,-299.82C107.71,-234.67 84.28,-80.21 165.56,-68.24"/>
<polygon fill="#b0b0b0" stroke="#b0b0b0" points="166.27,-71.7 176,-67.5 165.78,-64.71 166.27,-71.7"/>
</g>
<!-- FullyRefunded&#45;&gt;Settled -->
<g id="edge9" class="edge">
<title>FullyRefunded&#45;&gt;Settled:s</title>
<path fill="none" stroke="#b0b0b0" d="M254.9,-168.74C282.51,-133.32 318.79,-73.45 283.5,-37.5 269.7,-23.44 242.07,-15.67 232.98,-26.92"/>
<polygon fill="#b0b0b0" stroke="#b0b0b0" points="229.62,-25.91 230,-36.5 236.31,-27.99 229.62,-25.91"/>
</g>
</g>
</svg>
