<?xml version="1.0" encoding="UTF-8" standalone="no"?>
<!DOCTYPE svg PUBLIC "-//W3C//DTD SVG 1.1//EN"
 "http://www.w3.org/Graphics/SVG/1.1/DTD/svg11.dtd">
<!-- Generated by graphviz version 14.0.5 (20251129.0259)
 -->
<!-- Title: Payment Pages: 1 -->
<svg width="654pt" height="140pt"
 viewBox="0.00 0.00 654.00 140.00" xmlns="http://www.w3.org/2000/svg" xmlns:xlink="http://www.w3.org/1999/xlink">
<g id="graph0" class="graph" transform="scale(1 1) rotate(0) translate(4 136)">
<title>Payment</title>
<polygon fill="white" stroke="none" points="-4,4 -4,-136 649.5,-136 649.5,4 -4,4"/>
<!-- Created -->
<g id="node1" class="node">
<title>Created</title>
<polygon fill="none" stroke="black" points="58,-63 0,-63 0,-27 58,-27 58,-63"/>
<text xml:space="preserve" text-anchor="middle" x="29" y="-39.95" font-family="Times,serif" font-size="14.00">Created</text>
</g>
<!-- Authorized -->
<g id="node2" class="node">
<title>Authorized</title>
<polygon fill="none" stroke="black" points="170.75,-63 94,-63 94,-27 170.75,-27 170.75,-63"/>
<text xml:space="preserve" text-anchor="middle" x="132.38" y="-39.95" font-family="Times,serif" font-size="14.00">Authorized</text>
</g>
<!-- Created&#45;&gt;Authorized -->
<g id="edge1" class="edge">
<title>Created&#45;&gt;Authorized</title>
<path fill="none" stroke="black" d="M58.24,-45C65.81,-45 74.22,-45 82.56,-45"/>
<polygon fill="black" stroke="black" points="82.3,-48.5 92.3,-45 82.3,-41.5 82.3,-48.5"/>
</g>
<!-- Captured -->
<g id="node3" class="node">
<title>Captured</title>
<polygon fill="none" stroke="black" points="272.25,-90 206.75,-90 206.75,-54 272.25,-54 272.25,-90"/>
<text xml:space="preserve" text-anchor="middle" x="239.5" y="-66.95" font-family="Times,serif" font-size="14.00">Captured</text>
</g>
<!-- Authorized&#45;&gt;Captured -->
<g id="edge2" class="edge">
<title>Authorized&#45;&gt;Captured</title>
<path fill="none" stroke="black" d="M171.03,-54.67C178.88,-56.69 187.21,-58.83 195.24,-60.89"/>
<polygon fill="black" stroke="black" points="194.3,-64.26 204.85,-63.36 196.04,-57.48 194.3,-64.26"/>
</g>
<!-- Voided -->
<g id="node7" class="node">
<title>Voided</title>
<polygon fill="none" stroke="black" points="266.62,-36 212.38,-36 212.38,0 266.62,0 266.62,-36"/>
<text xml:space="preserve" text-anchor="middle" x="239.5" y="-12.95" font-family="Times,serif" font-size="14.00">Voided</text>
</g>
<!-- Authorized&#45;&gt;Voided -->
<g id="edge3" class="edge">
<title>Authorized&#45;&gt;Voided</title>
<path fill="none" stroke="black" d="M171.03,-35.33C180.77,-32.83 191.25,-30.13 200.99,-27.64"/>
<polygon fill="black" stroke="black" points="201.69,-31.07 210.51,-25.19 199.95,-24.29 201.69,-31.07"/>
</g>
<!-- PartiallyRefunded -->
<g id="node4" class="node">
<title>PartiallyRefunded</title>
<polygon fill="none" stroke="black" points="422.5,-90 308.25,-90 308.25,-54 422.5,-54 422.5,-90"/>
<text xml:space="preserve" text-anchor="middle" x="365.38" y="-66.95" font-family="Times,serif" font-size="14.00">PartiallyRefunded</text>
</g>
<!-- Captured&#45;&gt;PartiallyRefunded -->
<g id="edge4" class="edge">
<title>Captured&#45;&gt;PartiallyRefunded</title>
<path fill="none" stroke="black" d="M272.72,-72C280.12,-72 288.25,-72 296.52,-72"/>
<polygon fill="black" stroke="black" points="296.33,-75.5 306.33,-72 296.33,-68.5 296.33,-75.5"/>
</g>
<!-- FullyRefunded -->
<g id="node5" class="node">
<title>FullyRefunded</title>
<polygon fill="none" stroke="black" points="555.5,-132 458.5,-132 458.5,-96 555.5,-96 555.5,-132"/>
<text xml:space="preserve" text-anchor="middle" x="507" y="-108.95" font-family="Times,serif" font-size="14.00">FullyRefunded</text>
</g>
<!-- Captured&#45;&gt;FullyRefunded -->
<g id="edge5" class="edge">
<title>Captured&#45;&gt;FullyRefunded</title>
<path fill="none" stroke="black" d="M261.1,-90.35C273.74,-100.35 290.81,-111.74 308.25,-117 353.28,-130.59 406.73,-128.78 446.71,-124.16"/>
<polygon fill="black" stroke="black" points="447.15,-127.63 456.63,-122.91 446.27,-120.68 447.15,-127.63"/>
</g>
<!-- Settled -->
<g id="node6" class="node">
<title>Settled</title>
<polygon fill="none" stroke="black" points="645.5,-86 591.5,-86 591.5,-50 645.5,-50 645.5,-86"/>
<text xml:space="preserve" text-anchor="middle" x="618.5" y="-62.95" font-family="Times,serif" font-size="14.00">Settled</text>
</g>
<!-- Captured&#45;&gt;Settled -->
<g id="edge6" class="edge">
<title>Captured&#45;&gt;Settled</title>
<path fill="none" stroke="black" d="M272.48,-56.37C283.54,-51.75 296.19,-47.31 308.25,-45 405.16,-26.4 521.82,-46.22 580.27,-58.98"/>
<polygon fill="black" stroke="black" points="579.17,-62.32 589.69,-61.1 580.7,-55.49 579.17,-62.32"/>
</g>
<!-- PartiallyRefunded&#45;&gt;PartiallyRefunded -->
<g id="edge7" class="edge">
<title>PartiallyRefunded&#45;&gt;PartiallyRefunded</title>
<path fill="none" stroke="black" d="M342.6,-90.15C339.1,-99.54 346.69,-108 365.38,-108 375.89,-108 382.88,-105.32 386.37,-101.31"/>
<polygon fill="black" stroke="black" points="389.8,-102.07 387.91,-91.65 382.88,-100.97 389.8,-102.07"/>
</g>
<!-- PartiallyRefunded&#45;&gt;FullyRefunded -->
<g id="edge8" class="edge">
<title>PartiallyRefunded&#45;&gt;FullyRefunded</title>
<path fill="none" stroke="black" d="M422.76,-88.96C430.88,-91.4 439.25,-93.92 447.41,-96.38"/>
<polygon fill="black" stroke="black" points="446.33,-99.7 456.91,-99.23 448.34,-93 446.33,-99.7"/>
</g>
<!-- PartiallyRefunded&#45;&gt;Settled -->
<g id="edge9" class="edge">
<title>PartiallyRefunded&#45;&gt;Settled</title>
<path fill="none" stroke="black" d="M422.73,-71.1C470.74,-70.34 538.39,-69.26 580.01,-68.6"/>
<polygon fill="black" stroke="black" points="579.82,-72.1 589.77,-68.44 579.71,-65.1 579.82,-72.1"/>
</g>
<!-- FullyRefunded&#45;&gt;Settled -->
<g id="edge10" class="edge">
<title>FullyRefunded&#45;&gt;Settled</title>
<path fill="none" stroke="black" d="M551.91,-95.56C561.49,-91.53 571.53,-87.31 580.79,-83.42"/>
<polygon fill="black" stroke="black" points="581.98,-86.72 589.84,-79.62 579.27,-80.27 581.98,-86.72"/>
</g>
</g>
</svg>
