<?xml version="1.0" encoding="UTF-8" standalone="no"?>
<!DOCTYPE svg PUBLIC "-//W3C//DTD SVG 1.1//EN"
 "http://www.w3.org/Graphics/SVG/1.1/DTD/svg11.dtd">
<!-- Generated by graphviz version 14.0.5 (20251129.0259)
 -->
<!-- Title: DbConnection Pages: 1 -->
<svg width="399pt" height="127pt"
 viewBox="0.00 0.00 399.00 127.00" xmlns="http://www.w3.org/2000/svg" xmlns:xlink="http://www.w3.org/1999/xlink">
<g id="graph0" class="graph" transform="scale(1 1) rotate(0) translate(4 123)">
<title>DbConnection</title>
<polygon fill="white" stroke="none" points="-4,4 -4,-123 394.5,-123 394.5,4 -4,4"/>
<!-- Pooled -->
<g id="node1" class="node">
<title>Pooled</title>
<polygon fill="none" stroke="black" points="54,-36 0,-36 0,0 54,0 54,-36"/>
<text xml:space="preserve" text-anchor="middle" x="27" y="-12.95" font-family="Times,serif" font-size="14.00">Pooled</text>
</g>
<!-- CheckedOut -->
<g id="node2" class="node">
<title>CheckedOut</title>
<polygon fill="none" stroke="black" points="173.5,-64 90,-64 90,-28 173.5,-28 173.5,-64"/>
<text xml:space="preserve" text-anchor="middle" x="131.75" y="-40.95" font-family="Times,serif" font-size="14.00">CheckedOut</text>
</g>
<!-- Pooled&#45;&gt;CheckedOut -->
<g id="edge1" class="edge">
<title>Pooled&#45;&gt;CheckedOut</title>
<path fill="none" stroke="black" d="M54.46,-19.22C61.9,-20.76 70.26,-22.78 78.65,-25.05"/>
<polygon fill="black" stroke="black" points="77.59,-28.39 88.16,-27.75 79.5,-21.65 77.59,-28.39"/>
</g>
<!-- Closed -->
<g id="node4" class="node">
<title>Closed</title>
<polygon fill="none" stroke="black" points="390.5,-64 336.5,-64 336.5,-28 390.5,-28 390.5,-64"/>
<text xml:space="preserve" text-anchor="middle" x="363.5" y="-40.95" font-family="Times,serif" font-size="14.00">Closed</text>
</g>
<!-- Pooled&#45;&gt;Closed -->
<g id="edge2" class="edge">
<title>Pooled&#45;&gt;Closed</title>
<path fill="none" stroke="black" d="M54.33,-10.52C83.51,-7.38 131.93,-6.9 173.5,-10 226.37,-13.94 286.96,-23.5 324.98,-32.31"/>
<polygon fill="black" stroke="black" points="324,-35.67 334.55,-34.65 325.67,-28.87 324,-35.67"/>
</g>
<!-- Pooled&#45;&gt;Closed -->
<g id="edge7" class="edge">
<title>Pooled&#45;&gt;Closed</title>
<path fill="none" stroke="black" stroke-dasharray="5,2" d="M54.33,-23.71C83.51,-25.38 131.93,-24.9 173.5,-28 226.37,-31.94 286.96,-41.5 324.98,-45.92"/>
<polygon fill="black" stroke="black" points="324.2,-49.35 334.51,-46.95 324.95,-42.39 324.2,-49.35"/>
</g>
<!-- CheckedOut&#45;&gt;Pooled -->
<g id="edge3" class="edge">
<title>CheckedOut&#45;&gt;Pooled</title>
<path fill="none" stroke="black" d="M89.62,-41.42C81.57,-39.42 73.16,-37.09 65.24,-34.67"/>
<polygon fill="black" stroke="black" points="66.49,-31.39 55.9,-31.66 64.35,-38.06 66.49,-31.39"/>
</g>
<!-- InTransaction -->
<g id="node3" class="node">
<title>InTransaction</title>
<polygon fill="none" stroke="black" points="300.5,-119 209.5,-119 209.5,-83 300.5,-83 300.5,-119"/>
<text xml:space="preserve" text-anchor="middle" x="255" y="-95.95" font-family="Times,serif" font-size="14.00">InTransaction</text>
</g>
<!-- CheckedOut&#45;&gt;InTransaction -->
<g id="edge4" class="edge">
<title>CheckedOut&#45;&gt;InTransaction</title>
<path fill="none" stroke="black" d="M173.8,-58.19C187.6,-63.98 202.91,-70.97 216.42,-77.66"/>
<polygon fill="black" stroke="black" points="214.5,-80.61 225,-82.01 217.66,-74.36 214.5,-80.61"/>
</g>
<!-- CheckedOut&#45;&gt;Closed -->
<g id="edge5" class="edge">
<title>CheckedOut&#45;&gt;Closed</title>
<path fill="none" stroke="black" d="M173.82,-40.68C216.68,-38.72 283.29,-38.77 324.83,-40.85"/>
<polygon fill="black" stroke="black" points="324.4,-44.33 334.58,-41.41 324.81,-37.34 324.4,-44.33"/>
</g>
<!-- CheckedOut&#45;&gt;Closed -->
<g id="edge8" class="edge">
<title>CheckedOut&#45;&gt;Closed</title>
<path fill="none" stroke="black" stroke-dasharray="5,2" d="M173.82,-51.32C216.68,-53.28 283.29,-53.23 324.83,-51.15"/>
<polygon fill="black" stroke="black" points="324.81,-54.66 334.58,-50.59 324.4,-47.67 324.81,-54.66"/>
</g>
<!-- InTransaction&#45;&gt;CheckedOut -->
<g id="edge6" class="edge">
<title>InTransaction&#45;&gt;CheckedOut</title>
<path fill="none" stroke="black" d="M209.2,-87.22C196.6,-81.84 183.01,-75.61 170.84,-69.6"/>
<polygon fill="black" stroke="black" points="172.42,-66.47 161.92,-65.08 169.26,-72.72 172.42,-66.47"/>
</g>
<!-- InTransaction&#45;&gt;Closed -->
<g id="edge9" class="edge">
<title>InTransaction&#45;&gt;Closed</title>
<path fill="none" stroke="black" stroke-dasharray="5,2" d="M291.76,-82.53C302.75,-76.86 314.86,-70.6 325.9,-64.9"/>
<polygon fill="black" stroke="black" points="327.47,-68.03 334.75,-60.33 324.26,-61.81 327.47,-68.03"/>
</g>
<!-- Closed&#45;&gt;Closed -->
<g id="edge10" class="edge">
<title>Closed&#45;&gt;Closed</title>
<path fill="none" stroke="black" stroke-dasharray="5,2" d="M343.87,-64.15C340.85,-73.54 347.39,-82 363.5,-82 372.56,-82 378.59,-79.32 381.6,-75.31"/>
<polygon fill="black" stroke="black" points="385.03,-76.03 382.92,-65.65 378.1,-75.09 385.03,-76.03"/>
</g>
</g>
</svg>
