<?xml version="1.0" encoding="UTF-8" standalone="no"?>
<!DOCTYPE svg PUBLIC "-//W3C//DTD SVG 1.1//EN"
 "http://www.w3.org/Graphics/SVG/1.1/DTD/svg11.dtd">
<!-- Generated by graphviz version 2.43.0 (0)
 -->
<!-- Title: %3 Pages: 1 -->
<svg width="445pt" height="619pt"
 viewBox="0.00 0.00 445.20 619.20" xmlns="http://www.w3.org/2000/svg" xmlns:xlink="http://www.w3.org/1999/xlink">
<g id="graph0" class="graph" transform="scale(1 1) rotate(0) translate(21.6 597.6)">
<title>%3</title>
<g id="clust1" class="cluster">
<title>cluster_Session</title>
<path fill="#1e1e1e" stroke="#b39ddb" d="M55,-8C55,-8 203,-8 203,-8 209,-8 215,-14 215,-20 215,-20 215,-272 215,-272 215,-278 209,-284 203,-284 203,-284 55,-284 55,-284 49,-284 43,-278 43,-272 43,-272 43,-20 43,-20 43,-14 49,-8 55,-8"/>
<text text-anchor="middle" x="129" y="-267.2" font-family="sans-serif" font-size="16.00" fill="#e0e0e0">Session</text>
</g>
<g id="clust2" class="cluster">
<title>cluster_AuthFlow</title>
<path fill="#1e1e1e" stroke="#b39ddb" d="M20,-292C20,-292 382,-292 382,-292 388,-292 394,-298 394,-304 394,-304 394,-556 394,-556 394,-562 388,-568 382,-568 382,-568 20,-568 20,-568 14,-568 8,-562 8,-556 8,-556 8,-304 8,-304 8,-298 14,-292 20,-292"/>
<text text-anchor="middle" x="201" y="-551.2" font-family="sans-serif" font-size="16.00" fill="#e0e0e0">AuthFlow</text>
</g>
<!-- Active -->
<g id="node1" class="node">
<title>Active</title>
<path fill="#2d2d2d" stroke="#b39ddb" d="M164.5,-228C164.5,-228 87.5,-228 87.5,-228 81.5,-228 75.5,-222 75.5,-216 75.5,-216 75.5,-181 75.5,-181 75.5,-175 81.5,-169 87.5,-169 87.5,-169 164.5,-169 164.5,-169 170.5,-169 176.5,-175 176.5,-181 176.5,-181 176.5,-216 176.5,-216 176.5,-222 170.5,-228 164.5,-228"/>
<text text-anchor="middle" x="126" y="-194.8" font-family="sans-serif" font-size="14.00" fill="#e0e0e0">Active</text>
</g>
<!-- Expired -->
<g id="node2" class="node">
<title>Expired</title>
<path fill="#2d2d2d" stroke="#b39ddb" d="M172.5,-97C172.5,-97 85.5,-97 85.5,-97 79.5,-97 73.5,-91 73.5,-85 73.5,-85 73.5,-50 73.5,-50 73.5,-44 79.5,-38 85.5,-38 85.5,-38 172.5,-38 172.5,-38 178.5,-38 184.5,-44 184.5,-50 184.5,-50 184.5,-85 184.5,-85 184.5,-91 178.5,-97 172.5,-97"/>
<text text-anchor="middle" x="129" y="-63.8" font-family="sans-serif" font-size="14.00" fill="#e0e0e0">Expired</text>
</g>
<!-- Active&#45;&gt;Expired -->
<g id="edge1" class="edge">
<title>Active&#45;&gt;Expired</title>
<path fill="none" stroke="#b0b0b0" d="M126.67,-168.87C127.09,-150.75 127.64,-127.09 128.1,-107.29"/>
<polygon fill="#b0b0b0" stroke="#b0b0b0" points="131.6,-107.13 128.34,-97.05 124.6,-106.97 131.6,-107.13"/>
</g>
<!-- Pending -->
<g id="node3" class="node">
<title>Pending</title>
<path fill="#2d2d2d" stroke="#b39ddb" d="M256.5,-512C256.5,-512 165.5,-512 165.5,-512 159.5,-512 153.5,-506 153.5,-500 153.5,-500 153.5,-465 153.5,-465 153.5,-459 159.5,-453 165.5,-453 165.5,-453 256.5,-453 256.5,-453 262.5,-453 268.5,-459 268.5,-465 268.5,-465 268.5,-500 268.5,-500 268.5,-506 262.5,-512 256.5,-512"/>
<text text-anchor="middle" x="211" y="-478.8" font-family="sans-serif" font-size="14.00" fill="#e0e0e0">Pending</text>
</g>
<!-- Authenticated -->
<g id="node4" class="node">
<title>Authenticated</title>
<path fill="#2d2d2d" stroke="#b39ddb" d="M182,-381C182,-381 50,-381 50,-381 44,-381 38,-375 38,-369 38,-369 38,-334 38,-334 38,-328 44,-322 50,-322 50,-322 182,-322 182,-322 188,-322 194,-328 194,-334 194,-334 194,-369 194,-369 194,-375 188,-381 182,-381"/>
<text text-anchor="middle" x="116" y="-347.8" font-family="sans-serif" font-size="14.00" fill="#e0e0e0">Authenticated</text>
</g>
<!-- Pending&#45;&gt;Authenticated -->
<g id="edge2" class="edge">
<title>Pending&#45;&gt;Authenticated</title>
<path fill="none" stroke="#b0b0b0" d="M189.92,-452.87C176.08,-434.08 157.86,-409.34 142.97,-389.12"/>
<polygon fill="#b0b0b0" stroke="#b0b0b0" points="145.77,-387.03 137.02,-381.05 140.14,-391.18 145.77,-387.03"/>
</g>
<!-- Failed -->
<g id="node5" class="node">
<title>Failed</title>
<path fill="#2d2d2d" stroke="#b39ddb" d="M352,-381C352,-381 278,-381 278,-381 272,-381 266,-375 266,-369 266,-369 266,-334 266,-334 266,-328 272,-322 278,-322 278,-322 352,-322 352,-322 358,-322 364,-328 364,-334 364,-334 364,-369 364,-369 364,-375 358,-381 352,-381"/>
<text text-anchor="middle" x="315" y="-347.8" font-family="sans-serif" font-size="14.00" fill="#e0e0e0">Failed</text>
</g>
<!-- Pending&#45;&gt;Failed -->
<g id="edge3" class="edge">
<title>Pending&#45;&gt;Failed</title>
<path fill="none" stroke="#b0b0b0" d="M234.08,-452.87C249.3,-434 269.35,-409.12 285.69,-388.85"/>
<polygon fill="#b0b0b0" stroke="#b0b0b0" points="288.43,-391.03 291.98,-381.05 282.98,-386.64 288.43,-391.03"/>
</g>
<!-- Authenticated&#45;&gt;Active -->
<g id="edge4" class="edge">
<title>Authenticated&#45;&gt;Active</title>
<path fill="none" stroke="#b39ddb" stroke-width="1.5" stroke-dasharray="5,2" d="M117.9,-321.74C119.47,-298.13 121.7,-264.45 123.42,-238.43"/>
<polygon fill="#b39ddb" stroke="#b39ddb" stroke-width="1.5" points="126.93,-238.36 124.1,-228.15 119.95,-237.9 126.93,-238.36"/>
</g>
<!-- Failed&#45;&gt;Expired -->
<g id="edge5" class="edge">
<title>Failed&#45;&gt;Expired</title>
<path fill="none" stroke="#b39ddb" stroke-width="1.5" stroke-dasharray="5,2" d="M300.99,-321.86C282.61,-285.26 248.52,-220.46 213,-169 197.63,-146.73 178.4,-123.45 162.22,-104.91"/>
<polygon fill="#b39ddb" stroke="#b39ddb" stroke-width="1.5" points="164.72,-102.46 155.49,-97.27 159.47,-107.08 164.72,-102.46"/>
</g>
</g>
</svg>
