<?xml version="1.0" encoding="UTF-8" standalone="no"?>
<!DOCTYPE svg PUBLIC "-//W3C//DTD SVG 1.1//EN"
 "http://www.w3.org/Graphics/SVG/1.1/DTD/svg11.dtd">
<!-- Generated by graphviz version 14.0.5 (20251129.0259)
 -->
<!-- Pages: 1 -->
<svg width="895pt" height="302pt"
 viewBox="0.00 0.00 895.00 302.00" xmlns="http://www.w3.org/2000/svg" xmlns:xlink="http://www.w3.org/1999/xlink">
<g id="graph0" class="graph" transform="scale(1 1) rotate(0) translate(21.6 280.6)">
<g id="clust1" class="cluster">
<title>cluster_DbConnection</title>
<path fill="#1e1e1e" stroke="#b39ddb" d="M20,-8C20,-8 831.9,-8 831.9,-8 837.9,-8 843.9,-14 843.9,-20 843.9,-20 843.9,-239 843.9,-239 843.9,-245 837.9,-251 831.9,-251 831.9,-251 20,-251 20,-251 14,-251 8,-245 8,-239 8,-239 8,-20 8,-20 8,-14 14,-8 20,-8"/>
<text xml:space="preserve" text-anchor="middle" x="425.95" y="-231.8" font-family="sans-serif" font-size="16.00" fill="#e0e0e0">DbConnection</text>
</g>
<!-- Pooled -->
<g id="node1" class="node">
<title>Pooled</title>
<path fill="#2d2d2d" stroke="#b39ddb" d="M115.6,-176.1C115.6,-176.1 40,-176.1 40,-176.1 34,-176.1 28,-170.1 28,-164.1 28,-164.1 28,-129.9 28,-129.9 28,-123.9 34,-117.9 40,-117.9 40,-117.9 115.6,-117.9 115.6,-117.9 121.6,-117.9 127.6,-123.9 127.6,-129.9 127.6,-129.9 127.6,-164.1 127.6,-164.1 127.6,-170.1 121.6,-176.1 115.6,-176.1"/>
<text xml:space="preserve" text-anchor="middle" x="77.8" y="-141.2" font-family="sans-serif" font-size="14.00" fill="#e0e0e0">Pooled</text>
</g>
<!-- CheckedOut -->
<g id="node2" class="node">
<title>CheckedOut</title>
<path fill="#2d2d2d" stroke="#b39ddb" d="M356.95,-146.1C356.95,-146.1 247.6,-146.1 247.6,-146.1 241.6,-146.1 235.6,-140.1 235.6,-134.1 235.6,-134.1 235.6,-99.9 235.6,-99.9 235.6,-93.9 241.6,-87.9 247.6,-87.9 247.6,-87.9 356.95,-87.9 356.95,-87.9 362.95,-87.9 368.95,-93.9 368.95,-99.9 368.95,-99.9 368.95,-134.1 368.95,-134.1 368.95,-140.1 362.95,-146.1 356.95,-146.1"/>
<text xml:space="preserve" text-anchor="middle" x="302.27" y="-111.2" font-family="sans-serif" font-size="14.00" fill="#e0e0e0">CheckedOut</text>
</g>
<!-- Pooled&#45;&gt;CheckedOut -->
<g id="edge1" class="edge">
<title>Pooled&#45;&gt;CheckedOut</title>
<path fill="none" stroke="#b0b0b0" d="M127.9,-127.3C127.9,-127.3 223.78,-127.3 223.78,-127.3"/>
<polygon fill="#b0b0b0" stroke="#b0b0b0" points="223.78,-130.8 233.78,-127.3 223.78,-123.8 223.78,-130.8"/>
</g>
<!-- Closed -->
<g id="node4" class="node">
<title>Closed</title>
<path fill="#2d2d2d" stroke="#b39ddb" d="M811.9,-174.1C811.9,-174.1 736.3,-174.1 736.3,-174.1 730.3,-174.1 724.3,-168.1 724.3,-162.1 724.3,-162.1 724.3,-127.9 724.3,-127.9 724.3,-121.9 730.3,-115.9 736.3,-115.9 736.3,-115.9 811.9,-115.9 811.9,-115.9 817.9,-115.9 823.9,-121.9 823.9,-127.9 823.9,-127.9 823.9,-162.1 823.9,-162.1 823.9,-168.1 817.9,-174.1 811.9,-174.1"/>
<text xml:space="preserve" text-anchor="middle" x="774.1" y="-139.2" font-family="sans-serif" font-size="14.00" fill="#e0e0e0">Closed</text>
</g>
<!-- Pooled&#45;&gt;Closed -->
<g id="edge2" class="edge">
<title>Pooled&#45;&gt;Closed</title>
<path fill="none" stroke="#b0b0b0" d="M127.88,-155.43C127.88,-155.43 712.5,-155.43 712.5,-155.43"/>
<polygon fill="#b0b0b0" stroke="#b0b0b0" points="712.5,-158.93 722.5,-155.43 712.5,-151.93 712.5,-158.93"/>
</g>
<!-- Pooled&#45;&gt;Closed -->
<g id="edge7" class="edge">
<title>Pooled&#45;&gt;Closed</title>
<path fill="none" stroke="#757575" stroke-dasharray="1,5" d="M127.88,-164.77C127.88,-164.77 712.5,-164.77 712.5,-164.77"/>
<polygon fill="#757575" stroke="#757575" points="712.5,-168.27 722.5,-164.77 712.5,-161.27 712.5,-168.27"/>
</g>
<!-- CheckedOut&#45;&gt;Pooled -->
<g id="edge3" class="edge">
<title>CheckedOut&#45;&gt;Pooled</title>
<path fill="none" stroke="#b0b0b0" d="M235.23,-136.7C235.23,-136.7 139.26,-136.7 139.26,-136.7"/>
<polygon fill="#b0b0b0" stroke="#b0b0b0" points="139.26,-133.2 129.26,-136.7 139.26,-140.2 139.26,-133.2"/>
</g>
<!-- InTransaction -->
<g id="node3" class="node">
<title>InTransaction</title>
<path fill="#2d2d2d" stroke="#b39ddb" d="M604.3,-86.1C604.3,-86.1 488.95,-86.1 488.95,-86.1 482.95,-86.1 476.95,-80.1 476.95,-74.1 476.95,-74.1 476.95,-39.9 476.95,-39.9 476.95,-33.9 482.95,-27.9 488.95,-27.9 488.95,-27.9 604.3,-27.9 604.3,-27.9 610.3,-27.9 616.3,-33.9 616.3,-39.9 616.3,-39.9 616.3,-74.1 616.3,-74.1 616.3,-80.1 610.3,-86.1 604.3,-86.1"/>
<text xml:space="preserve" text-anchor="middle" x="546.62" y="-51.2" font-family="sans-serif" font-size="14.00" fill="#e0e0e0">InTransaction</text>
</g>
<!-- CheckedOut&#45;&gt;InTransaction -->
<g id="edge4" class="edge">
<title>CheckedOut&#45;&gt;InTransaction</title>
<path fill="none" stroke="#b0b0b0" d="M369.37,-94.9C434.28,-94.9 522.9,-94.9 522.9,-94.9 522.9,-94.9 522.9,-94.06 522.9,-94.06"/>
<polygon fill="#b0b0b0" stroke="#b0b0b0" points="526.4,-98 522.9,-88 519.4,-98 526.4,-98"/>
</g>
<!-- CheckedOut&#45;&gt;Closed -->
<g id="edge5" class="edge">
<title>CheckedOut&#45;&gt;Closed</title>
<path fill="none" stroke="#b0b0b0" d="M369.37,-131C369.37,-131 712.34,-131 712.34,-131"/>
<polygon fill="#b0b0b0" stroke="#b0b0b0" points="712.34,-134.5 722.34,-131 712.34,-127.5 712.34,-134.5"/>
</g>
<!-- CheckedOut&#45;&gt;Closed -->
<g id="edge8" class="edge">
<title>CheckedOut&#45;&gt;Closed</title>
<path fill="none" stroke="#757575" stroke-dasharray="1,5" d="M369.37,-138.55C369.37,-138.55 712.34,-138.55 712.34,-138.55"/>
<polygon fill="#757575" stroke="#757575" points="712.34,-142.05 722.34,-138.55 712.34,-135.05 712.34,-142.05"/>
</g>
<!-- InTransaction&#45;&gt;CheckedOut -->
<g id="edge6" class="edge">
<title>InTransaction&#45;&gt;CheckedOut</title>
<path fill="none" stroke="#b0b0b0" d="M569.9,-86.45C569.9,-94.91 569.9,-101.9 569.9,-101.9 569.9,-101.9 380.63,-101.9 380.63,-101.9"/>
<polygon fill="#b0b0b0" stroke="#b0b0b0" points="380.63,-98.4 370.63,-101.9 380.63,-105.4 380.63,-98.4"/>
</g>
<!-- InTransaction&#45;&gt;Closed -->
<g id="edge9" class="edge">
<title>InTransaction&#45;&gt;Closed</title>
<path fill="none" stroke="#757575" stroke-dasharray="1,5" d="M616.67,-57C683.45,-57 773.9,-57 773.9,-57 773.9,-57 773.9,-104.18 773.9,-104.18"/>
<polygon fill="#757575" stroke="#757575" points="770.4,-104.18 773.9,-114.18 777.4,-104.18 770.4,-104.18"/>
</g>
<!-- Closed&#45;&gt;Closed -->
<g id="edge10" class="edge">
<title>Closed&#45;&gt;Closed</title>
<path fill="none" stroke="#757575" stroke-dasharray="1,5" d="M723.83,-123.45C697.19,-123.45 669.9,-123.45 669.9,-123.45 669.9,-123.45 669.9,-108.9 669.9,-108.9 669.9,-108.9 841.9,-108.9 841.9,-108.9 841.9,-108.9 841.9,-145 841.9,-145 841.9,-145 835.6,-145 835.6,-145"/>
<polygon fill="#757575" stroke="#757575" points="835.6,-141.5 825.6,-145 835.6,-148.5 835.6,-141.5"/>
</g>
</g>
</svg>
