<?xml version="1.0" encoding="UTF-8" standalone="no"?>
<!DOCTYPE svg PUBLIC "-//W3C//DTD SVG 1.1//EN"
 "http://www.w3.org/Graphics/SVG/1.1/DTD/svg11.dtd">
<!-- Generated by graphviz version 14.0.5 (20251129.0259)
 -->
<!-- Pages: 1 -->
<svg width="864pt" height="411pt"
 viewBox="0.00 0.00 864.00 411.00" xmlns="http://www.w3.org/2000/svg" xmlns:xlink="http://www.w3.org/1999/xlink">
<g id="graph0" class="graph" transform="scale(1 1) rotate(0) translate(72 339)">
<g id="clust1" class="cluster">
<title>cluster_DbConnection</title>
<path fill="#1e1e1e" stroke="#b39ddb" d="M20,-8C20,-8 699.65,-8 699.65,-8 705.65,-8 711.65,-14 711.65,-20 711.65,-20 711.65,-247 711.65,-247 711.65,-253 705.65,-259 699.65,-259 699.65,-259 20,-259 20,-259 14,-259 8,-253 8,-247 8,-247 8,-20 8,-20 8,-14 14,-8 20,-8"/>
<text xml:space="preserve" text-anchor="middle" x="359.82" y="-241.7" font-family="Inter, SF Pro Display, -apple-system, BlinkMacSystemFont, Segoe UI, Roboto, sans-serif" font-size="14.00" fill="#e0e0e0">DbConnection</text>
</g>
<!-- Pooled -->
<g id="node1" class="node">
<title>Pooled</title>
<path fill="#2d2d2d" stroke="#b39ddb" d="M114.35,-179.72C114.35,-179.72 44,-179.72 44,-179.72 38,-179.72 32,-173.72 32,-167.72 32,-167.72 32,-134.28 32,-134.28 32,-128.28 38,-122.28 44,-122.28 44,-122.28 114.35,-122.28 114.35,-122.28 120.35,-122.28 126.35,-128.28 126.35,-134.28 126.35,-134.28 126.35,-167.72 126.35,-167.72 126.35,-173.72 120.35,-179.72 114.35,-179.72"/>
<text xml:space="preserve" text-anchor="middle" x="79.17" y="-146.72" font-family="Inter, SF Pro Display, -apple-system, BlinkMacSystemFont, Segoe UI, Roboto, sans-serif" font-size="12.00" fill="#e0e0e0">Pooled</text>
</g>
<!-- CheckedOut -->
<g id="node2" class="node">
<title>CheckedOut</title>
<path fill="#2d2d2d" stroke="#b39ddb" d="M307.7,-149.72C307.7,-149.72 210.35,-149.72 210.35,-149.72 204.35,-149.72 198.35,-143.72 198.35,-137.72 198.35,-137.72 198.35,-104.28 198.35,-104.28 198.35,-98.28 204.35,-92.28 210.35,-92.28 210.35,-92.28 307.7,-92.28 307.7,-92.28 313.7,-92.28 319.7,-98.28 319.7,-104.28 319.7,-104.28 319.7,-137.72 319.7,-137.72 319.7,-143.72 313.7,-149.72 307.7,-149.72"/>
<text xml:space="preserve" text-anchor="middle" x="259.02" y="-116.72" font-family="Inter, SF Pro Display, -apple-system, BlinkMacSystemFont, Segoe UI, Roboto, sans-serif" font-size="12.00" fill="#e0e0e0">CheckedOut</text>
</g>
<!-- Pooled&#45;&gt;CheckedOut -->
<g id="edge1" class="edge">
<title>Pooled&#45;&gt;CheckedOut</title>
<path fill="none" stroke="#b0b0b0" d="M126.44,-123.84C144.76,-118.52 166.26,-114.22 186.5,-111.69"/>
<polygon fill="#b0b0b0" stroke="#b0b0b0" points="186.85,-115.17 196.41,-110.6 186.08,-108.21 186.85,-115.17"/>
</g>
<!-- Closed -->
<g id="node4" class="node">
<title>Closed</title>
<path fill="#2d2d2d" stroke="#b39ddb" d="M675.65,-177.72C675.65,-177.72 606.05,-177.72 606.05,-177.72 600.05,-177.72 594.05,-171.72 594.05,-165.72 594.05,-165.72 594.05,-132.28 594.05,-132.28 594.05,-126.28 600.05,-120.28 606.05,-120.28 606.05,-120.28 675.65,-120.28 675.65,-120.28 681.65,-120.28 687.65,-126.28 687.65,-132.28 687.65,-132.28 687.65,-165.72 687.65,-165.72 687.65,-171.72 681.65,-177.72 675.65,-177.72"/>
<text xml:space="preserve" text-anchor="middle" x="640.85" y="-144.72" font-family="Inter, SF Pro Display, -apple-system, BlinkMacSystemFont, Segoe UI, Roboto, sans-serif" font-size="12.00" fill="#e0e0e0">Closed</text>
</g>
<!-- Pooled&#45;&gt;Closed -->
<g id="edge2" class="edge">
<title>Pooled&#45;&gt;Closed</title>
<path fill="none" stroke="#b0b0b0" d="M126.54,-138.42C159.65,-140.83 198.35,-150 198.35,-150 198.35,-150 319.7,-150 319.7,-150 319.7,-150 490.09,-134.03 582.26,-136.66"/>
<polygon fill="#b0b0b0" stroke="#b0b0b0" points="582,-140.15 592.13,-137.04 582.27,-133.15 582,-140.15"/>
</g>
<!-- Pooled&#45;&gt;Closed -->
<g id="edge7" class="edge">
<title>Pooled&#45;&gt;Closed</title>
<path fill="none" stroke="#757575" stroke-dasharray="1,5" d="M114.04,-180.19C148.96,-196.3 198.35,-208 198.35,-208 198.35,-208 319.7,-208 319.7,-208 319.7,-208 490.44,-192 582.54,-172.08"/>
<polygon fill="#757575" stroke="#757575" points="583.18,-175.52 592.16,-169.9 581.64,-168.69 583.18,-175.52"/>
</g>
<!-- CheckedOut&#45;&gt;Pooled -->
<g id="edge3" class="edge">
<title>CheckedOut&#45;&gt;Pooled</title>
<path fill="none" stroke="#b0b0b0" d="M204.43,-150.19C183.36,-155.76 159.13,-159.96 137.69,-161.79"/>
<polygon fill="#b0b0b0" stroke="#b0b0b0" points="137.69,-158.29 127.95,-162.45 138.16,-165.27 137.69,-158.29"/>
</g>
<!-- InTransaction -->
<g id="node3" class="node">
<title>InTransaction</title>
<path fill="#2d2d2d" stroke="#b39ddb" d="M510.05,-89.72C510.05,-89.72 403.7,-89.72 403.7,-89.72 397.7,-89.72 391.7,-83.72 391.7,-77.72 391.7,-77.72 391.7,-44.28 391.7,-44.28 391.7,-38.28 397.7,-32.28 403.7,-32.28 403.7,-32.28 510.05,-32.28 510.05,-32.28 516.05,-32.28 522.05,-38.28 522.05,-44.28 522.05,-44.28 522.05,-77.72 522.05,-77.72 522.05,-83.72 516.05,-89.72 510.05,-89.72"/>
<text xml:space="preserve" text-anchor="middle" x="456.88" y="-56.73" font-family="Inter, SF Pro Display, -apple-system, BlinkMacSystemFont, Segoe UI, Roboto, sans-serif" font-size="12.00" fill="#e0e0e0">InTransaction</text>
</g>
<!-- CheckedOut&#45;&gt;InTransaction -->
<g id="edge4" class="edge">
<title>CheckedOut&#45;&gt;InTransaction</title>
<path fill="none" stroke="#b0b0b0" d="M297.79,-91.84C321.14,-80.95 351.95,-70.29 380.16,-62.95"/>
<polygon fill="#b0b0b0" stroke="#b0b0b0" points="380.9,-66.37 389.77,-60.57 379.22,-59.58 380.9,-66.37"/>
</g>
<!-- CheckedOut&#45;&gt;Closed -->
<g id="edge5" class="edge">
<title>CheckedOut&#45;&gt;Closed</title>
<path fill="none" stroke="#b0b0b0" d="M319.79,-109.05C391.78,-107.08 511.83,-116.02 582.65,-128.69"/>
<polygon fill="#b0b0b0" stroke="#b0b0b0" points="581.61,-132.06 592.09,-130.48 582.91,-125.18 581.61,-132.06"/>
</g>
<!-- CheckedOut&#45;&gt;Closed -->
<g id="edge8" class="edge">
<title>CheckedOut&#45;&gt;Closed</title>
<path fill="none" stroke="#757575" stroke-dasharray="1,5" d="M319.79,-141.76C391.63,-154.32 511.33,-163.07 582.21,-160.89"/>
<polygon fill="#757575" stroke="#757575" points="582.22,-164.39 592.06,-160.48 581.93,-157.4 582.22,-164.39"/>
</g>
<!-- InTransaction&#45;&gt;CheckedOut -->
<g id="edge6" class="edge">
<title>InTransaction&#45;&gt;CheckedOut</title>
<path fill="none" stroke="#b0b0b0" d="M418.09,-90.17C393.47,-101.65 360.59,-112.86 331.19,-120.21"/>
<polygon fill="#b0b0b0" stroke="#b0b0b0" points="330.52,-116.77 321.59,-122.48 332.13,-123.58 330.52,-116.77"/>
</g>
<!-- InTransaction&#45;&gt;Closed -->
<g id="edge9" class="edge">
<title>InTransaction&#45;&gt;Closed</title>
<path fill="none" stroke="#757575" stroke-dasharray="1,5" d="M518.22,-90.18C539.28,-100.37 562.83,-111.75 583.55,-121.77"/>
<polygon fill="#757575" stroke="#757575" points="581.9,-124.86 592.42,-126.07 584.94,-118.56 581.9,-124.86"/>
</g>
<!-- Closed&#45;&gt;Closed -->
<g id="edge10" class="edge">
<title>Closed&#45;&gt;Closed</title>
<path fill="none" stroke="#757575" stroke-dasharray="1,5" d="M613.2,-177.87C598.39,-205.53 607.61,-235.72 640.85,-235.72 669.93,-235.72 680.63,-212.61 672.93,-188.3"/>
<polygon fill="#757575" stroke="#757575" points="676.22,-187.1 669.1,-179.27 669.78,-189.84 676.22,-187.1"/>
</g>
</g>
</svg>
