<?xml version="1.0" encoding="UTF-8" standalone="no"?>
<!DOCTYPE svg PUBLIC "-//W3C//DTD SVG 1.1//EN"
 "http://www.w3.org/Graphics/SVG/1.1/DTD/svg11.dtd">
<!-- Generated by graphviz version 14.0.5 (20251129.0259)
 -->
<!-- Pages: 1 -->
<svg width="423pt" height="593pt"
 viewBox="0.00 0.00 423.00 593.00" xmlns="http://www.w3.org/2000/svg" xmlns:xlink="http://www.w3.org/1999/xlink">
<g id="graph0" class="graph" transform="scale(1 1) rotate(0) translate(21.6 570.9)">
<g id="clust1" class="cluster">
<title>cluster_DbConnection</title>
<path fill="#1e1e1e" stroke="#b39ddb" d="M20,-8C20,-8 344,-8 344,-8 350,-8 356,-14 356,-20 356,-20 356,-529.3 356,-529.3 356,-535.3 350,-541.3 344,-541.3 344,-541.3 20,-541.3 20,-541.3 14,-541.3 8,-535.3 8,-529.3 8,-529.3 8,-20 8,-20 8,-14 14,-8 20,-8"/>
<text xml:space="preserve" text-anchor="middle" x="182" y="-522.1" font-family="sans-serif" font-size="16.00" fill="#e0e0e0">DbConnection</text>
</g>
<!-- Pooled -->
<g id="node1" class="node">
<title>Pooled</title>
<path fill="#2d2d2d" stroke="#b39ddb" d="M282.8,-486.8C282.8,-486.8 207.2,-486.8 207.2,-486.8 201.2,-486.8 195.2,-480.8 195.2,-474.8 195.2,-474.8 195.2,-440.6 195.2,-440.6 195.2,-434.6 201.2,-428.6 207.2,-428.6 207.2,-428.6 282.8,-428.6 282.8,-428.6 288.8,-428.6 294.8,-434.6 294.8,-440.6 294.8,-440.6 294.8,-474.8 294.8,-474.8 294.8,-480.8 288.8,-486.8 282.8,-486.8"/>
<text xml:space="preserve" text-anchor="middle" x="245" y="-451.9" font-family="sans-serif" font-size="14.00" fill="#e0e0e0">Pooled</text>
</g>
<!-- CheckedOut -->
<g id="node2" class="node">
<title>CheckedOut</title>
<path fill="#2d2d2d" stroke="#b39ddb" d="M233.68,-356.6C233.68,-356.6 124.32,-356.6 124.32,-356.6 118.32,-356.6 112.33,-350.6 112.33,-344.6 112.33,-344.6 112.33,-310.4 112.33,-310.4 112.33,-304.4 118.33,-298.4 124.33,-298.4 124.33,-298.4 233.68,-298.4 233.68,-298.4 239.68,-298.4 245.68,-304.4 245.68,-310.4 245.68,-310.4 245.68,-344.6 245.68,-344.6 245.68,-350.6 239.68,-356.6 233.68,-356.6"/>
<text xml:space="preserve" text-anchor="middle" x="179" y="-321.7" font-family="sans-serif" font-size="14.00" fill="#e0e0e0">CheckedOut</text>
</g>
<!-- Pooled&#45;&gt;CheckedOut -->
<g id="edge1" class="edge">
<title>Pooled&#45;&gt;CheckedOut:e</title>
<path fill="none" stroke="#b0b0b0" d="M256.38,-428.35C268.6,-394.47 283.12,-340.94 257.86,-329.64"/>
<polygon fill="#b0b0b0" stroke="#b0b0b0" points="258.64,-326.23 248.16,-327.78 257.33,-333.1 258.64,-326.23"/>
</g>
<!-- Closed -->
<g id="node4" class="node">
<title>Closed</title>
<path fill="#2d2d2d" stroke="#b39ddb" d="M295.8,-96.2C295.8,-96.2 220.2,-96.2 220.2,-96.2 214.2,-96.2 208.2,-90.2 208.2,-84.2 208.2,-84.2 208.2,-50 208.2,-50 208.2,-44 214.2,-38 220.2,-38 220.2,-38 295.8,-38 295.8,-38 301.8,-38 307.8,-44 307.8,-50 307.8,-50 307.8,-84.2 307.8,-84.2 307.8,-90.2 301.8,-96.2 295.8,-96.2"/>
<text xml:space="preserve" text-anchor="middle" x="258" y="-61.3" font-family="sans-serif" font-size="14.00" fill="#e0e0e0">Closed</text>
</g>
<!-- Pooled&#45;&gt;Closed -->
<g id="edge2" class="edge">
<title>Pooled&#45;&gt;Closed:e</title>
<path fill="none" stroke="#b0b0b0" d="M261.61,-428.37C311.28,-341.16 447.57,-81.82 320.18,-67.7"/>
<polygon fill="#b0b0b0" stroke="#b0b0b0" points="320.48,-64.21 310.31,-67.18 320.11,-71.2 320.48,-64.21"/>
</g>
<!-- CheckedOut&#45;&gt;Pooled -->
<g id="edge3" class="edge">
<title>CheckedOut&#45;&gt;Pooled</title>
<path fill="none" stroke="#b0b0b0" d="M193.61,-356.87C202.87,-374.86 214.97,-398.37 225.11,-418.06"/>
<polygon fill="#b0b0b0" stroke="#b0b0b0" points="221.97,-419.61 229.66,-426.9 228.19,-416.41 221.97,-419.61"/>
</g>
<!-- InTransaction -->
<g id="node3" class="node">
<title>InTransaction</title>
<path fill="#2d2d2d" stroke="#b39ddb" d="M165.68,-226.4C165.68,-226.4 50.32,-226.4 50.32,-226.4 44.32,-226.4 38.33,-220.4 38.33,-214.4 38.33,-214.4 38.33,-180.2 38.33,-180.2 38.33,-174.2 44.33,-168.2 50.33,-168.2 50.33,-168.2 165.68,-168.2 165.68,-168.2 171.68,-168.2 177.68,-174.2 177.68,-180.2 177.68,-180.2 177.68,-214.4 177.68,-214.4 177.68,-220.4 171.68,-226.4 165.68,-226.4"/>
<text xml:space="preserve" text-anchor="middle" x="108" y="-191.5" font-family="sans-serif" font-size="14.00" fill="#e0e0e0">InTransaction</text>
</g>
<!-- CheckedOut&#45;&gt;InTransaction -->
<g id="edge4" class="edge">
<title>CheckedOut&#45;&gt;InTransaction</title>
<path fill="none" stroke="#b0b0b0" d="M163.24,-298.05C153.22,-279.96 140.13,-256.31 129.2,-236.58"/>
<polygon fill="#b0b0b0" stroke="#b0b0b0" points="132.35,-235.05 124.45,-228 126.23,-238.44 132.35,-235.05"/>
</g>
<!-- CheckedOut&#45;&gt;Closed -->
<g id="edge5" class="edge">
<title>CheckedOut&#45;&gt;Closed:w</title>
<path fill="none" stroke="#b0b0b0" d="M191.74,-298.27C199.91,-278.58 209.75,-251.45 214,-226.4 223.7,-169.29 211.52,-154.03 208.2,-96.2 207.85,-90.04 204.66,-83.15 202.83,-77.61"/>
<polygon fill="#b0b0b0" stroke="#b0b0b0" points="206.01,-79.07 206.62,-68.5 199.55,-76.39 206.01,-79.07"/>
</g>
<!-- InTransaction&#45;&gt;CheckedOut -->
<g id="edge6" class="edge">
<title>InTransaction&#45;&gt;CheckedOut:w</title>
<path fill="none" stroke="#b0b0b0" d="M97.72,-226.65C86.8,-260.53 74.35,-314.06 100.06,-325.36"/>
<polygon fill="#b0b0b0" stroke="#b0b0b0" points="99.36,-328.79 109.84,-327.22 100.67,-321.91 99.36,-328.79"/>
</g>
<!-- InTransaction&#45;&gt;Closed -->
<g id="edge7" class="edge">
<title>InTransaction&#45;&gt;Closed:s</title>
<path fill="none" stroke="#757575" stroke-dasharray="1,5" d="M177.79,-181.29C223.4,-167.47 279.57,-141.92 307.8,-96.2 354.96,-19.82 281.46,-6.55 262.35,-26.5"/>
<polygon fill="#757575" stroke="#757575" points="259.17,-25.02 258.58,-35.6 265.64,-27.7 259.17,-25.02"/>
</g>
<!-- Closed&#45;&gt;Closed -->
<g id="edge8" class="edge">
<title>Closed&#45;&gt;Closed:e</title>
<path fill="none" stroke="#757575" stroke-dasharray="1,5" d="M308.05,-88.88C343.99,-95.98 379.8,-88.72 379.8,-67.1 379.8,-37.6 340.38,-34.84 315.12,-58.8"/>
<polygon fill="#757575" stroke="#757575" points="312.8,-56.15 308.8,-65.97 318.04,-60.78 312.8,-56.15"/>
</g>
</g>
</svg>
