<?xml version="1.0" encoding="UTF-8" standalone="no"?>
<!DOCTYPE svg PUBLIC "-//W3C//DTD SVG 1.1//EN"
 "http://www.w3.org/Graphics/SVG/1.1/DTD/svg11.dtd">
<!-- Generated by graphviz version 14.0.5 (20251129.0259)
 -->
<!-- Pages: 1 -->
<svg width="431pt" height="141pt"
 viewBox="0.00 0.00 431.00 141.00" xmlns="http://www.w3.org/2000/svg" xmlns:xlink="http://www.w3.org/1999/xlink">
<g id="graph0" class="graph" transform="scale(1 1) rotate(0) translate(4 137)">
<polygon fill="white" stroke="none" points="-4,4 -4,-137 426.5,-137 426.5,4 -4,4"/>
<g id="clust1" class="cluster">
<title>cluster_DbConnection</title>
<polygon fill="none" stroke="black" points="8,-8 8,-125 414.5,-125 414.5,-8 8,-8"/>
<text xml:space="preserve" text-anchor="middle" x="211.25" y="-107.7" font-family="Times,serif" font-size="14.00">DbConnection</text>
</g>
<!-- Pooled -->
<g id="node1" class="node">
<title>Pooled</title>
<polygon fill="none" stroke="black" points="70,-82 16,-82 16,-46 70,-46 70,-82"/>
<text xml:space="preserve" text-anchor="middle" x="43" y="-58.95" font-family="Times,serif" font-size="14.00">Pooled</text>
</g>
<!-- CheckedOut -->
<g id="node2" class="node">
<title>CheckedOut</title>
<polygon fill="none" stroke="black" points="189.5,-72 106,-72 106,-36 189.5,-36 189.5,-72"/>
<text xml:space="preserve" text-anchor="middle" x="147.75" y="-48.95" font-family="Times,serif" font-size="14.00">CheckedOut</text>
</g>
<!-- Pooled&#45;&gt;CheckedOut -->
<g id="edge1" class="edge">
<title>Pooled&#45;&gt;CheckedOut</title>
<path fill="none" stroke="black" d="M70.46,-55.44C77.82,-54.23 86.08,-53.18 94.37,-52.35"/>
<polygon fill="black" stroke="black" points="94.45,-55.86 104.11,-51.5 93.85,-48.88 94.45,-55.86"/>
</g>
<!-- Closed -->
<g id="node4" class="node">
<title>Closed</title>
<polygon fill="none" stroke="black" points="406.5,-74 352.5,-74 352.5,-38 406.5,-38 406.5,-74"/>
<text xml:space="preserve" text-anchor="middle" x="379.5" y="-50.95" font-family="Times,serif" font-size="14.00">Closed</text>
</g>
<!-- Pooled&#45;&gt;Closed -->
<g id="edge2" class="edge">
<title>Pooled&#45;&gt;Closed</title>
<path fill="none" stroke="black" d="M70.23,-64.54C81.15,-67.11 94.05,-70.39 106,-72 189.61,-83.25 288.34,-66.87 340.98,-58.77"/>
<polygon fill="black" stroke="black" points="341.25,-62.27 350.61,-57.32 340.2,-55.35 341.25,-62.27"/>
</g>
<!-- Pooled&#45;&gt;Closed -->
<g id="edge7" class="edge">
<title>Pooled&#45;&gt;Closed</title>
<path fill="none" stroke="black" stroke-dasharray="5,2" d="M70.23,-81.19C81.15,-85.11 94.05,-88.39 106,-90 189.78,-101.28 288.75,-84.8 341.31,-70.68"/>
<polygon fill="black" stroke="black" points="341.99,-74.13 350.65,-68.03 340.08,-67.39 341.99,-74.13"/>
</g>
<!-- CheckedOut&#45;&gt;Pooled -->
<g id="edge3" class="edge">
<title>CheckedOut&#45;&gt;Pooled</title>
<path fill="none" stroke="black" d="M105.62,-64.63C97.75,-65.59 89.55,-66.35 81.79,-66.86"/>
<polygon fill="black" stroke="black" points="81.79,-63.35 71.97,-67.34 82.13,-70.35 81.79,-63.35"/>
</g>
<!-- InTransaction -->
<g id="node3" class="node">
<title>InTransaction</title>
<polygon fill="none" stroke="black" points="316.5,-52 225.5,-52 225.5,-16 316.5,-16 316.5,-52"/>
<text xml:space="preserve" text-anchor="middle" x="271" y="-28.95" font-family="Times,serif" font-size="14.00">InTransaction</text>
</g>
<!-- CheckedOut&#45;&gt;InTransaction -->
<g id="edge4" class="edge">
<title>CheckedOut&#45;&gt;InTransaction</title>
<path fill="none" stroke="black" d="M189.8,-40.8C197.55,-39.26 205.78,-37.8 213.9,-36.52"/>
<polygon fill="black" stroke="black" points="214.37,-39.99 223.75,-35.06 213.35,-33.06 214.37,-39.99"/>
</g>
<!-- CheckedOut&#45;&gt;Closed -->
<g id="edge5" class="edge">
<title>CheckedOut&#45;&gt;Closed</title>
<path fill="none" stroke="black" d="M189.73,-49.79C201.28,-50.49 213.87,-51.47 225.5,-52 265.9,-53.84 276.09,-53.63 316.5,-52 324.4,-51.68 332.86,-51.14 340.9,-50.73"/>
<polygon fill="black" stroke="black" points="340.92,-54.23 350.77,-50.34 340.64,-47.24 340.92,-54.23"/>
</g>
<!-- CheckedOut&#45;&gt;Closed -->
<g id="edge8" class="edge">
<title>CheckedOut&#45;&gt;Closed</title>
<path fill="none" stroke="black" stroke-dasharray="5,2" d="M189.73,-67.08C201.28,-68.49 213.87,-69.47 225.5,-70 265.9,-71.84 276.09,-71.63 316.5,-70 324.4,-69.68 332.86,-69.14 340.9,-68.31"/>
<polygon fill="black" stroke="black" points="341.29,-71.79 350.78,-67.08 340.42,-64.84 341.29,-71.79"/>
</g>
<!-- InTransaction&#45;&gt;CheckedOut -->
<g id="edge6" class="edge">
<title>InTransaction&#45;&gt;CheckedOut</title>
<path fill="none" stroke="black" d="M225.25,-47.92C217.36,-49.44 209.09,-50.85 201.02,-52.07"/>
<polygon fill="black" stroke="black" points="200.71,-48.58 191.3,-53.44 201.69,-55.51 200.71,-48.58"/>
</g>
<!-- InTransaction&#45;&gt;Closed -->
<g id="edge9" class="edge">
<title>InTransaction&#45;&gt;Closed</title>
<path fill="none" stroke="black" stroke-dasharray="5,2" d="M316.86,-43.27C324.95,-44.94 333.32,-46.67 341.17,-48.29"/>
<polygon fill="black" stroke="black" points="340.24,-51.67 350.74,-50.27 341.66,-44.82 340.24,-51.67"/>
</g>
<!-- Closed&#45;&gt;Closed -->
<g id="edge10" class="edge">
<title>Closed&#45;&gt;Closed</title>
<path fill="none" stroke="black" stroke-dasharray="5,2" d="M359.87,-74.15C356.85,-83.54 363.39,-92 379.5,-92 388.56,-92 394.59,-89.32 397.6,-85.31"/>
<polygon fill="black" stroke="black" points="401.03,-86.03 398.92,-75.65 394.1,-85.09 401.03,-86.03"/>
</g>
</g>
</svg>
