<?xml version="1.0" encoding="UTF-8" standalone="no"?>
<!DOCTYPE svg PUBLIC "-//W3C//DTD SVG 1.1//EN"
 "http://www.w3.org/Graphics/SVG/1.1/DTD/svg11.dtd">
<!-- Generated by graphviz version 14.0.5 (20251129.0259)
 -->
<!-- Pages: 1 -->
<svg width="597pt" height="224pt"
 viewBox="0.00 0.00 597.00 224.00" xmlns="http://www.w3.org/2000/svg" xmlns:xlink="http://www.w3.org/1999/xlink">
<g id="graph0" class="graph" transform="scale(1 1) rotate(0) translate(36 188)">
<g id="clust1" class="cluster">
<title>cluster_DbConnection</title>
<path fill="#1e1e1e" stroke="#b39ddb" d="M20,-8C20,-8 504.55,-8 504.55,-8 510.55,-8 516.55,-14 516.55,-20 516.55,-20 516.55,-132 516.55,-132 516.55,-138 510.55,-144 504.55,-144 504.55,-144 20,-144 20,-144 14,-144 8,-138 8,-132 8,-132 8,-20 8,-20 8,-14 14,-8 20,-8"/>
<text xml:space="preserve" text-anchor="middle" x="262.27" y="-128.6" font-family="Inter, SF Pro Display, -apple-system, BlinkMacSystemFont, Segoe UI, Roboto, sans-serif" font-size="12.00" fill="#e0e0e0">DbConnection</text>
</g>
<!-- Pooled -->
<g id="node1" class="node">
<title>Pooled</title>
<path fill="#2d2d2d" stroke="#b39ddb" d="M88.95,-96.15C88.95,-96.15 36,-96.15 36,-96.15 30,-96.15 24,-90.15 24,-84.15 24,-84.15 24,-65.85 24,-65.85 24,-59.85 30,-53.85 36,-53.85 36,-53.85 88.95,-53.85 88.95,-53.85 94.95,-53.85 100.95,-59.85 100.95,-65.85 100.95,-65.85 100.95,-84.15 100.95,-84.15 100.95,-90.15 94.95,-96.15 88.95,-96.15"/>
<text xml:space="preserve" text-anchor="middle" x="62.47" y="-71.3" font-family="Inter, SF Pro Display, -apple-system, BlinkMacSystemFont, Segoe UI, Roboto, sans-serif" font-size="11.00" fill="#e0e0e0">Pooled</text>
</g>
<!-- CheckedOut -->
<g id="node2" class="node">
<title>CheckedOut</title>
<path fill="#2d2d2d" stroke="#b39ddb" d="M228.15,-86.15C228.15,-86.15 148.95,-86.15 148.95,-86.15 142.95,-86.15 136.95,-80.15 136.95,-74.15 136.95,-74.15 136.95,-55.85 136.95,-55.85 136.95,-49.85 142.95,-43.85 148.95,-43.85 148.95,-43.85 228.15,-43.85 228.15,-43.85 234.15,-43.85 240.15,-49.85 240.15,-55.85 240.15,-55.85 240.15,-74.15 240.15,-74.15 240.15,-80.15 234.15,-86.15 228.15,-86.15"/>
<text xml:space="preserve" text-anchor="middle" x="188.55" y="-61.3" font-family="Inter, SF Pro Display, -apple-system, BlinkMacSystemFont, Segoe UI, Roboto, sans-serif" font-size="11.00" fill="#e0e0e0">CheckedOut</text>
</g>
<!-- Pooled&#45;&gt;CheckedOut -->
<g id="edge1" class="edge">
<title>Pooled&#45;&gt;CheckedOut</title>
<path fill="none" stroke="#b0b0b0" d="M101.38,-65.67C108.93,-64.75 117.05,-63.94 125.18,-63.28"/>
<polygon fill="#b0b0b0" stroke="#b0b0b0" points="125.39,-66.77 135.12,-62.56 124.89,-59.79 125.39,-66.77"/>
</g>
<!-- Closed -->
<g id="node4" class="node">
<title>Closed</title>
<path fill="#2d2d2d" stroke="#b39ddb" d="M488.55,-88.15C488.55,-88.15 434.85,-88.15 434.85,-88.15 428.85,-88.15 422.85,-82.15 422.85,-76.15 422.85,-76.15 422.85,-57.85 422.85,-57.85 422.85,-51.85 428.85,-45.85 434.85,-45.85 434.85,-45.85 488.55,-45.85 488.55,-45.85 494.55,-45.85 500.55,-51.85 500.55,-57.85 500.55,-57.85 500.55,-76.15 500.55,-76.15 500.55,-82.15 494.55,-88.15 488.55,-88.15"/>
<text xml:space="preserve" text-anchor="middle" x="461.7" y="-63.3" font-family="Inter, SF Pro Display, -apple-system, BlinkMacSystemFont, Segoe UI, Roboto, sans-serif" font-size="11.00" fill="#e0e0e0">Closed</text>
</g>
<!-- Pooled&#45;&gt;Closed -->
<g id="edge2" class="edge">
<title>Pooled&#45;&gt;Closed</title>
<path fill="none" stroke="#b0b0b0" d="M101.22,-78.72C112.57,-81.48 125.16,-84.42 136.95,-86 233.81,-98.95 347.82,-81.55 411.42,-71.74"/>
<polygon fill="#b0b0b0" stroke="#b0b0b0" points="411.85,-75.22 421.2,-70.23 410.78,-68.3 411.85,-75.22"/>
</g>
<!-- Pooled&#45;&gt;Closed -->
<g id="edge7" class="edge">
<title>Pooled&#45;&gt;Closed</title>
<path fill="none" stroke="#757575" stroke-dasharray="1,5" d="M101.22,-95.94C112.57,-99.48 125.16,-102.42 136.95,-104 234.01,-116.97 348.29,-99.48 411.82,-84.07"/>
<polygon fill="#757575" stroke="#757575" points="412.39,-87.53 421.23,-81.69 410.67,-80.75 412.39,-87.53"/>
</g>
<!-- CheckedOut&#45;&gt;Pooled -->
<g id="edge3" class="edge">
<title>CheckedOut&#45;&gt;Pooled</title>
<path fill="none" stroke="#b0b0b0" d="M136.63,-75.76C128.7,-76.54 120.53,-77.18 112.65,-77.66"/>
<polygon fill="#b0b0b0" stroke="#b0b0b0" points="112.7,-74.15 102.89,-78.14 113.05,-81.14 112.7,-74.15"/>
</g>
<!-- InTransaction -->
<g id="node3" class="node">
<title>InTransaction</title>
<path fill="#2d2d2d" stroke="#b39ddb" d="M374.85,-66.15C374.85,-66.15 288.15,-66.15 288.15,-66.15 282.15,-66.15 276.15,-60.15 276.15,-54.15 276.15,-54.15 276.15,-35.85 276.15,-35.85 276.15,-29.85 282.15,-23.85 288.15,-23.85 288.15,-23.85 374.85,-23.85 374.85,-23.85 380.85,-23.85 386.85,-29.85 386.85,-35.85 386.85,-35.85 386.85,-54.15 386.85,-54.15 386.85,-60.15 380.85,-66.15 374.85,-66.15"/>
<text xml:space="preserve" text-anchor="middle" x="331.5" y="-41.3" font-family="Inter, SF Pro Display, -apple-system, BlinkMacSystemFont, Segoe UI, Roboto, sans-serif" font-size="11.00" fill="#e0e0e0">InTransaction</text>
</g>
<!-- CheckedOut&#45;&gt;InTransaction -->
<g id="edge4" class="edge">
<title>CheckedOut&#45;&gt;InTransaction</title>
<path fill="none" stroke="#b0b0b0" d="M240.44,-51.27C248.26,-49.96 256.44,-48.73 264.53,-47.62"/>
<polygon fill="#b0b0b0" stroke="#b0b0b0" points="264.91,-51.1 274.38,-46.35 264.01,-44.16 264.91,-51.1"/>
</g>
<!-- CheckedOut&#45;&gt;Closed -->
<g id="edge5" class="edge">
<title>CheckedOut&#45;&gt;Closed</title>
<path fill="none" stroke="#b0b0b0" d="M240.29,-63.09C252.05,-64.16 264.52,-65.33 276.15,-66 325.27,-68.83 337.72,-68.65 386.85,-66 394.73,-65.57 403.06,-64.9 411.17,-64.23"/>
<polygon fill="#b0b0b0" stroke="#b0b0b0" points="411.24,-67.74 420.93,-63.45 410.68,-60.76 411.24,-67.74"/>
</g>
<!-- CheckedOut&#45;&gt;Closed -->
<g id="edge8" class="edge">
<title>CheckedOut&#45;&gt;Closed</title>
<path fill="none" stroke="#757575" stroke-dasharray="1,5" d="M240.29,-80.6C252.05,-82.16 264.52,-83.33 276.15,-84 325.27,-86.83 337.72,-86.65 386.85,-84 394.73,-83.57 403.06,-82.9 411.17,-81.99"/>
<polygon fill="#757575" stroke="#757575" points="411.46,-85.48 420.93,-80.74 410.57,-78.53 411.46,-85.48"/>
</g>
<!-- InTransaction&#45;&gt;CheckedOut -->
<g id="edge6" class="edge">
<title>InTransaction&#45;&gt;CheckedOut</title>
<path fill="none" stroke="#b0b0b0" d="M275.88,-59.35C267.95,-60.63 259.75,-61.83 251.69,-62.89"/>
<polygon fill="#b0b0b0" stroke="#b0b0b0" points="251.43,-59.4 241.94,-64.11 252.29,-66.34 251.43,-59.4"/>
</g>
<!-- InTransaction&#45;&gt;Closed -->
<g id="edge9" class="edge">
<title>InTransaction&#45;&gt;Closed</title>
<path fill="none" stroke="#757575" stroke-dasharray="1,5" d="M387.24,-54.39C395.2,-55.76 403.35,-57.16 411.19,-58.5"/>
<polygon fill="#757575" stroke="#757575" points="410.47,-61.93 420.92,-60.17 411.65,-55.03 410.47,-61.93"/>
</g>
<!-- Closed&#45;&gt;Closed -->
<g id="edge10" class="edge">
<title>Closed&#45;&gt;Closed</title>
<path fill="none" stroke="#757575" stroke-dasharray="1,5" d="M437.67,-88.34C435.38,-97.89 443.39,-106.15 461.7,-106.15 472.29,-106.15 479.43,-103.39 483.13,-99.22"/>
<polygon fill="#757575" stroke="#757575" points="486.45,-100.36 485.38,-89.82 479.65,-98.73 486.45,-100.36"/>
</g>
</g>
</svg>
