<?xml version="1.0" encoding="UTF-8" standalone="no"?>
<!DOCTYPE svg PUBLIC "-//W3C//DTD SVG 1.1//EN"
 "http://www.w3.org/Graphics/SVG/1.1/DTD/svg11.dtd">
<!-- Generated by graphviz version 14.0.5 (20251129.0259)
 -->
<!-- Pages: 1 -->
<svg width="539pt" height="218pt"
 viewBox="0.00 0.00 539.00 218.00" xmlns="http://www.w3.org/2000/svg" xmlns:xlink="http://www.w3.org/1999/xlink">
<g id="graph0" class="graph" transform="scale(1 1) rotate(0) translate(36 182)">
<g id="clust1" class="cluster">
<title>cluster_DbConnection</title>
<path fill="#1e1e1e" stroke="#b39ddb" d="M20,-8C20,-8 446.95,-8 446.95,-8 452.95,-8 458.95,-14 458.95,-20 458.95,-20 458.95,-126 458.95,-126 458.95,-132 452.95,-138 446.95,-138 446.95,-138 20,-138 20,-138 14,-138 8,-132 8,-126 8,-126 8,-20 8,-20 8,-14 14,-8 20,-8"/>
<text xml:space="preserve" text-anchor="middle" x="233.47" y="-122.6" font-family="Inter, SF Pro Display, -apple-system, BlinkMacSystemFont, Segoe UI, Roboto, sans-serif" font-size="12.00" fill="#e0e0e0">DbConnection</text>
</g>
<!-- Pooled -->
<g id="node1" class="node">
<title>Pooled</title>
<path fill="#2d2d2d" stroke="#b39ddb" d="M74.55,-90C74.55,-90 36,-90 36,-90 30,-90 24,-84 24,-78 24,-78 24,-66 24,-66 24,-60 30,-54 36,-54 36,-54 74.55,-54 74.55,-54 80.55,-54 86.55,-60 86.55,-66 86.55,-66 86.55,-78 86.55,-78 86.55,-84 80.55,-90 74.55,-90"/>
<text xml:space="preserve" text-anchor="middle" x="55.27" y="-68.3" font-family="Inter, SF Pro Display, -apple-system, BlinkMacSystemFont, Segoe UI, Roboto, sans-serif" font-size="11.00" fill="#e0e0e0">Pooled</text>
</g>
<!-- CheckedOut -->
<g id="node2" class="node">
<title>CheckedOut</title>
<path fill="#2d2d2d" stroke="#b39ddb" d="M199.35,-80C199.35,-80 134.55,-80 134.55,-80 128.55,-80 122.55,-74 122.55,-68 122.55,-68 122.55,-56 122.55,-56 122.55,-50 128.55,-44 134.55,-44 134.55,-44 199.35,-44 199.35,-44 205.35,-44 211.35,-50 211.35,-56 211.35,-56 211.35,-68 211.35,-68 211.35,-74 205.35,-80 199.35,-80"/>
<text xml:space="preserve" text-anchor="middle" x="166.95" y="-58.3" font-family="Inter, SF Pro Display, -apple-system, BlinkMacSystemFont, Segoe UI, Roboto, sans-serif" font-size="11.00" fill="#e0e0e0">CheckedOut</text>
</g>
<!-- Pooled&#45;&gt;CheckedOut -->
<g id="edge1" class="edge">
<title>Pooled&#45;&gt;CheckedOut</title>
<path fill="none" stroke="#b0b0b0" d="M86.83,-63.09C94.41,-61.98 102.77,-61.01 111.12,-60.25"/>
<polygon fill="#b0b0b0" stroke="#b0b0b0" points="111.25,-63.75 120.94,-59.47 110.69,-56.77 111.25,-63.75"/>
</g>
<!-- Closed -->
<g id="node4" class="node">
<title>Closed</title>
<path fill="#2d2d2d" stroke="#b39ddb" d="M430.95,-82C430.95,-82 391.65,-82 391.65,-82 385.65,-82 379.65,-76 379.65,-70 379.65,-70 379.65,-58 379.65,-58 379.65,-52 385.65,-46 391.65,-46 391.65,-46 430.95,-46 430.95,-46 436.95,-46 442.95,-52 442.95,-58 442.95,-58 442.95,-70 442.95,-70 442.95,-76 436.95,-82 430.95,-82"/>
<text xml:space="preserve" text-anchor="middle" x="411.3" y="-60.3" font-family="Inter, SF Pro Display, -apple-system, BlinkMacSystemFont, Segoe UI, Roboto, sans-serif" font-size="11.00" fill="#e0e0e0">Closed</text>
</g>
<!-- Pooled&#45;&gt;Closed -->
<g id="edge2" class="edge">
<title>Pooled&#45;&gt;Closed</title>
<path fill="none" stroke="#b0b0b0" d="M86.98,-73.12C98.07,-75.59 110.76,-78.51 122.55,-80 209.64,-90.99 312.17,-75.26 368.3,-67.09"/>
<polygon fill="#b0b0b0" stroke="#b0b0b0" points="368.66,-70.58 378.06,-65.69 367.66,-63.65 368.66,-70.58"/>
</g>
<!-- Pooled&#45;&gt;Closed -->
<g id="edge7" class="edge">
<title>Pooled&#45;&gt;Closed</title>
<path fill="none" stroke="#757575" stroke-dasharray="1,5" d="M86.98,-90.05C98.07,-93.59 110.76,-96.51 122.55,-98 209.82,-109.01 312.6,-93.2 368.65,-79.25"/>
<polygon fill="#757575" stroke="#757575" points="369.3,-82.7 378.09,-76.79 367.53,-75.93 369.3,-82.7"/>
</g>
<!-- CheckedOut&#45;&gt;Pooled -->
<g id="edge3" class="edge">
<title>CheckedOut&#45;&gt;Pooled</title>
<path fill="none" stroke="#b0b0b0" d="M122.45,-72.59C114.44,-73.5 106.09,-74.25 98.13,-74.76"/>
<polygon fill="#b0b0b0" stroke="#b0b0b0" points="98.15,-71.26 88.34,-75.26 98.5,-78.25 98.15,-71.26"/>
</g>
<!-- InTransaction -->
<g id="node3" class="node">
<title>InTransaction</title>
<path fill="#2d2d2d" stroke="#b39ddb" d="M331.65,-60C331.65,-60 259.35,-60 259.35,-60 253.35,-60 247.35,-54 247.35,-48 247.35,-48 247.35,-36 247.35,-36 247.35,-30 253.35,-24 259.35,-24 259.35,-24 331.65,-24 331.65,-24 337.65,-24 343.65,-30 343.65,-36 343.65,-36 343.65,-48 343.65,-48 343.65,-54 337.65,-60 331.65,-60"/>
<text xml:space="preserve" text-anchor="middle" x="295.5" y="-38.3" font-family="Inter, SF Pro Display, -apple-system, BlinkMacSystemFont, Segoe UI, Roboto, sans-serif" font-size="11.00" fill="#e0e0e0">InTransaction</text>
</g>
<!-- CheckedOut&#45;&gt;InTransaction -->
<g id="edge4" class="edge">
<title>CheckedOut&#45;&gt;InTransaction</title>
<path fill="none" stroke="#b0b0b0" d="M211.5,-48.67C219.28,-47.19 227.49,-45.8 235.61,-44.57"/>
<polygon fill="#b0b0b0" stroke="#b0b0b0" points="236.07,-48.04 245.47,-43.16 235.08,-41.11 236.07,-48.04"/>
</g>
<!-- CheckedOut&#45;&gt;Closed -->
<g id="edge5" class="edge">
<title>CheckedOut&#45;&gt;Closed</title>
<path fill="none" stroke="#b0b0b0" d="M211.59,-57.86C223.2,-58.56 235.74,-59.49 247.35,-60 290.11,-61.88 300.88,-61.6 343.65,-60 351.52,-59.71 359.9,-59.22 367.97,-58.82"/>
<polygon fill="#b0b0b0" stroke="#b0b0b0" points="368.11,-62.32 377.95,-58.41 367.82,-55.33 368.11,-62.32"/>
</g>
<!-- CheckedOut&#45;&gt;Closed -->
<g id="edge8" class="edge">
<title>CheckedOut&#45;&gt;Closed</title>
<path fill="none" stroke="#757575" stroke-dasharray="1,5" d="M211.59,-75.22C223.2,-76.56 235.74,-77.49 247.35,-78 290.11,-79.88 300.88,-79.6 343.65,-78 351.61,-77.7 360.09,-77.2 368.25,-76.46"/>
<polygon fill="#757575" stroke="#757575" points="368.4,-79.97 377.96,-75.41 367.64,-73.01 368.4,-79.97"/>
</g>
<!-- InTransaction&#45;&gt;CheckedOut -->
<g id="edge6" class="edge">
<title>InTransaction&#45;&gt;CheckedOut</title>
<path fill="none" stroke="#b0b0b0" d="M246.97,-56.07C239.06,-57.52 230.8,-58.87 222.73,-60.04"/>
<polygon fill="#b0b0b0" stroke="#b0b0b0" points="222.44,-56.55 213,-61.36 223.38,-63.48 222.44,-56.55"/>
</g>
<!-- InTransaction&#45;&gt;Closed -->
<g id="edge9" class="edge">
<title>InTransaction&#45;&gt;Closed</title>
<path fill="none" stroke="#757575" stroke-dasharray="1,5" d="M344.1,-51.2C352.12,-52.75 360.4,-54.35 368.26,-55.87"/>
<polygon fill="#757575" stroke="#757575" points="367.45,-59.28 377.93,-57.74 368.78,-52.41 367.45,-59.28"/>
</g>
<!-- Closed&#45;&gt;Closed -->
<g id="edge10" class="edge">
<title>Closed&#45;&gt;Closed</title>
<path fill="none" stroke="#757575" stroke-dasharray="1,5" d="M390.35,-82.15C387.13,-91.54 394.11,-100 411.3,-100 420.97,-100 427.41,-97.32 430.62,-93.31"/>
<polygon fill="#757575" stroke="#757575" points="434.05,-94.05 432.03,-83.65 427.12,-93.04 434.05,-94.05"/>
</g>
</g>
</svg>
