<?xml version="1.0" encoding="UTF-8" standalone="no"?>
<!DOCTYPE svg PUBLIC "-//W3C//DTD SVG 1.1//EN"
 "http://www.w3.org/Graphics/SVG/1.1/DTD/svg11.dtd">
<!-- Generated by graphviz version 14.0.5 (20251129.0259)
 -->
<!-- Pages: 1 -->
<svg width="274pt" height="177pt"
 viewBox="0.00 0.00 274.00 177.00" xmlns="http://www.w3.org/2000/svg" xmlns:xlink="http://www.w3.org/1999/xlink">
<g id="graph0" class="graph" transform="scale(1 1) rotate(0) translate(36 141)">
<g id="clust1" class="cluster">
<title>cluster_File</title>
<path fill="#1e1e1e" stroke="#b39ddb" d="M20,-8C20,-8 181.6,-8 181.6,-8 187.6,-8 193.6,-14 193.6,-20 193.6,-20 193.6,-85 193.6,-85 193.6,-91 187.6,-97 181.6,-97 181.6,-97 20,-97 20,-97 14,-97 8,-91 8,-85 8,-85 8,-20 8,-20 8,-14 14,-8 20,-8"/>
<text xml:space="preserve" text-anchor="middle" x="100.8" y="-81.6" font-family="Helvetica Bold" font-size="12.00" fill="#e0e0e0">File</text>
</g>
<!-- Closed -->
<g id="node1" class="node">
<title>Closed</title>
<path fill="#2d2d2d" stroke="#b39ddb" d="M74.55,-60C74.55,-60 36,-60 36,-60 30,-60 24,-54 24,-48 24,-48 24,-36 24,-36 24,-30 30,-24 36,-24 36,-24 74.55,-24 74.55,-24 80.55,-24 86.55,-30 86.55,-36 86.55,-36 86.55,-48 86.55,-48 86.55,-54 80.55,-60 74.55,-60"/>
<text xml:space="preserve" text-anchor="middle" x="55.28" y="-37.55" font-family="Helvetica,sans-Serif" font-size="11.00" fill="#e0e0e0">Closed</text>
</g>
<!-- Open -->
<g id="node2" class="node">
<title>Open</title>
<path fill="#2d2d2d" stroke="#b39ddb" d="M165.6,-60C165.6,-60 134.55,-60 134.55,-60 128.55,-60 122.55,-54 122.55,-48 122.55,-48 122.55,-36 122.55,-36 122.55,-30 128.55,-24 134.55,-24 134.55,-24 165.6,-24 165.6,-24 171.6,-24 177.6,-30 177.6,-36 177.6,-36 177.6,-48 177.6,-48 177.6,-54 171.6,-60 165.6,-60"/>
<text xml:space="preserve" text-anchor="middle" x="150.07" y="-37.55" font-family="Helvetica,sans-Serif" font-size="11.00" fill="#e0e0e0">Open</text>
</g>
<!-- Closed&#45;&gt;Open -->
<g id="edge1" class="edge">
<title>Closed&#45;&gt;Open</title>
<path fill="none" stroke="#b0b0b0" d="M86.92,-35.61C94.58,-35.25 102.89,-35.16 110.87,-35.34"/>
<polygon fill="#b0b0b0" stroke="#b0b0b0" points="110.56,-38.83 120.69,-35.75 110.85,-31.84 110.56,-38.83"/>
</g>
<!-- Open&#45;&gt;Closed -->
<g id="edge2" class="edge">
<title>Open&#45;&gt;Closed</title>
<path fill="none" stroke="#b0b0b0" d="M122.21,-48.19C114.7,-48.65 106.37,-48.82 98.21,-48.72"/>
<polygon fill="#b0b0b0" stroke="#b0b0b0" points="98.53,-45.23 88.43,-48.44 98.32,-52.23 98.53,-45.23"/>
</g>
</g>
</svg>
