<?xml version="1.0" encoding="UTF-8" standalone="no"?>
<!DOCTYPE svg PUBLIC "-//W3C//DTD SVG 1.1//EN"
 "http://www.w3.org/Graphics/SVG/1.1/DTD/svg11.dtd">
<!-- Generated by graphviz version 14.0.5 (20251129.0259)
 -->
<!-- Pages: 1 -->
<svg width="219pt" height="332pt"
 viewBox="0.00 0.00 219.00 332.00" xmlns="http://www.w3.org/2000/svg" xmlns:xlink="http://www.w3.org/1999/xlink">
<g id="graph0" class="graph" transform="scale(1 1) rotate(0) translate(21.6 310.5)">
<g id="clust1" class="cluster">
<title>cluster_File</title>
<path fill="#1e1e1e" stroke="#b39ddb" d="M20,-8C20,-8 156,-8 156,-8 162,-8 168,-14 168,-20 168,-20 168,-268.9 168,-268.9 168,-274.9 162,-280.9 156,-280.9 156,-280.9 20,-280.9 20,-280.9 14,-280.9 8,-274.9 8,-268.9 8,-268.9 8,-20 8,-20 8,-14 14,-8 20,-8"/>
<text xml:space="preserve" text-anchor="middle" x="88" y="-261.7" font-family="sans-serif" font-size="16.00" fill="#e0e0e0">File</text>
</g>
<!-- Closed -->
<g id="node1" class="node">
<title>Closed</title>
<path fill="#2d2d2d" stroke="#b39ddb" d="M125.8,-226.4C125.8,-226.4 50.2,-226.4 50.2,-226.4 44.2,-226.4 38.2,-220.4 38.2,-214.4 38.2,-214.4 38.2,-180.2 38.2,-180.2 38.2,-174.2 44.2,-168.2 50.2,-168.2 50.2,-168.2 125.8,-168.2 125.8,-168.2 131.8,-168.2 137.8,-174.2 137.8,-180.2 137.8,-180.2 137.8,-214.4 137.8,-214.4 137.8,-220.4 131.8,-226.4 125.8,-226.4"/>
<text xml:space="preserve" text-anchor="middle" x="88" y="-191.5" font-family="sans-serif" font-size="14.00" fill="#e0e0e0">Closed</text>
</g>
<!-- Open -->
<g id="node2" class="node">
<title>Open</title>
<path fill="#2d2d2d" stroke="#b39ddb" d="M121.68,-96.2C121.68,-96.2 54.33,-96.2 54.33,-96.2 48.33,-96.2 42.33,-90.2 42.33,-84.2 42.33,-84.2 42.33,-50 42.33,-50 42.33,-44 48.33,-38 54.33,-38 54.33,-38 121.68,-38 121.68,-38 127.68,-38 133.68,-44 133.68,-50 133.68,-50 133.68,-84.2 133.68,-84.2 133.68,-90.2 127.68,-96.2 121.68,-96.2"/>
<text xml:space="preserve" text-anchor="middle" x="88" y="-61.3" font-family="sans-serif" font-size="14.00" fill="#e0e0e0">Open</text>
</g>
<!-- Closed&#45;&gt;Open -->
<g id="edge1" class="edge">
<title>Closed&#45;&gt;Open</title>
<path fill="none" stroke="#b0b0b0" d="M65.12,-167.85C60.54,-150.17 59.78,-127.19 62.83,-107.75"/>
<polygon fill="#b0b0b0" stroke="#b0b0b0" points="66.26,-108.45 64.84,-97.95 59.4,-107.05 66.26,-108.45"/>
</g>
<!-- Open&#45;&gt;Closed -->
<g id="edge2" class="edge">
<title>Open&#45;&gt;Closed</title>
<path fill="none" stroke="#b0b0b0" d="M110.86,-96.47C115.47,-114.22 116.23,-137.33 113.14,-156.84"/>
<polygon fill="#b0b0b0" stroke="#b0b0b0" points="109.77,-155.87 111.18,-166.37 116.63,-157.28 109.77,-155.87"/>
</g>
</g>
</svg>
