<?xml version="1.0" encoding="UTF-8" standalone="no"?>
<!DOCTYPE svg PUBLIC "-//W3C//DTD SVG 1.1//EN"
 "http://www.w3.org/Graphics/SVG/1.1/DTD/svg11.dtd">
<!-- Generated by graphviz version 14.0.5 (20251129.0259)
 -->
<!-- Pages: 1 -->
<svg width="184pt" height="101pt"
 viewBox="0.00 0.00 184.00 101.00" xmlns="http://www.w3.org/2000/svg" xmlns:xlink="http://www.w3.org/1999/xlink">
<g id="graph0" class="graph" transform="scale(1 1) rotate(0) translate(4 97)">
<polygon fill="white" stroke="none" points="-4,4 -4,-97 180,-97 180,4 -4,4"/>
<g id="clust1" class="cluster">
<title>cluster_File</title>
<polygon fill="none" stroke="black" points="8,-8 8,-85 168,-85 168,-8 8,-8"/>
<text xml:space="preserve" text-anchor="middle" x="88" y="-67.7" font-family="Times,serif" font-size="14.00">File</text>
</g>
<!-- Closed -->
<g id="node1" class="node">
<title>Closed</title>
<polygon fill="none" stroke="black" points="70,-52 16,-52 16,-16 70,-16 70,-52"/>
<text xml:space="preserve" text-anchor="middle" x="43" y="-28.95" font-family="Times,serif" font-size="14.00">Closed</text>
</g>
<!-- Open -->
<g id="node2" class="node">
<title>Open</title>
<polygon fill="none" stroke="black" points="160,-52 106,-52 106,-16 160,-16 160,-52"/>
<text xml:space="preserve" text-anchor="middle" x="133" y="-28.95" font-family="Times,serif" font-size="14.00">Open</text>
</g>
<!-- Closed&#45;&gt;Open -->
<g id="edge1" class="edge">
<title>Closed&#45;&gt;Open</title>
<path fill="none" stroke="black" d="M70.4,-27.75C77.89,-27.3 86.18,-27.15 94.2,-27.31"/>
<polygon fill="black" stroke="black" points="93.97,-30.8 104.1,-27.7 94.25,-23.81 93.97,-30.8"/>
</g>
<!-- Open&#45;&gt;Closed -->
<g id="edge2" class="edge">
<title>Open&#45;&gt;Closed</title>
<path fill="none" stroke="black" d="M105.62,-40.24C98.13,-40.7 89.84,-40.85 81.82,-40.69"/>
<polygon fill="black" stroke="black" points="82.04,-37.2 71.92,-40.3 81.77,-44.19 82.04,-37.2"/>
</g>
</g>
</svg>
