<?xml version="1.0" encoding="UTF-8" standalone="no"?>
<!DOCTYPE svg PUBLIC "-//W3C//DTD SVG 1.1//EN"
 "http://www.w3.org/Graphics/SVG/1.1/DTD/svg11.dtd">
<!-- Generated by graphviz version 14.0.5 (20251129.0259)
 -->
<!-- Pages: 1 -->
<svg width="459pt" height="291pt"
 viewBox="0.00 0.00 459.00 291.00" xmlns="http://www.w3.org/2000/svg" xmlns:xlink="http://www.w3.org/1999/xlink">
<g id="graph0" class="graph" transform="scale(1 1) rotate(0) translate(72 219)">
<g id="clust1" class="cluster">
<title>cluster_File</title>
<path fill="#1e1e1e" stroke="#b39ddb" d="M20,-8C20,-8 294.95,-8 294.95,-8 300.95,-8 306.95,-14 306.95,-20 306.95,-20 306.95,-127 306.95,-127 306.95,-133 300.95,-139 294.95,-139 294.95,-139 20,-139 20,-139 14,-139 8,-133 8,-127 8,-127 8,-20 8,-20 8,-14 14,-8 20,-8"/>
<text xml:space="preserve" text-anchor="middle" x="157.47" y="-121.7" font-family="Inter, SF Pro Display, -apple-system, BlinkMacSystemFont, Segoe UI, Roboto, sans-serif" font-size="14.00" fill="#e0e0e0">File</text>
</g>
<!-- Closed -->
<g id="node1" class="node">
<title>Closed</title>
<path fill="#2d2d2d" stroke="#b39ddb" d="M113.6,-89.72C113.6,-89.72 44,-89.72 44,-89.72 38,-89.72 32,-83.72 32,-77.72 32,-77.72 32,-44.28 32,-44.28 32,-38.28 38,-32.28 44,-32.28 44,-32.28 113.6,-32.28 113.6,-32.28 119.6,-32.28 125.6,-38.28 125.6,-44.28 125.6,-44.28 125.6,-77.72 125.6,-77.72 125.6,-83.72 119.6,-89.72 113.6,-89.72"/>
<text xml:space="preserve" text-anchor="middle" x="78.8" y="-56.73" font-family="Inter, SF Pro Display, -apple-system, BlinkMacSystemFont, Segoe UI, Roboto, sans-serif" font-size="12.00" fill="#e0e0e0">Closed</text>
</g>
<!-- Open -->
<g id="node2" class="node">
<title>Open</title>
<path fill="#2d2d2d" stroke="#b39ddb" d="M270.95,-89.72C270.95,-89.72 209.6,-89.72 209.6,-89.72 203.6,-89.72 197.6,-83.72 197.6,-77.72 197.6,-77.72 197.6,-44.28 197.6,-44.28 197.6,-38.28 203.6,-32.28 209.6,-32.28 209.6,-32.28 270.95,-32.28 270.95,-32.28 276.95,-32.28 282.95,-38.28 282.95,-44.28 282.95,-44.28 282.95,-77.72 282.95,-77.72 282.95,-83.72 276.95,-89.72 270.95,-89.72"/>
<text xml:space="preserve" text-anchor="middle" x="240.27" y="-56.73" font-family="Inter, SF Pro Display, -apple-system, BlinkMacSystemFont, Segoe UI, Roboto, sans-serif" font-size="12.00" fill="#e0e0e0">Open</text>
</g>
<!-- Closed&#45;&gt;Open -->
<g id="edge1" class="edge">
<title>Closed&#45;&gt;Open</title>
<path fill="none" stroke="#b0b0b0" d="M125.93,-41.07C144.68,-38.92 166.47,-38.67 185.9,-40.34"/>
<polygon fill="#b0b0b0" stroke="#b0b0b0" points="185.51,-43.82 195.83,-41.42 186.27,-36.86 185.51,-43.82"/>
</g>
<!-- Open&#45;&gt;Closed -->
<g id="edge2" class="edge">
<title>Open&#45;&gt;Closed</title>
<path fill="none" stroke="#b0b0b0" d="M197.34,-80.41C178.99,-82.86 157.16,-83.39 137.33,-81.98"/>
<polygon fill="#b0b0b0" stroke="#b0b0b0" points="137.71,-78.5 127.43,-81.07 137.07,-85.47 137.71,-78.5"/>
</g>
</g>
</svg>
