<?xml version="1.0" encoding="UTF-8" standalone="no"?>
<!DOCTYPE svg PUBLIC "-//W3C//DTD SVG 1.1//EN"
 "http://www.w3.org/Graphics/SVG/1.1/DTD/svg11.dtd">
<!-- Generated by graphviz version 14.0.5 (20251129.0259)
 -->
<!-- Pages: 1 -->
<svg width="302pt" height="184pt"
 viewBox="0.00 0.00 302.00 184.00" xmlns="http://www.w3.org/2000/svg" xmlns:xlink="http://www.w3.org/1999/xlink">
<g id="graph0" class="graph" transform="scale(1 1) rotate(0) translate(36 148)">
<g id="clust1" class="cluster">
<title>cluster_File</title>
<path fill="#1e1e1e" stroke="#b39ddb" d="M20,-8C20,-8 210.4,-8 210.4,-8 216.4,-8 222.4,-14 222.4,-20 222.4,-20 222.4,-92 222.4,-92 222.4,-98 216.4,-104 210.4,-104 210.4,-104 20,-104 20,-104 14,-104 8,-98 8,-92 8,-92 8,-20 8,-20 8,-14 14,-8 20,-8"/>
<text xml:space="preserve" text-anchor="middle" x="115.2" y="-88.6" font-family="Inter, SF Pro Display, -apple-system, BlinkMacSystemFont, Segoe UI, Roboto, sans-serif" font-size="12.00" fill="#e0e0e0">File</text>
</g>
<!-- Closed -->
<g id="node1" class="node">
<title>Closed</title>
<path fill="#2d2d2d" stroke="#b39ddb" d="M89.7,-66.15C89.7,-66.15 36,-66.15 36,-66.15 30,-66.15 24,-60.15 24,-54.15 24,-54.15 24,-35.85 24,-35.85 24,-29.85 30,-23.85 36,-23.85 36,-23.85 89.7,-23.85 89.7,-23.85 95.7,-23.85 101.7,-29.85 101.7,-35.85 101.7,-35.85 101.7,-54.15 101.7,-54.15 101.7,-60.15 95.7,-66.15 89.7,-66.15"/>
<text xml:space="preserve" text-anchor="middle" x="62.85" y="-41.3" font-family="Inter, SF Pro Display, -apple-system, BlinkMacSystemFont, Segoe UI, Roboto, sans-serif" font-size="11.00" fill="#e0e0e0">Closed</text>
</g>
<!-- Open -->
<g id="node2" class="node">
<title>Open</title>
<path fill="#2d2d2d" stroke="#b39ddb" d="M194.4,-66.15C194.4,-66.15 149.7,-66.15 149.7,-66.15 143.7,-66.15 137.7,-60.15 137.7,-54.15 137.7,-54.15 137.7,-35.85 137.7,-35.85 137.7,-29.85 143.7,-23.85 149.7,-23.85 149.7,-23.85 194.4,-23.85 194.4,-23.85 200.4,-23.85 206.4,-29.85 206.4,-35.85 206.4,-35.85 206.4,-54.15 206.4,-54.15 206.4,-60.15 200.4,-66.15 194.4,-66.15"/>
<text xml:space="preserve" text-anchor="middle" x="172.05" y="-41.3" font-family="Inter, SF Pro Display, -apple-system, BlinkMacSystemFont, Segoe UI, Roboto, sans-serif" font-size="11.00" fill="#e0e0e0">Open</text>
</g>
<!-- Closed&#45;&gt;Open -->
<g id="edge1" class="edge">
<title>Closed&#45;&gt;Open</title>
<path fill="none" stroke="#b0b0b0" d="M101.95,-38.51C109.71,-38.24 117.95,-38.18 125.93,-38.33"/>
<polygon fill="#b0b0b0" stroke="#b0b0b0" points="125.73,-41.82 135.84,-38.63 125.95,-34.82 125.73,-41.82"/>
</g>
<!-- Open&#45;&gt;Closed -->
<g id="edge2" class="edge">
<title>Open&#45;&gt;Closed</title>
<path fill="none" stroke="#b0b0b0" d="M137.35,-51.32C129.71,-51.66 121.44,-51.8 113.29,-51.73"/>
<polygon fill="#b0b0b0" stroke="#b0b0b0" points="113.53,-48.24 103.46,-51.52 113.38,-55.23 113.53,-48.24"/>
</g>
</g>
</svg>
