<?xml version="1.0" encoding="UTF-8" standalone="no"?>
<!DOCTYPE svg PUBLIC "-//W3C//DTD SVG 1.1//EN"
 "http://www.w3.org/Graphics/SVG/1.1/DTD/svg11.dtd">
<!-- Generated by graphviz version 14.0.5 (20251129.0259)
 -->
<!-- Pages: 1 -->
<svg width="398pt" height="182pt"
 viewBox="0.00 0.00 398.00 182.00" xmlns="http://www.w3.org/2000/svg" xmlns:xlink="http://www.w3.org/1999/xlink">
<g id="graph0" class="graph" transform="scale(1 1) rotate(0) translate(21.6 160.6)">
<g id="clust1" class="cluster">
<title>cluster_File</title>
<path fill="#1e1e1e" stroke="#b39ddb" d="M20,-8C20,-8 334.95,-8 334.95,-8 340.95,-8 346.95,-14 346.95,-20 346.95,-20 346.95,-119 346.95,-119 346.95,-125 340.95,-131 334.95,-131 334.95,-131 20,-131 20,-131 14,-131 8,-125 8,-119 8,-119 8,-20 8,-20 8,-14 14,-8 20,-8"/>
<text xml:space="preserve" text-anchor="middle" x="177.47" y="-111.8" font-family="sans-serif" font-size="16.00" fill="#e0e0e0">File</text>
</g>
<!-- Closed -->
<g id="node1" class="node">
<title>Closed</title>
<path fill="#2d2d2d" stroke="#b39ddb" d="M115.6,-86.1C115.6,-86.1 40,-86.1 40,-86.1 34,-86.1 28,-80.1 28,-74.1 28,-74.1 28,-39.9 28,-39.9 28,-33.9 34,-27.9 40,-27.9 40,-27.9 115.6,-27.9 115.6,-27.9 121.6,-27.9 127.6,-33.9 127.6,-39.9 127.6,-39.9 127.6,-74.1 127.6,-74.1 127.6,-80.1 121.6,-86.1 115.6,-86.1"/>
<text xml:space="preserve" text-anchor="middle" x="77.8" y="-51.2" font-family="sans-serif" font-size="14.00" fill="#e0e0e0">Closed</text>
</g>
<!-- Open -->
<g id="node2" class="node">
<title>Open</title>
<path fill="#2d2d2d" stroke="#b39ddb" d="M314.95,-86.1C314.95,-86.1 247.6,-86.1 247.6,-86.1 241.6,-86.1 235.6,-80.1 235.6,-74.1 235.6,-74.1 235.6,-39.9 235.6,-39.9 235.6,-33.9 241.6,-27.9 247.6,-27.9 247.6,-27.9 314.95,-27.9 314.95,-27.9 320.95,-27.9 326.95,-33.9 326.95,-39.9 326.95,-39.9 326.95,-74.1 326.95,-74.1 326.95,-80.1 320.95,-86.1 314.95,-86.1"/>
<text xml:space="preserve" text-anchor="middle" x="281.27" y="-51.2" font-family="sans-serif" font-size="14.00" fill="#e0e0e0">Open</text>
</g>
<!-- Closed&#45;&gt;Open -->
<g id="edge1" class="edge">
<title>Closed&#45;&gt;Open</title>
<path fill="none" stroke="#b0b0b0" d="M128.1,-47.3C128.1,-47.3 223.87,-47.3 223.87,-47.3"/>
<polygon fill="#b0b0b0" stroke="#b0b0b0" points="223.87,-50.8 233.87,-47.3 223.87,-43.8 223.87,-50.8"/>
</g>
<!-- Open&#45;&gt;Closed -->
<g id="edge2" class="edge">
<title>Open&#45;&gt;Closed</title>
<path fill="none" stroke="#b0b0b0" d="M235.1,-66.7C235.1,-66.7 139.58,-66.7 139.58,-66.7"/>
<polygon fill="#b0b0b0" stroke="#b0b0b0" points="139.58,-63.2 129.58,-66.7 139.58,-70.2 139.58,-63.2"/>
</g>
</g>
</svg>
