<?xml version="1.0" encoding="UTF-8" standalone="no"?>
<!DOCTYPE svg PUBLIC "-//W3C//DTD SVG 1.1//EN"
 "http://www.w3.org/Graphics/SVG/1.1/DTD/svg11.dtd">
<!-- Generated by graphviz version 14.0.5 (20251129.0259)
 -->
<!-- Pages: 1 -->
<svg width="274pt" height="178pt"
 viewBox="0.00 0.00 274.00 178.00" xmlns="http://www.w3.org/2000/svg" xmlns:xlink="http://www.w3.org/1999/xlink">
<g id="graph0" class="graph" transform="scale(1 1) rotate(0) translate(36 142)">
<g id="clust1" class="cluster">
<title>cluster_File</title>
<path fill="#1e1e1e" stroke="#b39ddb" d="M20,-8C20,-8 181.6,-8 181.6,-8 187.6,-8 193.6,-14 193.6,-20 193.6,-20 193.6,-86 193.6,-86 193.6,-92 187.6,-98 181.6,-98 181.6,-98 20,-98 20,-98 14,-98 8,-92 8,-86 8,-86 8,-20 8,-20 8,-14 14,-8 20,-8"/>
<text xml:space="preserve" text-anchor="middle" x="100.8" y="-82.6" font-family="Inter, SF Pro Display, -apple-system, BlinkMacSystemFont, Segoe UI, Roboto, sans-serif" font-size="12.00" fill="#e0e0e0">File</text>
</g>
<!-- Closed -->
<g id="node1" class="node">
<title>Closed</title>
<path fill="#2d2d2d" stroke="#b39ddb" d="M75.3,-60C75.3,-60 36,-60 36,-60 30,-60 24,-54 24,-48 24,-48 24,-36 24,-36 24,-30 30,-24 36,-24 36,-24 75.3,-24 75.3,-24 81.3,-24 87.3,-30 87.3,-36 87.3,-36 87.3,-48 87.3,-48 87.3,-54 81.3,-60 75.3,-60"/>
<text xml:space="preserve" text-anchor="middle" x="55.65" y="-38.3" font-family="Inter, SF Pro Display, -apple-system, BlinkMacSystemFont, Segoe UI, Roboto, sans-serif" font-size="11.00" fill="#e0e0e0">Closed</text>
</g>
<!-- Open -->
<g id="node2" class="node">
<title>Open</title>
<path fill="#2d2d2d" stroke="#b39ddb" d="M165.6,-60C165.6,-60 135.3,-60 135.3,-60 129.3,-60 123.3,-54 123.3,-48 123.3,-48 123.3,-36 123.3,-36 123.3,-30 129.3,-24 135.3,-24 135.3,-24 165.6,-24 165.6,-24 171.6,-24 177.6,-30 177.6,-36 177.6,-36 177.6,-48 177.6,-48 177.6,-54 171.6,-60 165.6,-60"/>
<text xml:space="preserve" text-anchor="middle" x="150.45" y="-38.3" font-family="Inter, SF Pro Display, -apple-system, BlinkMacSystemFont, Segoe UI, Roboto, sans-serif" font-size="11.00" fill="#e0e0e0">Open</text>
</g>
<!-- Closed&#45;&gt;Open -->
<g id="edge1" class="edge">
<title>Closed&#45;&gt;Open</title>
<path fill="none" stroke="#b0b0b0" d="M87.55,-35.6C95.27,-35.24 103.64,-35.16 111.66,-35.35"/>
<polygon fill="#b0b0b0" stroke="#b0b0b0" points="111.38,-38.85 121.52,-35.78 111.68,-31.85 111.38,-38.85"/>
</g>
<!-- Open&#45;&gt;Closed -->
<g id="edge2" class="edge">
<title>Open&#45;&gt;Closed</title>
<path fill="none" stroke="#b0b0b0" d="M123.03,-48.16C115.51,-48.63 107.14,-48.82 98.93,-48.73"/>
<polygon fill="#b0b0b0" stroke="#b0b0b0" points="99.16,-45.23 89.06,-48.45 98.96,-52.23 99.16,-45.23"/>
</g>
</g>
</svg>
