<?xml version="1.0" encoding="UTF-8" standalone="no"?>
<!DOCTYPE svg PUBLIC "-//W3C//DTD SVG 1.1//EN"
 "http://www.w3.org/Graphics/SVG/1.1/DTD/svg11.dtd">
<!-- Generated by graphviz version 14.0.5 (20251129.0259)
 -->
<!-- Pages: 1 -->
<svg width="449pt" height="155pt"
 viewBox="0.00 0.00 449.00 155.00" xmlns="http://www.w3.org/2000/svg" xmlns:xlink="http://www.w3.org/1999/xlink">
<g id="graph0" class="graph" transform="scale(1 1) rotate(0) translate(4 151)">
<polygon fill="white" stroke="none" points="-4,4 -4,-151 445.25,-151 445.25,4 -4,4"/>
<g id="clust1" class="cluster">
<title>cluster_Session</title>
<polygon fill="none" stroke="black" points="267.5,-61 267.5,-138 433.25,-138 433.25,-61 267.5,-61"/>
<text xml:space="preserve" text-anchor="middle" x="350.38" y="-120.7" font-family="Times,serif" font-size="14.00">Session</text>
</g>
<g id="clust2" class="cluster">
<title>cluster_AuthFlow</title>
<polygon fill="none" stroke="black" points="8,-8 8,-139 213,-139 213,-8 8,-8"/>
<text xml:space="preserve" text-anchor="middle" x="110.5" y="-121.7" font-family="Times,serif" font-size="14.00">AuthFlow</text>
</g>
<!-- Active -->
<g id="node1" class="node">
<title>Active</title>
<polygon fill="none" stroke="black" points="329.5,-105 275.5,-105 275.5,-69 329.5,-69 329.5,-105"/>
<text xml:space="preserve" text-anchor="middle" x="302.5" y="-81.95" font-family="Times,serif" font-size="14.00">Active</text>
</g>
<!-- Expired -->
<g id="node2" class="node">
<title>Expired</title>
<polygon fill="none" stroke="black" points="425.25,-105 366.5,-105 366.5,-69 425.25,-69 425.25,-105"/>
<text xml:space="preserve" text-anchor="middle" x="395.88" y="-81.95" font-family="Times,serif" font-size="14.00">Expired</text>
</g>
<!-- Active&#45;&gt;Expired -->
<g id="edge1" class="edge">
<title>Active&#45;&gt;Expired</title>
<path fill="none" stroke="black" d="M329.93,-87C337.76,-87 346.51,-87 354.99,-87"/>
<polygon fill="black" stroke="black" points="354.76,-90.5 364.76,-87 354.76,-83.5 354.76,-90.5"/>
</g>
<!-- Pending -->
<g id="node3" class="node">
<title>Pending</title>
<polygon fill="none" stroke="black" points="76.25,-79 16,-79 16,-43 76.25,-43 76.25,-79"/>
<text xml:space="preserve" text-anchor="middle" x="46.12" y="-55.95" font-family="Times,serif" font-size="14.00">Pending</text>
</g>
<!-- Authenticated -->
<g id="node4" class="node">
<title>Authenticated</title>
<polygon fill="none" stroke="black" points="205,-106 113.25,-106 113.25,-70 205,-70 205,-106"/>
<text xml:space="preserve" text-anchor="middle" x="159.12" y="-82.95" font-family="Times,serif" font-size="14.00">Authenticated</text>
</g>
<!-- Pending&#45;&gt;Authenticated -->
<g id="edge2" class="edge">
<title>Pending&#45;&gt;Authenticated</title>
<path fill="none" stroke="black" d="M76.58,-68.16C84.44,-70.08 93.2,-72.21 101.98,-74.34"/>
<polygon fill="black" stroke="black" points="101.03,-77.71 111.57,-76.68 102.68,-70.91 101.03,-77.71"/>
</g>
<!-- Failed -->
<g id="node5" class="node">
<title>Failed</title>
<polygon fill="none" stroke="black" points="186.12,-52 132.12,-52 132.12,-16 186.12,-16 186.12,-52"/>
<text xml:space="preserve" text-anchor="middle" x="159.12" y="-28.95" font-family="Times,serif" font-size="14.00">Failed</text>
</g>
<!-- Pending&#45;&gt;Failed -->
<g id="edge3" class="edge">
<title>Pending&#45;&gt;Failed</title>
<path fill="none" stroke="black" d="M76.58,-53.84C90.16,-50.53 106.43,-46.57 120.86,-43.06"/>
<polygon fill="black" stroke="black" points="121.58,-46.49 130.47,-40.73 119.93,-39.69 121.58,-46.49"/>
</g>
<!-- Authenticated&#45;&gt;Active -->
<g id="edge4" class="edge">
<title>Authenticated&#45;&gt;Active</title>
<path fill="none" stroke="black" stroke-dasharray="5,2" d="M205.25,-87.68C224.11,-87.55 245.79,-87.39 263.79,-87.27"/>
<polygon fill="black" stroke="black" points="263.81,-90.77 273.79,-87.2 263.76,-83.77 263.81,-90.77"/>
<text xml:space="preserve" text-anchor="middle" x="240.25" y="-90.73" font-family="Times,serif" font-size="14.00">bridge</text>
</g>
<!-- Failed&#45;&gt;Expired -->
<g id="edge5" class="edge">
<title>Failed&#45;&gt;Expired</title>
<path fill="none" stroke="black" stroke-dasharray="5,2" d="M186.45,-31.29C220.46,-28.73 281.02,-27.35 329.5,-43.5 341.88,-47.62 354.14,-54.74 364.64,-62.04"/>
<polygon fill="black" stroke="black" points="362.38,-64.73 372.52,-67.82 366.52,-59.09 362.38,-64.73"/>
<text xml:space="preserve" text-anchor="middle" x="302.5" y="-46.7" font-family="Times,serif" font-size="14.00">bridge</text>
</g>
</g>
</svg>
