<?xml version="1.0" encoding="UTF-8" standalone="no"?>
<!DOCTYPE svg PUBLIC "-//W3C//DTD SVG 1.1//EN"
 "http://www.w3.org/Graphics/SVG/1.1/DTD/svg11.dtd">
<!-- Generated by graphviz version 14.0.5 (20251129.0259)
 -->
<!-- Pages: 1 -->
<svg width="843pt" height="406pt"
 viewBox="0.00 0.00 843.00 406.00" xmlns="http://www.w3.org/2000/svg" xmlns:xlink="http://www.w3.org/1999/xlink">
<g id="graph0" class="graph" transform="scale(1 1) rotate(0) translate(72 334)">
<g id="clust1" class="cluster">
<title>cluster_Session</title>
<path fill="#1e1e1e" stroke="#b39ddb" d="M396.2,-123C396.2,-123 678.65,-123 678.65,-123 684.65,-123 690.65,-129 690.65,-135 690.65,-135 690.65,-242 690.65,-242 690.65,-248 684.65,-254 678.65,-254 678.65,-254 396.2,-254 396.2,-254 390.2,-254 384.2,-248 384.2,-242 384.2,-242 384.2,-135 384.2,-135 384.2,-129 390.2,-123 396.2,-123"/>
<text xml:space="preserve" text-anchor="middle" x="537.42" y="-236.7" font-family="Inter, SF Pro Display, -apple-system, BlinkMacSystemFont, Segoe UI, Roboto, sans-serif" font-size="14.00" fill="#e0e0e0">Session</text>
</g>
<g id="clust2" class="cluster">
<title>cluster_AuthFlow</title>
<path fill="#1e1e1e" stroke="#b39ddb" d="M20,-8C20,-8 348.2,-8 348.2,-8 354.2,-8 360.2,-14 360.2,-20 360.2,-20 360.2,-242 360.2,-242 360.2,-248 354.2,-254 348.2,-254 348.2,-254 20,-254 20,-254 14,-254 8,-248 8,-242 8,-242 8,-20 8,-20 8,-14 14,-8 20,-8"/>
<text xml:space="preserve" text-anchor="middle" x="184.1" y="-236.7" font-family="Inter, SF Pro Display, -apple-system, BlinkMacSystemFont, Segoe UI, Roboto, sans-serif" font-size="14.00" fill="#e0e0e0">AuthFlow</text>
</g>
<!-- Active -->
<g id="node1" class="node">
<title>Active</title>
<path fill="#2d2d2d" stroke="#b39ddb" d="M486.05,-204.72C486.05,-204.72 420.2,-204.72 420.2,-204.72 414.2,-204.72 408.2,-198.72 408.2,-192.72 408.2,-192.72 408.2,-159.28 408.2,-159.28 408.2,-153.28 414.2,-147.28 420.2,-147.28 420.2,-147.28 486.05,-147.28 486.05,-147.28 492.05,-147.28 498.05,-153.28 498.05,-159.28 498.05,-159.28 498.05,-192.72 498.05,-192.72 498.05,-198.72 492.05,-204.72 486.05,-204.72"/>
<text xml:space="preserve" text-anchor="middle" x="453.12" y="-171.72" font-family="Inter, SF Pro Display, -apple-system, BlinkMacSystemFont, Segoe UI, Roboto, sans-serif" font-size="12.00" fill="#e0e0e0">Active</text>
</g>
<!-- Expired -->
<g id="node2" class="node">
<title>Expired</title>
<path fill="#2d2d2d" stroke="#b39ddb" d="M654.65,-204.72C654.65,-204.72 582.05,-204.72 582.05,-204.72 576.05,-204.72 570.05,-198.72 570.05,-192.72 570.05,-192.72 570.05,-159.28 570.05,-159.28 570.05,-153.28 576.05,-147.28 582.05,-147.28 582.05,-147.28 654.65,-147.28 654.65,-147.28 660.65,-147.28 666.65,-153.28 666.65,-159.28 666.65,-159.28 666.65,-192.72 666.65,-192.72 666.65,-198.72 660.65,-204.72 654.65,-204.72"/>
<text xml:space="preserve" text-anchor="middle" x="618.35" y="-171.72" font-family="Inter, SF Pro Display, -apple-system, BlinkMacSystemFont, Segoe UI, Roboto, sans-serif" font-size="12.00" fill="#e0e0e0">Expired</text>
</g>
<!-- Active&#45;&gt;Expired -->
<g id="edge1" class="edge">
<title>Active&#45;&gt;Expired</title>
<path fill="none" stroke="#b0b0b0" d="M498.3,-176C516.76,-176 538.5,-176 558.31,-176"/>
<polygon fill="#b0b0b0" stroke="#b0b0b0" points="558.19,-179.5 568.19,-176 558.19,-172.5 558.19,-179.5"/>
</g>
<!-- Pending -->
<g id="node3" class="node">
<title>Pending</title>
<path fill="#2d2d2d" stroke="#b39ddb" d="M121.1,-146.72C121.1,-146.72 44,-146.72 44,-146.72 38,-146.72 32,-140.72 32,-134.72 32,-134.72 32,-101.28 32,-101.28 32,-95.28 38,-89.28 44,-89.28 44,-89.28 121.1,-89.28 121.1,-89.28 127.1,-89.28 133.1,-95.28 133.1,-101.28 133.1,-101.28 133.1,-134.72 133.1,-134.72 133.1,-140.72 127.1,-146.72 121.1,-146.72"/>
<text xml:space="preserve" text-anchor="middle" x="82.55" y="-113.72" font-family="Inter, SF Pro Display, -apple-system, BlinkMacSystemFont, Segoe UI, Roboto, sans-serif" font-size="12.00" fill="#e0e0e0">Pending</text>
</g>
<!-- Authenticated -->
<g id="node4" class="node">
<title>Authenticated</title>
<path fill="#2d2d2d" stroke="#b39ddb" d="M324.2,-204.72C324.2,-204.72 217.1,-204.72 217.1,-204.72 211.1,-204.72 205.1,-198.72 205.1,-192.72 205.1,-192.72 205.1,-159.28 205.1,-159.28 205.1,-153.28 211.1,-147.28 217.1,-147.28 217.1,-147.28 324.2,-147.28 324.2,-147.28 330.2,-147.28 336.2,-153.28 336.2,-159.28 336.2,-159.28 336.2,-192.72 336.2,-192.72 336.2,-198.72 330.2,-204.72 324.2,-204.72"/>
<text xml:space="preserve" text-anchor="middle" x="270.65" y="-171.72" font-family="Inter, SF Pro Display, -apple-system, BlinkMacSystemFont, Segoe UI, Roboto, sans-serif" font-size="12.00" fill="#e0e0e0">Authenticated</text>
</g>
<!-- Pending&#45;&gt;Authenticated -->
<g id="edge2" class="edge">
<title>Pending&#45;&gt;Authenticated</title>
<path fill="none" stroke="#b0b0b0" d="M133.42,-133.54C152.04,-139.35 173.62,-146.07 194.04,-152.44"/>
<polygon fill="#b0b0b0" stroke="#b0b0b0" points="192.88,-155.74 203.47,-155.37 194.96,-149.06 192.88,-155.74"/>
</g>
<!-- Failed -->
<g id="node5" class="node">
<title>Failed</title>
<path fill="#2d2d2d" stroke="#b39ddb" d="M303.57,-89.72C303.57,-89.72 237.72,-89.72 237.72,-89.72 231.72,-89.72 225.72,-83.72 225.72,-77.72 225.72,-77.72 225.72,-44.28 225.72,-44.28 225.72,-38.28 231.72,-32.28 237.72,-32.28 237.72,-32.28 303.57,-32.28 303.57,-32.28 309.57,-32.28 315.57,-38.28 315.57,-44.28 315.57,-44.28 315.57,-77.72 315.57,-77.72 315.57,-83.72 309.57,-89.72 303.57,-89.72"/>
<text xml:space="preserve" text-anchor="middle" x="270.65" y="-56.73" font-family="Inter, SF Pro Display, -apple-system, BlinkMacSystemFont, Segoe UI, Roboto, sans-serif" font-size="12.00" fill="#e0e0e0">Failed</text>
</g>
<!-- Pending&#45;&gt;Failed -->
<g id="edge3" class="edge">
<title>Pending&#45;&gt;Failed</title>
<path fill="none" stroke="#b0b0b0" d="M133.42,-102.73C158.48,-95.05 188.91,-85.73 214.65,-77.85"/>
<polygon fill="#b0b0b0" stroke="#b0b0b0" points="215.38,-81.28 223.91,-75.01 213.33,-74.59 215.38,-81.28"/>
</g>
<!-- Authenticated&#45;&gt;Active -->
<g id="edge4" class="edge">
<title>Authenticated&#45;&gt;Active</title>
<path fill="none" stroke="#b39ddb" stroke-width="1.5" stroke-dasharray="5,2" d="M336.55,-176C355.86,-176 376.85,-176 395.57,-176"/>
<polygon fill="#b39ddb" stroke="#b39ddb" stroke-width="1.5" points="395.55,-179.5 405.55,-176 395.55,-172.5 395.55,-179.5"/>
</g>
<!-- Failed&#45;&gt;Expired -->
<g id="edge5" class="edge">
<title>Failed&#45;&gt;Expired</title>
<path fill="none" stroke="#b39ddb" stroke-width="1.5" stroke-dasharray="5,2" d="M315.84,-72.13C381.73,-88.71 498.05,-118 498.05,-118 498.05,-118 528.89,-132.99 559.21,-147.73"/>
<polygon fill="#b39ddb" stroke="#b39ddb" stroke-width="1.5" points="557.29,-150.69 567.81,-151.92 560.35,-144.4 557.29,-150.69"/>
</g>
</g>
</svg>
