<?xml version="1.0" encoding="UTF-8" standalone="no"?>
<!DOCTYPE svg PUBLIC "-//W3C//DTD SVG 1.1//EN"
 "http://www.w3.org/Graphics/SVG/1.1/DTD/svg11.dtd">
<!-- Generated by graphviz version 14.0.5 (20251129.0259)
 -->
<!-- Pages: 1 -->
<svg width="581pt" height="244pt"
 viewBox="0.00 0.00 581.00 244.00" xmlns="http://www.w3.org/2000/svg" xmlns:xlink="http://www.w3.org/1999/xlink">
<g id="graph0" class="graph" transform="scale(1 1) rotate(0) translate(36 208)">
<g id="clust1" class="cluster">
<title>cluster_Session</title>
<path fill="#1e1e1e" stroke="#b39ddb" d="M291.15,-65C291.15,-65 489.05,-65 489.05,-65 495.05,-65 501.05,-71 501.05,-77 501.05,-77 501.05,-149 501.05,-149 501.05,-155 495.05,-161 489.05,-161 489.05,-161 291.15,-161 291.15,-161 285.15,-161 279.15,-155 279.15,-149 279.15,-149 279.15,-77 279.15,-77 279.15,-71 285.15,-65 291.15,-65"/>
<text xml:space="preserve" text-anchor="middle" x="390.1" y="-145.6" font-family="Inter, SF Pro Display, -apple-system, BlinkMacSystemFont, Segoe UI, Roboto, sans-serif" font-size="12.00" fill="#e0e0e0">Session</text>
</g>
<g id="clust2" class="cluster">
<title>cluster_AuthFlow</title>
<path fill="#1e1e1e" stroke="#b39ddb" d="M20,-8C20,-8 259.15,-8 259.15,-8 265.15,-8 271.15,-14 271.15,-20 271.15,-20 271.15,-152 271.15,-152 271.15,-158 265.15,-164 259.15,-164 259.15,-164 20,-164 20,-164 14,-164 8,-158 8,-152 8,-152 8,-20 8,-20 8,-14 14,-8 20,-8"/>
<text xml:space="preserve" text-anchor="middle" x="139.57" y="-148.6" font-family="Inter, SF Pro Display, -apple-system, BlinkMacSystemFont, Segoe UI, Roboto, sans-serif" font-size="12.00" fill="#e0e0e0">AuthFlow</text>
</g>
<!-- Active -->
<g id="node1" class="node">
<title>Active</title>
<path fill="#2d2d2d" stroke="#b39ddb" d="M357.85,-123.15C357.85,-123.15 307.15,-123.15 307.15,-123.15 301.15,-123.15 295.15,-117.15 295.15,-111.15 295.15,-111.15 295.15,-92.85 295.15,-92.85 295.15,-86.85 301.15,-80.85 307.15,-80.85 307.15,-80.85 357.85,-80.85 357.85,-80.85 363.85,-80.85 369.85,-86.85 369.85,-92.85 369.85,-92.85 369.85,-111.15 369.85,-111.15 369.85,-117.15 363.85,-123.15 357.85,-123.15"/>
<text xml:space="preserve" text-anchor="middle" x="332.5" y="-98.3" font-family="Inter, SF Pro Display, -apple-system, BlinkMacSystemFont, Segoe UI, Roboto, sans-serif" font-size="11.00" fill="#e0e0e0">Active</text>
</g>
<!-- Expired -->
<g id="node2" class="node">
<title>Expired</title>
<path fill="#2d2d2d" stroke="#b39ddb" d="M473.05,-123.15C473.05,-123.15 417.85,-123.15 417.85,-123.15 411.85,-123.15 405.85,-117.15 405.85,-111.15 405.85,-111.15 405.85,-92.85 405.85,-92.85 405.85,-86.85 411.85,-80.85 417.85,-80.85 417.85,-80.85 473.05,-80.85 473.05,-80.85 479.05,-80.85 485.05,-86.85 485.05,-92.85 485.05,-92.85 485.05,-111.15 485.05,-111.15 485.05,-117.15 479.05,-123.15 473.05,-123.15"/>
<text xml:space="preserve" text-anchor="middle" x="445.45" y="-98.3" font-family="Inter, SF Pro Display, -apple-system, BlinkMacSystemFont, Segoe UI, Roboto, sans-serif" font-size="11.00" fill="#e0e0e0">Expired</text>
</g>
<!-- Active&#45;&gt;Expired -->
<g id="edge1" class="edge">
<title>Active&#45;&gt;Expired</title>
<path fill="none" stroke="#b0b0b0" d="M370.14,-102C377.86,-102 386.13,-102 394.26,-102"/>
<polygon fill="#b0b0b0" stroke="#b0b0b0" points="394.05,-105.5 404.05,-102 394.05,-98.5 394.05,-105.5"/>
</g>
<!-- Pending -->
<g id="node3" class="node">
<title>Pending</title>
<path fill="#2d2d2d" stroke="#b39ddb" d="M94.95,-96.15C94.95,-96.15 36,-96.15 36,-96.15 30,-96.15 24,-90.15 24,-84.15 24,-84.15 24,-65.85 24,-65.85 24,-59.85 30,-53.85 36,-53.85 36,-53.85 94.95,-53.85 94.95,-53.85 100.95,-53.85 106.95,-59.85 106.95,-65.85 106.95,-65.85 106.95,-84.15 106.95,-84.15 106.95,-90.15 100.95,-96.15 94.95,-96.15"/>
<text xml:space="preserve" text-anchor="middle" x="65.47" y="-71.3" font-family="Inter, SF Pro Display, -apple-system, BlinkMacSystemFont, Segoe UI, Roboto, sans-serif" font-size="11.00" fill="#e0e0e0">Pending</text>
</g>
<!-- Authenticated -->
<g id="node4" class="node">
<title>Authenticated</title>
<path fill="#2d2d2d" stroke="#b39ddb" d="M243.15,-126.15C243.15,-126.15 154.95,-126.15 154.95,-126.15 148.95,-126.15 142.95,-120.15 142.95,-114.15 142.95,-114.15 142.95,-95.85 142.95,-95.85 142.95,-89.85 148.95,-83.85 154.95,-83.85 154.95,-83.85 243.15,-83.85 243.15,-83.85 249.15,-83.85 255.15,-89.85 255.15,-95.85 255.15,-95.85 255.15,-114.15 255.15,-114.15 255.15,-120.15 249.15,-126.15 243.15,-126.15"/>
<text xml:space="preserve" text-anchor="middle" x="199.05" y="-101.3" font-family="Inter, SF Pro Display, -apple-system, BlinkMacSystemFont, Segoe UI, Roboto, sans-serif" font-size="11.00" fill="#e0e0e0">Authenticated</text>
</g>
<!-- Pending&#45;&gt;Authenticated -->
<g id="edge2" class="edge">
<title>Pending&#45;&gt;Authenticated</title>
<path fill="none" stroke="#b0b0b0" d="M107.38,-84.33C115.06,-86.08 123.27,-87.95 131.49,-89.82"/>
<polygon fill="#b0b0b0" stroke="#b0b0b0" points="130.66,-93.22 141.19,-92.03 132.21,-86.4 130.66,-93.22"/>
</g>
<!-- Failed -->
<g id="node5" class="node">
<title>Failed</title>
<path fill="#2d2d2d" stroke="#b39ddb" d="M223.65,-66.15C223.65,-66.15 174.45,-66.15 174.45,-66.15 168.45,-66.15 162.45,-60.15 162.45,-54.15 162.45,-54.15 162.45,-35.85 162.45,-35.85 162.45,-29.85 168.45,-23.85 174.45,-23.85 174.45,-23.85 223.65,-23.85 223.65,-23.85 229.65,-23.85 235.65,-29.85 235.65,-35.85 235.65,-35.85 235.65,-54.15 235.65,-54.15 235.65,-60.15 229.65,-66.15 223.65,-66.15"/>
<text xml:space="preserve" text-anchor="middle" x="199.05" y="-41.3" font-family="Inter, SF Pro Display, -apple-system, BlinkMacSystemFont, Segoe UI, Roboto, sans-serif" font-size="11.00" fill="#e0e0e0">Failed</text>
</g>
<!-- Pending&#45;&gt;Failed -->
<g id="edge3" class="edge">
<title>Pending&#45;&gt;Failed</title>
<path fill="none" stroke="#b0b0b0" d="M107.38,-65.67C121.19,-62.52 136.72,-58.98 150.97,-55.74"/>
<polygon fill="#b0b0b0" stroke="#b0b0b0" points="151.62,-59.18 160.59,-53.54 150.06,-52.35 151.62,-59.18"/>
</g>
<!-- Authenticated&#45;&gt;Active -->
<g id="edge4" class="edge">
<title>Authenticated&#45;&gt;Active</title>
<path fill="none" stroke="#b39ddb" stroke-width="1.5" stroke-dasharray="5,2" d="M255.42,-103.74C264.48,-103.53 273.81,-103.32 282.7,-103.11"/>
<polygon fill="#b39ddb" stroke="#b39ddb" stroke-width="1.5" points="282.7,-106.61 292.62,-102.89 282.54,-99.62 282.7,-106.61"/>
</g>
<!-- Failed&#45;&gt;Expired -->
<g id="edge5" class="edge">
<title>Failed&#45;&gt;Expired</title>
<path fill="none" stroke="#b39ddb" stroke-width="1.5" stroke-dasharray="5,2" d="M236,-48.35C270.71,-52.13 324.54,-59.46 369.85,-72 377.9,-74.23 386.26,-77.05 394.34,-80.07"/>
<polygon fill="#b39ddb" stroke="#b39ddb" stroke-width="1.5" points="392.83,-83.24 403.42,-83.61 395.37,-76.72 392.83,-83.24"/>
</g>
</g>
</svg>
