<?xml version="1.0" encoding="UTF-8" standalone="no"?>
<!DOCTYPE svg PUBLIC "-//W3C//DTD SVG 1.1//EN"
 "http://www.w3.org/Graphics/SVG/1.1/DTD/svg11.dtd">
<!-- Generated by graphviz version 14.0.5 (20251129.0259)
 -->
<!-- Pages: 1 -->
<svg width="868pt" height="298pt"
 viewBox="0.00 0.00 868.00 298.00" xmlns="http://www.w3.org/2000/svg" xmlns:xlink="http://www.w3.org/1999/xlink">
<g id="graph0" class="graph" transform="scale(1 1) rotate(0) translate(21.6 276.6)">
<g id="clust1" class="cluster">
<title>cluster_Session</title>
<path fill="#1e1e1e" stroke="#b39ddb" d="M483.2,-124C483.2,-124 804.9,-124 804.9,-124 810.9,-124 816.9,-130 816.9,-136 816.9,-136 816.9,-235 816.9,-235 816.9,-241 810.9,-247 804.9,-247 804.9,-247 483.2,-247 483.2,-247 477.2,-247 471.2,-241 471.2,-235 471.2,-235 471.2,-136 471.2,-136 471.2,-130 477.2,-124 483.2,-124"/>
<text xml:space="preserve" text-anchor="middle" x="644.05" y="-227.8" font-family="sans-serif" font-size="16.00" fill="#e0e0e0">Session</text>
</g>
<g id="clust2" class="cluster">
<title>cluster_AuthFlow</title>
<path fill="#1e1e1e" stroke="#b39ddb" d="M20,-8C20,-8 391.2,-8 391.2,-8 397.2,-8 403.2,-14 403.2,-20 403.2,-20 403.2,-235 403.2,-235 403.2,-241 397.2,-247 391.2,-247 391.2,-247 20,-247 20,-247 14,-247 8,-241 8,-235 8,-235 8,-20 8,-20 8,-14 14,-8 20,-8"/>
<text xml:space="preserve" text-anchor="middle" x="205.6" y="-227.8" font-family="sans-serif" font-size="16.00" fill="#e0e0e0">AuthFlow</text>
</g>
<!-- Active -->
<g id="node1" class="node">
<title>Active</title>
<path fill="#2d2d2d" stroke="#b39ddb" d="M573.55,-202.1C573.55,-202.1 503.2,-202.1 503.2,-202.1 497.2,-202.1 491.2,-196.1 491.2,-190.1 491.2,-190.1 491.2,-155.9 491.2,-155.9 491.2,-149.9 497.2,-143.9 503.2,-143.9 503.2,-143.9 573.55,-143.9 573.55,-143.9 579.55,-143.9 585.55,-149.9 585.55,-155.9 585.55,-155.9 585.55,-190.1 585.55,-190.1 585.55,-196.1 579.55,-202.1 573.55,-202.1"/>
<text xml:space="preserve" text-anchor="middle" x="538.38" y="-167.2" font-family="sans-serif" font-size="14.00" fill="#e0e0e0">Active</text>
</g>
<!-- Expired -->
<g id="node2" class="node">
<title>Expired</title>
<path fill="#2d2d2d" stroke="#b39ddb" d="M784.9,-202.1C784.9,-202.1 705.55,-202.1 705.55,-202.1 699.55,-202.1 693.55,-196.1 693.55,-190.1 693.55,-190.1 693.55,-155.9 693.55,-155.9 693.55,-149.9 699.55,-143.9 705.55,-143.9 705.55,-143.9 784.9,-143.9 784.9,-143.9 790.9,-143.9 796.9,-149.9 796.9,-155.9 796.9,-155.9 796.9,-190.1 796.9,-190.1 796.9,-196.1 790.9,-202.1 784.9,-202.1"/>
<text xml:space="preserve" text-anchor="middle" x="745.23" y="-167.2" font-family="sans-serif" font-size="14.00" fill="#e0e0e0">Expired</text>
</g>
<!-- Active&#45;&gt;Expired -->
<g id="edge1" class="edge">
<title>Active&#45;&gt;Expired</title>
<path fill="none" stroke="#b0b0b0" d="M585.83,-173C585.83,-173 681.76,-173 681.76,-173"/>
<polygon fill="#b0b0b0" stroke="#b0b0b0" points="681.76,-176.5 691.76,-173 681.76,-169.5 681.76,-176.5"/>
</g>
<!-- Pending -->
<g id="node3" class="node">
<title>Pending</title>
<path fill="#2d2d2d" stroke="#b39ddb" d="M123.1,-144.1C123.1,-144.1 40,-144.1 40,-144.1 34,-144.1 28,-138.1 28,-132.1 28,-132.1 28,-97.9 28,-97.9 28,-91.9 34,-85.9 40,-85.9 40,-85.9 123.1,-85.9 123.1,-85.9 129.1,-85.9 135.1,-91.9 135.1,-97.9 135.1,-97.9 135.1,-132.1 135.1,-132.1 135.1,-138.1 129.1,-144.1 123.1,-144.1"/>
<text xml:space="preserve" text-anchor="middle" x="81.55" y="-109.2" font-family="sans-serif" font-size="14.00" fill="#e0e0e0">Pending</text>
</g>
<!-- Authenticated -->
<g id="node4" class="node">
<title>Authenticated</title>
<path fill="#2d2d2d" stroke="#b39ddb" d="M371.2,-202.1C371.2,-202.1 255.1,-202.1 255.1,-202.1 249.1,-202.1 243.1,-196.1 243.1,-190.1 243.1,-190.1 243.1,-155.9 243.1,-155.9 243.1,-149.9 249.1,-143.9 255.1,-143.9 255.1,-143.9 371.2,-143.9 371.2,-143.9 377.2,-143.9 383.2,-149.9 383.2,-155.9 383.2,-155.9 383.2,-190.1 383.2,-190.1 383.2,-196.1 377.2,-202.1 371.2,-202.1"/>
<text xml:space="preserve" text-anchor="middle" x="313.15" y="-167.2" font-family="sans-serif" font-size="14.00" fill="#e0e0e0">Authenticated</text>
</g>
<!-- Pending&#45;&gt;Authenticated -->
<g id="edge2" class="edge">
<title>Pending&#45;&gt;Authenticated</title>
<path fill="none" stroke="#b0b0b0" d="M135.45,-124.63C186.34,-124.63 254.9,-124.63 254.9,-124.63 254.9,-124.63 254.9,-131.96 254.9,-131.96"/>
<polygon fill="#b0b0b0" stroke="#b0b0b0" points="251.4,-131.96 254.9,-141.96 258.4,-131.96 251.4,-131.96"/>
</g>
<!-- Failed -->
<g id="node5" class="node">
<title>Failed</title>
<path fill="#2d2d2d" stroke="#b39ddb" d="M348.32,-86.1C348.32,-86.1 277.97,-86.1 277.97,-86.1 271.97,-86.1 265.97,-80.1 265.97,-74.1 265.97,-74.1 265.97,-39.9 265.97,-39.9 265.97,-33.9 271.97,-27.9 277.97,-27.9 277.97,-27.9 348.32,-27.9 348.32,-27.9 354.32,-27.9 360.32,-33.9 360.32,-39.9 360.32,-39.9 360.32,-74.1 360.32,-74.1 360.32,-80.1 354.32,-86.1 348.32,-86.1"/>
<text xml:space="preserve" text-anchor="middle" x="313.15" y="-51.2" font-family="sans-serif" font-size="14.00" fill="#e0e0e0">Failed</text>
</g>
<!-- Pending&#45;&gt;Failed -->
<g id="edge3" class="edge">
<title>Pending&#45;&gt;Failed</title>
<path fill="none" stroke="#b0b0b0" d="M135.5,-105.37C203.86,-105.37 312.9,-105.37 312.9,-105.37 312.9,-105.37 312.9,-98.04 312.9,-98.04"/>
<polygon fill="#b0b0b0" stroke="#b0b0b0" points="316.4,-98.04 312.9,-88.04 309.4,-98.04 316.4,-98.04"/>
</g>
<!-- Authenticated&#45;&gt;Active -->
<g id="edge4" class="edge">
<title>Authenticated&#45;&gt;Active</title>
<path fill="none" stroke="#b39ddb" stroke-width="1.5" stroke-dasharray="5,2" d="M383.49,-173C383.49,-173 478.71,-173 478.71,-173"/>
<polygon fill="#b39ddb" stroke="#b39ddb" stroke-width="1.5" points="478.71,-176.5 488.71,-173 478.71,-169.5 478.71,-176.5"/>
</g>
<!-- Failed&#45;&gt;Expired -->
<g id="edge5" class="edge">
<title>Failed&#45;&gt;Expired</title>
<path fill="none" stroke="#b39ddb" stroke-width="1.5" stroke-dasharray="5,2" d="M360.59,-57C472.75,-57 744.9,-57 744.9,-57 744.9,-57 744.9,-131.16 744.9,-131.16"/>
<polygon fill="#b39ddb" stroke="#b39ddb" stroke-width="1.5" points="741.4,-131.16 744.9,-141.16 748.4,-131.16 741.4,-131.16"/>
</g>
</g>
</svg>
