<?xml version="1.0" encoding="UTF-8" standalone="no"?>
<!DOCTYPE svg PUBLIC "-//W3C//DTD SVG 1.1//EN"
 "http://www.w3.org/Graphics/SVG/1.1/DTD/svg11.dtd">
<!-- Generated by graphviz version 14.0.5 (20251129.0259)
 -->
<!-- Pages: 1 -->
<svg width="523pt" height="232pt"
 viewBox="0.00 0.00 523.00 232.00" xmlns="http://www.w3.org/2000/svg" xmlns:xlink="http://www.w3.org/1999/xlink">
<g id="graph0" class="graph" transform="scale(1 1) rotate(0) translate(36 196)">
<g id="clust1" class="cluster">
<title>cluster_Session</title>
<path fill="#1e1e1e" stroke="#b39ddb" d="M262.35,-60C262.35,-60 431.45,-60 431.45,-60 437.45,-60 443.45,-66 443.45,-72 443.45,-72 443.45,-138 443.45,-138 443.45,-144 437.45,-150 431.45,-150 431.45,-150 262.35,-150 262.35,-150 256.35,-150 250.35,-144 250.35,-138 250.35,-138 250.35,-72 250.35,-72 250.35,-66 256.35,-60 262.35,-60"/>
<text xml:space="preserve" text-anchor="middle" x="346.9" y="-134.6" font-family="Inter, SF Pro Display, -apple-system, BlinkMacSystemFont, Segoe UI, Roboto, sans-serif" font-size="12.00" fill="#e0e0e0">Session</text>
</g>
<g id="clust2" class="cluster">
<title>cluster_AuthFlow</title>
<path fill="#1e1e1e" stroke="#b39ddb" d="M20,-8C20,-8 230.35,-8 230.35,-8 236.35,-8 242.35,-14 242.35,-20 242.35,-20 242.35,-140 242.35,-140 242.35,-146 236.35,-152 230.35,-152 230.35,-152 20,-152 20,-152 14,-152 8,-146 8,-140 8,-140 8,-20 8,-20 8,-14 14,-8 20,-8"/>
<text xml:space="preserve" text-anchor="middle" x="125.18" y="-136.6" font-family="Inter, SF Pro Display, -apple-system, BlinkMacSystemFont, Segoe UI, Roboto, sans-serif" font-size="12.00" fill="#e0e0e0">AuthFlow</text>
</g>
<!-- Active -->
<g id="node1" class="node">
<title>Active</title>
<path fill="#2d2d2d" stroke="#b39ddb" d="M314.65,-112C314.65,-112 278.35,-112 278.35,-112 272.35,-112 266.35,-106 266.35,-100 266.35,-100 266.35,-88 266.35,-88 266.35,-82 272.35,-76 278.35,-76 278.35,-76 314.65,-76 314.65,-76 320.65,-76 326.65,-82 326.65,-88 326.65,-88 326.65,-100 326.65,-100 326.65,-106 320.65,-112 314.65,-112"/>
<text xml:space="preserve" text-anchor="middle" x="296.5" y="-90.3" font-family="Inter, SF Pro Display, -apple-system, BlinkMacSystemFont, Segoe UI, Roboto, sans-serif" font-size="11.00" fill="#e0e0e0">Active</text>
</g>
<!-- Expired -->
<g id="node2" class="node">
<title>Expired</title>
<path fill="#2d2d2d" stroke="#b39ddb" d="M415.45,-112C415.45,-112 374.65,-112 374.65,-112 368.65,-112 362.65,-106 362.65,-100 362.65,-100 362.65,-88 362.65,-88 362.65,-82 368.65,-76 374.65,-76 374.65,-76 415.45,-76 415.45,-76 421.45,-76 427.45,-82 427.45,-88 427.45,-88 427.45,-100 427.45,-100 427.45,-106 421.45,-112 415.45,-112"/>
<text xml:space="preserve" text-anchor="middle" x="395.05" y="-90.3" font-family="Inter, SF Pro Display, -apple-system, BlinkMacSystemFont, Segoe UI, Roboto, sans-serif" font-size="11.00" fill="#e0e0e0">Expired</text>
</g>
<!-- Active&#45;&gt;Expired -->
<g id="edge1" class="edge">
<title>Active&#45;&gt;Expired</title>
<path fill="none" stroke="#b0b0b0" d="M326.99,-94C334.61,-94 342.96,-94 351.11,-94"/>
<polygon fill="#b0b0b0" stroke="#b0b0b0" points="350.88,-97.5 360.88,-94 350.88,-90.5 350.88,-97.5"/>
</g>
<!-- Pending -->
<g id="node3" class="node">
<title>Pending</title>
<path fill="#2d2d2d" stroke="#b39ddb" d="M80.55,-87C80.55,-87 36,-87 36,-87 30,-87 24,-81 24,-75 24,-75 24,-63 24,-63 24,-57 30,-51 36,-51 36,-51 80.55,-51 80.55,-51 86.55,-51 92.55,-57 92.55,-63 92.55,-63 92.55,-75 92.55,-75 92.55,-81 86.55,-87 80.55,-87"/>
<text xml:space="preserve" text-anchor="middle" x="58.27" y="-65.3" font-family="Inter, SF Pro Display, -apple-system, BlinkMacSystemFont, Segoe UI, Roboto, sans-serif" font-size="11.00" fill="#e0e0e0">Pending</text>
</g>
<!-- Authenticated -->
<g id="node4" class="node">
<title>Authenticated</title>
<path fill="#2d2d2d" stroke="#b39ddb" d="M214.35,-114C214.35,-114 140.55,-114 140.55,-114 134.55,-114 128.55,-108 128.55,-102 128.55,-102 128.55,-90 128.55,-90 128.55,-84 134.55,-78 140.55,-78 140.55,-78 214.35,-78 214.35,-78 220.35,-78 226.35,-84 226.35,-90 226.35,-90 226.35,-102 226.35,-102 226.35,-108 220.35,-114 214.35,-114"/>
<text xml:space="preserve" text-anchor="middle" x="177.45" y="-92.3" font-family="Inter, SF Pro Display, -apple-system, BlinkMacSystemFont, Segoe UI, Roboto, sans-serif" font-size="11.00" fill="#e0e0e0">Authenticated</text>
</g>
<!-- Pending&#45;&gt;Authenticated -->
<g id="edge2" class="edge">
<title>Pending&#45;&gt;Authenticated</title>
<path fill="none" stroke="#b0b0b0" d="M92.85,-76.74C100.56,-78.51 108.99,-80.45 117.42,-82.4"/>
<polygon fill="#b0b0b0" stroke="#b0b0b0" points="116.45,-85.77 126.99,-84.6 118.03,-78.95 116.45,-85.77"/>
</g>
<!-- Failed -->
<g id="node5" class="node">
<title>Failed</title>
<path fill="#2d2d2d" stroke="#b39ddb" d="M194.85,-60C194.85,-60 160.05,-60 160.05,-60 154.05,-60 148.05,-54 148.05,-48 148.05,-48 148.05,-36 148.05,-36 148.05,-30 154.05,-24 160.05,-24 160.05,-24 194.85,-24 194.85,-24 200.85,-24 206.85,-30 206.85,-36 206.85,-36 206.85,-48 206.85,-48 206.85,-54 200.85,-60 194.85,-60"/>
<text xml:space="preserve" text-anchor="middle" x="177.45" y="-38.3" font-family="Inter, SF Pro Display, -apple-system, BlinkMacSystemFont, Segoe UI, Roboto, sans-serif" font-size="11.00" fill="#e0e0e0">Failed</text>
</g>
<!-- Pending&#45;&gt;Failed -->
<g id="edge3" class="edge">
<title>Pending&#45;&gt;Failed</title>
<path fill="none" stroke="#b0b0b0" d="M92.85,-61.26C106.51,-58.12 122.41,-54.45 136.65,-51.17"/>
<polygon fill="#b0b0b0" stroke="#b0b0b0" points="137.2,-54.64 146.16,-48.98 135.63,-47.81 137.2,-54.64"/>
</g>
<!-- Authenticated&#45;&gt;Active -->
<g id="edge4" class="edge">
<title>Authenticated&#45;&gt;Active</title>
<path fill="none" stroke="#b39ddb" stroke-width="1.5" stroke-dasharray="5,2" d="M226.73,-95.17C235.81,-95.02 245.22,-94.86 254.06,-94.71"/>
<polygon fill="#b39ddb" stroke="#b39ddb" stroke-width="1.5" points="253.88,-98.21 263.82,-94.54 253.76,-91.21 253.88,-98.21"/>
</g>
<!-- Failed&#45;&gt;Expired -->
<g id="edge5" class="edge">
<title>Failed&#45;&gt;Expired</title>
<path fill="none" stroke="#b39ddb" stroke-width="1.5" stroke-dasharray="5,2" d="M207.26,-45.01C237.42,-48.59 285.96,-55.56 326.65,-67 334.64,-69.25 342.98,-72.12 350.96,-75.16"/>
<polygon fill="#b39ddb" stroke="#b39ddb" stroke-width="1.5" points="349.61,-78.39 360.2,-78.82 352.19,-71.88 349.61,-78.39"/>
</g>
</g>
</svg>
