<?xml version="1.0" encoding="UTF-8" standalone="no"?>
<!DOCTYPE svg PUBLIC "-//W3C//DTD SVG 1.1//EN"
 "http://www.w3.org/Graphics/SVG/1.1/DTD/svg11.dtd">
<!-- Generated by graphviz version 14.0.5 (20251129.0259)
 -->
<!-- Pages: 1 -->
<svg width="425pt" height="613pt"
 viewBox="0.00 0.00 425.00 613.00" xmlns="http://www.w3.org/2000/svg" xmlns:xlink="http://www.w3.org/1999/xlink">
<g id="graph0" class="graph" transform="scale(1 1) rotate(0) translate(21.6 591.4)">
<g id="clust1" class="cluster">
<title>cluster_Session</title>
<path fill="#1e1e1e" stroke="#b39ddb" d="M49,-8C49,-8 189,-8 189,-8 195,-8 201,-14 201,-20 201,-20 201,-268.9 201,-268.9 201,-274.9 195,-280.9 189,-280.9 189,-280.9 49,-280.9 49,-280.9 43,-280.9 37,-274.9 37,-268.9 37,-268.9 37,-20 37,-20 37,-14 43,-8 49,-8"/>
<text xml:space="preserve" text-anchor="middle" x="119" y="-261.7" font-family="sans-serif" font-size="16.00" fill="#e0e0e0">Session</text>
</g>
<g id="clust2" class="cluster">
<title>cluster_AuthFlow</title>
<path fill="#1e1e1e" stroke="#b39ddb" d="M20,-288.9C20,-288.9 362,-288.9 362,-288.9 368,-288.9 374,-294.9 374,-300.9 374,-300.9 374,-549.8 374,-549.8 374,-555.8 368,-561.8 362,-561.8 362,-561.8 20,-561.8 20,-561.8 14,-561.8 8,-555.8 8,-549.8 8,-549.8 8,-300.9 8,-300.9 8,-294.9 14,-288.9 20,-288.9"/>
<text xml:space="preserve" text-anchor="middle" x="191" y="-542.6" font-family="sans-serif" font-size="16.00" fill="#e0e0e0">AuthFlow</text>
</g>
<!-- Active -->
<g id="node1" class="node">
<title>Active</title>
<path fill="#2d2d2d" stroke="#b39ddb" d="M151.18,-226.4C151.18,-226.4 80.83,-226.4 80.83,-226.4 74.83,-226.4 68.83,-220.4 68.83,-214.4 68.83,-214.4 68.83,-180.2 68.83,-180.2 68.83,-174.2 74.83,-168.2 80.83,-168.2 80.83,-168.2 151.18,-168.2 151.18,-168.2 157.18,-168.2 163.18,-174.2 163.18,-180.2 163.18,-180.2 163.18,-214.4 163.18,-214.4 163.18,-220.4 157.18,-226.4 151.18,-226.4"/>
<text xml:space="preserve" text-anchor="middle" x="116" y="-191.5" font-family="sans-serif" font-size="14.00" fill="#e0e0e0">Active</text>
</g>
<!-- Expired -->
<g id="node2" class="node">
<title>Expired</title>
<path fill="#2d2d2d" stroke="#b39ddb" d="M158.68,-96.2C158.68,-96.2 79.33,-96.2 79.33,-96.2 73.33,-96.2 67.33,-90.2 67.33,-84.2 67.33,-84.2 67.33,-50 67.33,-50 67.33,-44 73.33,-38 79.33,-38 79.33,-38 158.68,-38 158.68,-38 164.68,-38 170.68,-44 170.68,-50 170.68,-50 170.68,-84.2 170.68,-84.2 170.68,-90.2 164.68,-96.2 158.68,-96.2"/>
<text xml:space="preserve" text-anchor="middle" x="119" y="-61.3" font-family="sans-serif" font-size="14.00" fill="#e0e0e0">Expired</text>
</g>
<!-- Active&#45;&gt;Expired -->
<g id="edge1" class="edge">
<title>Active&#45;&gt;Expired</title>
<path fill="none" stroke="#b0b0b0" d="M116.67,-167.85C117.08,-150.17 117.62,-127.19 118.07,-107.75"/>
<polygon fill="#b0b0b0" stroke="#b0b0b0" points="121.57,-108.06 118.3,-97.99 114.57,-107.9 121.57,-108.06"/>
</g>
<!-- Pending -->
<g id="node3" class="node">
<title>Pending</title>
<path fill="#2d2d2d" stroke="#b39ddb" d="M240.55,-507.3C240.55,-507.3 157.45,-507.3 157.45,-507.3 151.45,-507.3 145.45,-501.3 145.45,-495.3 145.45,-495.3 145.45,-461.1 145.45,-461.1 145.45,-455.1 151.45,-449.1 157.45,-449.1 157.45,-449.1 240.55,-449.1 240.55,-449.1 246.55,-449.1 252.55,-455.1 252.55,-461.1 252.55,-461.1 252.55,-495.3 252.55,-495.3 252.55,-501.3 246.55,-507.3 240.55,-507.3"/>
<text xml:space="preserve" text-anchor="middle" x="199" y="-472.4" font-family="sans-serif" font-size="14.00" fill="#e0e0e0">Pending</text>
</g>
<!-- Authenticated -->
<g id="node4" class="node">
<title>Authenticated</title>
<path fill="#2d2d2d" stroke="#b39ddb" d="M166.05,-377.1C166.05,-377.1 49.95,-377.1 49.95,-377.1 43.95,-377.1 37.95,-371.1 37.95,-365.1 37.95,-365.1 37.95,-330.9 37.95,-330.9 37.95,-324.9 43.95,-318.9 49.95,-318.9 49.95,-318.9 166.05,-318.9 166.05,-318.9 172.05,-318.9 178.05,-324.9 178.05,-330.9 178.05,-330.9 178.05,-365.1 178.05,-365.1 178.05,-371.1 172.05,-377.1 166.05,-377.1"/>
<text xml:space="preserve" text-anchor="middle" x="108" y="-342.2" font-family="sans-serif" font-size="14.00" fill="#e0e0e0">Authenticated</text>
</g>
<!-- Pending&#45;&gt;Authenticated -->
<g id="edge2" class="edge">
<title>Pending&#45;&gt;Authenticated</title>
<path fill="none" stroke="#b0b0b0" d="M178.8,-448.75C165.84,-430.49 148.87,-406.58 134.79,-386.74"/>
<polygon fill="#b0b0b0" stroke="#b0b0b0" points="137.66,-384.74 129.02,-378.61 131.95,-388.79 137.66,-384.74"/>
</g>
<!-- Failed -->
<g id="node5" class="node">
<title>Failed</title>
<path fill="#2d2d2d" stroke="#b39ddb" d="M332.18,-377.1C332.18,-377.1 261.82,-377.1 261.82,-377.1 255.82,-377.1 249.82,-371.1 249.82,-365.1 249.82,-365.1 249.82,-330.9 249.82,-330.9 249.82,-324.9 255.82,-318.9 261.82,-318.9 261.82,-318.9 332.18,-318.9 332.18,-318.9 338.18,-318.9 344.18,-324.9 344.18,-330.9 344.18,-330.9 344.18,-365.1 344.18,-365.1 344.18,-371.1 338.18,-377.1 332.18,-377.1"/>
<text xml:space="preserve" text-anchor="middle" x="297" y="-342.2" font-family="sans-serif" font-size="14.00" fill="#e0e0e0">Failed</text>
</g>
<!-- Pending&#45;&gt;Failed -->
<g id="edge3" class="edge">
<title>Pending&#45;&gt;Failed</title>
<path fill="none" stroke="#b0b0b0" d="M220.75,-448.75C234.77,-430.41 253.15,-406.36 268.36,-386.47"/>
<polygon fill="#b0b0b0" stroke="#b0b0b0" points="271.1,-388.64 274.39,-378.57 265.54,-384.39 271.1,-388.64"/>
</g>
<!-- Authenticated&#45;&gt;Active -->
<g id="edge4" class="edge">
<title>Authenticated&#45;&gt;Active</title>
<path fill="none" stroke="#b39ddb" stroke-width="1.5" stroke-dasharray="5,2" d="M109.52,-318.68C110.74,-296.12 112.45,-264.23 113.81,-238.94"/>
<polygon fill="#b39ddb" stroke="#b39ddb" stroke-width="1.5" points="117.3,-239.21 114.35,-229.03 110.31,-238.83 117.3,-239.21"/>
</g>
<!-- Failed&#45;&gt;Expired -->
<g id="edge5" class="edge">
<title>Failed&#45;&gt;Expired</title>
<path fill="none" stroke="#b39ddb" stroke-width="1.5" stroke-dasharray="5,2" d="M283.33,-318.56C265.59,-282.53 232.86,-219.01 199,-168.2 184.67,-146.7 166.88,-124.11 151.72,-105.84"/>
<polygon fill="#b39ddb" stroke="#b39ddb" stroke-width="1.5" points="154.4,-103.59 145.29,-98.18 149.04,-108.09 154.4,-103.59"/>
</g>
</g>
</svg>
