<?xml version="1.0" encoding="UTF-8" standalone="no"?>
<!DOCTYPE svg PUBLIC "-//W3C//DTD SVG 1.1//EN"
 "http://www.w3.org/Graphics/SVG/1.1/DTD/svg11.dtd">
<!-- Generated by graphviz version 14.0.5 (20251129.0259)
 -->
<!-- Pages: 1 -->
<svg width="801pt" height="236pt"
 viewBox="0.00 0.00 801.00 236.00" xmlns="http://www.w3.org/2000/svg" xmlns:xlink="http://www.w3.org/1999/xlink">
<g id="graph0" class="graph" transform="scale(1 1) rotate(0) translate(36 200)">
<g id="clust1" class="cluster">
<title>cluster_Payment</title>
<path fill="#1e1e1e" stroke="#b39ddb" d="M20,-8C20,-8 709.3,-8 709.3,-8 715.3,-8 721.3,-14 721.3,-20 721.3,-20 721.3,-144 721.3,-144 721.3,-150 715.3,-156 709.3,-156 709.3,-156 20,-156 20,-156 14,-156 8,-150 8,-144 8,-144 8,-20 8,-20 8,-14 14,-8 20,-8"/>
<text xml:space="preserve" text-anchor="middle" x="364.65" y="-140.6" font-family="Inter, SF Pro Display, -apple-system, BlinkMacSystemFont, Segoe UI, Roboto, sans-serif" font-size="12.00" fill="#e0e0e0">Payment</text>
</g>
<!-- Created -->
<g id="node1" class="node">
<title>Created</title>
<path fill="#2d2d2d" stroke="#b39ddb" d="M79.8,-115C79.8,-115 36,-115 36,-115 30,-115 24,-109 24,-103 24,-103 24,-91 24,-91 24,-85 30,-79 36,-79 36,-79 79.8,-79 79.8,-79 85.8,-79 91.8,-85 91.8,-91 91.8,-91 91.8,-103 91.8,-103 91.8,-109 85.8,-115 79.8,-115"/>
<text xml:space="preserve" text-anchor="middle" x="57.9" y="-93.3" font-family="Inter, SF Pro Display, -apple-system, BlinkMacSystemFont, Segoe UI, Roboto, sans-serif" font-size="11.00" fill="#e0e0e0">Created</text>
</g>
<!-- Authorized -->
<g id="node2" class="node">
<title>Authorized</title>
<path fill="#2d2d2d" stroke="#b39ddb" d="M197.1,-115C197.1,-115 139.8,-115 139.8,-115 133.8,-115 127.8,-109 127.8,-103 127.8,-103 127.8,-91 127.8,-91 127.8,-85 133.8,-79 139.8,-79 139.8,-79 197.1,-79 197.1,-79 203.1,-79 209.1,-85 209.1,-91 209.1,-91 209.1,-103 209.1,-103 209.1,-109 203.1,-115 197.1,-115"/>
<text xml:space="preserve" text-anchor="middle" x="168.45" y="-93.3" font-family="Inter, SF Pro Display, -apple-system, BlinkMacSystemFont, Segoe UI, Roboto, sans-serif" font-size="11.00" fill="#e0e0e0">Authorized</text>
</g>
<!-- Created&#45;&gt;Authorized -->
<g id="edge1" class="edge">
<title>Created&#45;&gt;Authorized</title>
<path fill="none" stroke="#b0b0b0" d="M92.06,-97C99.69,-97 107.97,-97 116.17,-97"/>
<polygon fill="#b0b0b0" stroke="#b0b0b0" points="116.1,-100.5 126.1,-97 116.1,-93.5 116.1,-100.5"/>
</g>
<!-- Captured -->
<g id="node3" class="node">
<title>Captured</title>
<path fill="#2d2d2d" stroke="#b39ddb" d="M306.9,-115C306.9,-115 257.1,-115 257.1,-115 251.1,-115 245.1,-109 245.1,-103 245.1,-103 245.1,-91 245.1,-91 245.1,-85 251.1,-79 257.1,-79 257.1,-79 306.9,-79 306.9,-79 312.9,-79 318.9,-85 318.9,-91 318.9,-91 318.9,-103 318.9,-103 318.9,-109 312.9,-115 306.9,-115"/>
<text xml:space="preserve" text-anchor="middle" x="282" y="-93.3" font-family="Inter, SF Pro Display, -apple-system, BlinkMacSystemFont, Segoe UI, Roboto, sans-serif" font-size="11.00" fill="#e0e0e0">Captured</text>
</g>
<!-- Authorized&#45;&gt;Captured -->
<g id="edge2" class="edge">
<title>Authorized&#45;&gt;Captured</title>
<path fill="none" stroke="#b0b0b0" d="M209.41,-97C217.14,-97 225.31,-97 233.25,-97"/>
<polygon fill="#b0b0b0" stroke="#b0b0b0" points="233.15,-100.5 243.15,-97 233.15,-93.5 233.15,-100.5"/>
</g>
<!-- PartiallyRefunded -->
<g id="node4" class="node">
<title>PartiallyRefunded</title>
<path fill="#2d2d2d" stroke="#b39ddb" d="M458.7,-60C458.7,-60 366.9,-60 366.9,-60 360.9,-60 354.9,-54 354.9,-48 354.9,-48 354.9,-36 354.9,-36 354.9,-30 360.9,-24 366.9,-24 366.9,-24 458.7,-24 458.7,-24 464.7,-24 470.7,-30 470.7,-36 470.7,-36 470.7,-48 470.7,-48 470.7,-54 464.7,-60 458.7,-60"/>
<text xml:space="preserve" text-anchor="middle" x="412.8" y="-38.3" font-family="Inter, SF Pro Display, -apple-system, BlinkMacSystemFont, Segoe UI, Roboto, sans-serif" font-size="11.00" fill="#e0e0e0">PartiallyRefunded</text>
</g>
<!-- Captured&#45;&gt;PartiallyRefunded -->
<g id="edge3" class="edge">
<title>Captured&#45;&gt;PartiallyRefunded</title>
<path fill="none" stroke="#b0b0b0" d="M319.22,-81.53C331.32,-76.37 345.06,-70.5 358.19,-64.89"/>
<polygon fill="#b0b0b0" stroke="#b0b0b0" points="359.33,-68.21 367.15,-61.06 356.58,-61.77 359.33,-68.21"/>
</g>
<!-- FullyRefunded -->
<g id="node5" class="node">
<title>FullyRefunded</title>
<path fill="#2d2d2d" stroke="#b39ddb" d="M593.25,-97C593.25,-97 518.7,-97 518.7,-97 512.7,-97 506.7,-91 506.7,-85 506.7,-85 506.7,-73 506.7,-73 506.7,-67 512.7,-61 518.7,-61 518.7,-61 593.25,-61 593.25,-61 599.25,-61 605.25,-67 605.25,-73 605.25,-73 605.25,-85 605.25,-85 605.25,-91 599.25,-97 593.25,-97"/>
<text xml:space="preserve" text-anchor="middle" x="555.97" y="-75.3" font-family="Inter, SF Pro Display, -apple-system, BlinkMacSystemFont, Segoe UI, Roboto, sans-serif" font-size="11.00" fill="#e0e0e0">FullyRefunded</text>
</g>
<!-- Captured&#45;&gt;FullyRefunded -->
<g id="edge4" class="edge">
<title>Captured&#45;&gt;FullyRefunded</title>
<path fill="none" stroke="#b0b0b0" d="M319.36,-95.51C357.2,-93.85 418.14,-90.89 470.7,-87 478.57,-86.42 486.85,-85.73 495.01,-85"/>
<polygon fill="#b0b0b0" stroke="#b0b0b0" points="495.28,-88.49 504.92,-84.09 494.64,-81.52 495.28,-88.49"/>
</g>
<!-- Settled -->
<g id="node6" class="node">
<title>Settled</title>
<path fill="#2d2d2d" stroke="#b39ddb" d="M693.3,-97C693.3,-97 653.25,-97 653.25,-97 647.25,-97 641.25,-91 641.25,-85 641.25,-85 641.25,-73 641.25,-73 641.25,-67 647.25,-61 653.25,-61 653.25,-61 693.3,-61 693.3,-61 699.3,-61 705.3,-67 705.3,-73 705.3,-73 705.3,-85 705.3,-85 705.3,-91 699.3,-97 693.3,-97"/>
<text xml:space="preserve" text-anchor="middle" x="673.27" y="-75.3" font-family="Inter, SF Pro Display, -apple-system, BlinkMacSystemFont, Segoe UI, Roboto, sans-serif" font-size="11.00" fill="#e0e0e0">Settled</text>
</g>
<!-- Captured&#45;&gt;Settled -->
<g id="edge5" class="edge">
<title>Captured&#45;&gt;Settled</title>
<path fill="none" stroke="#b0b0b0" d="M319.18,-103.09C379.25,-112.08 503.05,-125.81 605.25,-106 613.64,-104.37 622.32,-101.7 630.53,-98.65"/>
<polygon fill="#b0b0b0" stroke="#b0b0b0" points="631.59,-102 639.58,-95.05 629,-95.49 631.59,-102"/>
</g>
<!-- PartiallyRefunded&#45;&gt;PartiallyRefunded -->
<g id="edge6" class="edge">
<title>PartiallyRefunded&#45;&gt;PartiallyRefunded</title>
<path fill="none" stroke="#b0b0b0" d="M389.14,-60.15C385.5,-69.54 393.38,-78 412.8,-78 423.72,-78 431,-75.32 434.62,-71.31"/>
<polygon fill="#b0b0b0" stroke="#b0b0b0" points="438.04,-72.08 436.22,-61.65 431.13,-70.94 438.04,-72.08"/>
</g>
<!-- PartiallyRefunded&#45;&gt;FullyRefunded -->
<g id="edge7" class="edge">
<title>PartiallyRefunded&#45;&gt;FullyRefunded</title>
<path fill="none" stroke="#b0b0b0" d="M470.81,-56.94C478.92,-59.07 487.27,-61.25 495.42,-63.39"/>
<polygon fill="#b0b0b0" stroke="#b0b0b0" points="494.34,-66.73 504.9,-65.88 496.11,-59.95 494.34,-66.73"/>
</g>
<!-- PartiallyRefunded&#45;&gt;Settled -->
<g id="edge8" class="edge">
<title>PartiallyRefunded&#45;&gt;Settled</title>
<path fill="none" stroke="#b0b0b0" d="M471.01,-40.09C509.41,-40 560.89,-42.19 605.25,-52 613.6,-53.85 622.25,-56.62 630.45,-59.7"/>
<polygon fill="#b0b0b0" stroke="#b0b0b0" points="628.92,-62.86 639.51,-63.31 631.52,-56.36 628.92,-62.86"/>
</g>
<!-- FullyRefunded&#45;&gt;Settled -->
<g id="edge9" class="edge">
<title>FullyRefunded&#45;&gt;Settled</title>
<path fill="none" stroke="#b0b0b0" d="M605.54,-79C613.47,-79 621.63,-79 629.41,-79"/>
<polygon fill="#b0b0b0" stroke="#b0b0b0" points="629.33,-82.5 639.33,-79 629.33,-75.5 629.33,-82.5"/>
</g>
</g>
</svg>
