<?xml version="1.0" encoding="UTF-8" standalone="no"?>
<!DOCTYPE svg PUBLIC "-//W3C//DTD SVG 1.1//EN"
 "http://www.w3.org/Graphics/SVG/1.1/DTD/svg11.dtd">
<!-- Generated by graphviz version 14.0.5 (20251129.0259)
 -->
<!-- Pages: 1 -->
<svg width="449pt" height="853pt"
 viewBox="0.00 0.00 449.00 853.00" xmlns="http://www.w3.org/2000/svg" xmlns:xlink="http://www.w3.org/1999/xlink">
<g id="graph0" class="graph" transform="scale(1 1) rotate(0) translate(21.6 831.3)">
<g id="clust1" class="cluster">
<title>cluster_Payment</title>
<path fill="#1e1e1e" stroke="#b39ddb" d="M20,-8C20,-8 386,-8 386,-8 392,-8 398,-14 398,-20 398,-20 398,-789.7 398,-789.7 398,-795.7 392,-801.7 386,-801.7 386,-801.7 20,-801.7 20,-801.7 14,-801.7 8,-795.7 8,-789.7 8,-789.7 8,-20 8,-20 8,-14 14,-8 20,-8"/>
<text xml:space="preserve" text-anchor="middle" x="203" y="-782.5" font-family="sans-serif" font-size="16.00" fill="#e0e0e0">Payment</text>
</g>
<!-- Created -->
<g id="node1" class="node">
<title>Created</title>
<path fill="#2d2d2d" stroke="#b39ddb" d="M333.8,-747.2C333.8,-747.2 252.2,-747.2 252.2,-747.2 246.2,-747.2 240.2,-741.2 240.2,-735.2 240.2,-735.2 240.2,-701 240.2,-701 240.2,-695 246.2,-689 252.2,-689 252.2,-689 333.8,-689 333.8,-689 339.8,-689 345.8,-695 345.8,-701 345.8,-701 345.8,-735.2 345.8,-735.2 345.8,-741.2 339.8,-747.2 333.8,-747.2"/>
<text xml:space="preserve" text-anchor="middle" x="293" y="-712.3" font-family="sans-serif" font-size="14.00" fill="#e0e0e0">Created</text>
</g>
<!-- Authorized -->
<g id="node2" class="node">
<title>Authorized</title>
<path fill="#2d2d2d" stroke="#b39ddb" d="M342.05,-617C342.05,-617 243.95,-617 243.95,-617 237.95,-617 231.95,-611 231.95,-605 231.95,-605 231.95,-570.8 231.95,-570.8 231.95,-564.8 237.95,-558.8 243.95,-558.8 243.95,-558.8 342.05,-558.8 342.05,-558.8 348.05,-558.8 354.05,-564.8 354.05,-570.8 354.05,-570.8 354.05,-605 354.05,-605 354.05,-611 348.05,-617 342.05,-617"/>
<text xml:space="preserve" text-anchor="middle" x="293" y="-582.1" font-family="sans-serif" font-size="14.00" fill="#e0e0e0">Authorized</text>
</g>
<!-- Created&#45;&gt;Authorized -->
<g id="edge1" class="edge">
<title>Created&#45;&gt;Authorized</title>
<path fill="none" stroke="#b0b0b0" d="M293,-688.65C293,-670.97 293,-647.99 293,-628.55"/>
<polygon fill="#b0b0b0" stroke="#b0b0b0" points="296.5,-628.79 293,-618.79 289.5,-628.79 296.5,-628.79"/>
</g>
<!-- Captured -->
<g id="node3" class="node">
<title>Captured</title>
<path fill="#2d2d2d" stroke="#b39ddb" d="M337.55,-486.8C337.55,-486.8 248.45,-486.8 248.45,-486.8 242.45,-486.8 236.45,-480.8 236.45,-474.8 236.45,-474.8 236.45,-440.6 236.45,-440.6 236.45,-434.6 242.45,-428.6 248.45,-428.6 248.45,-428.6 337.55,-428.6 337.55,-428.6 343.55,-428.6 349.55,-434.6 349.55,-440.6 349.55,-440.6 349.55,-474.8 349.55,-474.8 349.55,-480.8 343.55,-486.8 337.55,-486.8"/>
<text xml:space="preserve" text-anchor="middle" x="293" y="-451.9" font-family="sans-serif" font-size="14.00" fill="#e0e0e0">Captured</text>
</g>
<!-- Authorized&#45;&gt;Captured -->
<g id="edge2" class="edge">
<title>Authorized&#45;&gt;Captured</title>
<path fill="none" stroke="#b0b0b0" d="M293,-558.45C293,-540.77 293,-517.79 293,-498.35"/>
<polygon fill="#b0b0b0" stroke="#b0b0b0" points="296.5,-498.59 293,-488.59 289.5,-498.59 296.5,-498.59"/>
</g>
<!-- PartiallyRefunded -->
<g id="node4" class="node">
<title>PartiallyRefunded</title>
<path fill="#2d2d2d" stroke="#b39ddb" d="M190.05,-356.6C190.05,-356.6 49.95,-356.6 49.95,-356.6 43.95,-356.6 37.95,-350.6 37.95,-344.6 37.95,-344.6 37.95,-310.4 37.95,-310.4 37.95,-304.4 43.95,-298.4 49.95,-298.4 49.95,-298.4 190.05,-298.4 190.05,-298.4 196.05,-298.4 202.05,-304.4 202.05,-310.4 202.05,-310.4 202.05,-344.6 202.05,-344.6 202.05,-350.6 196.05,-356.6 190.05,-356.6"/>
<text xml:space="preserve" text-anchor="middle" x="120" y="-321.7" font-family="sans-serif" font-size="14.00" fill="#e0e0e0">PartiallyRefunded</text>
</g>
<!-- Captured&#45;&gt;PartiallyRefunded -->
<g id="edge3" class="edge">
<title>Captured&#45;&gt;PartiallyRefunded:e</title>
<path fill="none" stroke="#b0b0b0" d="M286.67,-428.35C277.15,-393.36 255.67,-337.4 214.31,-328.66"/>
<polygon fill="#b0b0b0" stroke="#b0b0b0" points="214.86,-325.2 204.56,-327.66 214.14,-332.17 214.86,-325.2"/>
</g>
<!-- FullyRefunded -->
<g id="node5" class="node">
<title>FullyRefunded</title>
<path fill="#2d2d2d" stroke="#b39ddb" d="M281.3,-226.4C281.3,-226.4 160.7,-226.4 160.7,-226.4 154.7,-226.4 148.7,-220.4 148.7,-214.4 148.7,-214.4 148.7,-180.2 148.7,-180.2 148.7,-174.2 154.7,-168.2 160.7,-168.2 160.7,-168.2 281.3,-168.2 281.3,-168.2 287.3,-168.2 293.3,-174.2 293.3,-180.2 293.3,-180.2 293.3,-214.4 293.3,-214.4 293.3,-220.4 287.3,-226.4 281.3,-226.4"/>
<text xml:space="preserve" text-anchor="middle" x="221" y="-191.5" font-family="sans-serif" font-size="14.00" fill="#e0e0e0">FullyRefunded</text>
</g>
<!-- Captured&#45;&gt;FullyRefunded -->
<g id="edge4" class="edge">
<title>Captured&#45;&gt;FullyRefunded:e</title>
<path fill="none" stroke="#b0b0b0" d="M304.7,-428.45C329.94,-364.1 381.28,-211.21 305.32,-198.19"/>
<polygon fill="#b0b0b0" stroke="#b0b0b0" points="306.06,-194.74 295.81,-197.42 305.5,-201.71 306.06,-194.74"/>
</g>
<!-- Settled -->
<g id="node6" class="node">
<title>Settled</title>
<path fill="#2d2d2d" stroke="#b39ddb" d="M258.8,-96.2C258.8,-96.2 183.2,-96.2 183.2,-96.2 177.2,-96.2 171.2,-90.2 171.2,-84.2 171.2,-84.2 171.2,-50 171.2,-50 171.2,-44 177.2,-38 183.2,-38 183.2,-38 258.8,-38 258.8,-38 264.8,-38 270.8,-44 270.8,-50 270.8,-50 270.8,-84.2 270.8,-84.2 270.8,-90.2 264.8,-96.2 258.8,-96.2"/>
<text xml:space="preserve" text-anchor="middle" x="221" y="-61.3" font-family="sans-serif" font-size="14.00" fill="#e0e0e0">Settled</text>
</g>
<!-- Captured&#45;&gt;Settled -->
<g id="edge5" class="edge">
<title>Captured&#45;&gt;Settled:e</title>
<path fill="none" stroke="#b0b0b0" d="M316.71,-428.12C330.87,-409.14 347.5,-382.95 355,-356.6 390.57,-231.61 404.83,-76.49 283.19,-67.51"/>
<polygon fill="#b0b0b0" stroke="#b0b0b0" points="283.43,-64.02 273.31,-67.15 283.18,-71.01 283.43,-64.02"/>
</g>
<!-- PartiallyRefunded&#45;&gt;PartiallyRefunded -->
<g id="edge6" class="edge">
<title>PartiallyRefunded&#45;&gt;PartiallyRefunded:e</title>
<path fill="none" stroke="#b0b0b0" d="M202.41,-351.43C240.65,-354.04 274.05,-346.06 274.05,-327.5 274.05,-298 234.63,-295.24 209.37,-319.2"/>
<polygon fill="#b0b0b0" stroke="#b0b0b0" points="207.05,-316.55 203.05,-326.37 212.29,-321.18 207.05,-316.55"/>
</g>
<!-- PartiallyRefunded&#45;&gt;FullyRefunded -->
<g id="edge7" class="edge">
<title>PartiallyRefunded&#45;&gt;FullyRefunded:w</title>
<path fill="none" stroke="#b0b0b0" d="M114.82,-298.15C109.99,-263.98 107.33,-209.8 136.53,-199.15"/>
<polygon fill="#b0b0b0" stroke="#b0b0b0" points="136.91,-202.64 146.21,-197.55 135.77,-195.73 136.91,-202.64"/>
</g>
<!-- PartiallyRefunded&#45;&gt;Settled -->
<g id="edge8" class="edge">
<title>PartiallyRefunded&#45;&gt;Settled:w</title>
<path fill="none" stroke="#b0b0b0" d="M113.69,-298.25C100.77,-233.9 78.84,-81.01 158.8,-67.99"/>
<polygon fill="#b0b0b0" stroke="#b0b0b0" points="158.99,-71.48 168.69,-67.22 158.45,-64.5 158.99,-71.48"/>
</g>
<!-- FullyRefunded&#45;&gt;Settled -->
<g id="edge9" class="edge">
<title>FullyRefunded&#45;&gt;Settled:s</title>
<path fill="none" stroke="#b0b0b0" d="M244.77,-167.79C271.08,-132.68 305.49,-73.39 270.8,-38 258.69,-25.65 235.11,-18.47 225.37,-26.48"/>
<polygon fill="#b0b0b0" stroke="#b0b0b0" points="222.18,-25.02 221.58,-35.6 228.65,-27.71 222.18,-25.02"/>
</g>
</g>
</svg>
