<?xml version="1.0" encoding="UTF-8" standalone="no"?>
<!DOCTYPE svg PUBLIC "-//W3C//DTD SVG 1.1//EN"
 "http://www.w3.org/Graphics/SVG/1.1/DTD/svg11.dtd">
<!-- Generated by graphviz version 14.0.5 (20251129.0259)
 -->
<!-- Pages: 1 -->
<svg width="686pt" height="159pt"
 viewBox="0.00 0.00 686.00 159.00" xmlns="http://www.w3.org/2000/svg" xmlns:xlink="http://www.w3.org/1999/xlink">
<g id="graph0" class="graph" transform="scale(1 1) rotate(0) translate(4 155)">
<polygon fill="white" stroke="none" points="-4,4 -4,-155 681.5,-155 681.5,4 -4,4"/>
<g id="clust1" class="cluster">
<title>cluster_Payment</title>
<polygon fill="none" stroke="black" points="8,-8 8,-143 669.5,-143 669.5,-8 8,-8"/>
<text xml:space="preserve" text-anchor="middle" x="338.75" y="-125.7" font-family="Times,serif" font-size="14.00">Payment</text>
</g>
<!-- Created -->
<g id="node1" class="node">
<title>Created</title>
<polygon fill="none" stroke="black" points="74,-107 16,-107 16,-71 74,-71 74,-107"/>
<text xml:space="preserve" text-anchor="middle" x="45" y="-83.95" font-family="Times,serif" font-size="14.00">Created</text>
</g>
<!-- Authorized -->
<g id="node2" class="node">
<title>Authorized</title>
<polygon fill="none" stroke="black" points="186.75,-107 110,-107 110,-71 186.75,-71 186.75,-107"/>
<text xml:space="preserve" text-anchor="middle" x="148.38" y="-83.95" font-family="Times,serif" font-size="14.00">Authorized</text>
</g>
<!-- Created&#45;&gt;Authorized -->
<g id="edge1" class="edge">
<title>Created&#45;&gt;Authorized</title>
<path fill="none" stroke="black" d="M74.24,-89C81.81,-89 90.22,-89 98.56,-89"/>
<polygon fill="black" stroke="black" points="98.3,-92.5 108.3,-89 98.3,-85.5 98.3,-92.5"/>
</g>
<!-- Captured -->
<g id="node3" class="node">
<title>Captured</title>
<polygon fill="none" stroke="black" points="288.25,-107 222.75,-107 222.75,-71 288.25,-71 288.25,-107"/>
<text xml:space="preserve" text-anchor="middle" x="255.5" y="-83.95" font-family="Times,serif" font-size="14.00">Captured</text>
</g>
<!-- Authorized&#45;&gt;Captured -->
<g id="edge2" class="edge">
<title>Authorized&#45;&gt;Captured</title>
<path fill="none" stroke="black" d="M187.03,-89C194.79,-89 203.02,-89 210.97,-89"/>
<polygon fill="black" stroke="black" points="210.8,-92.5 220.8,-89 210.8,-85.5 210.8,-92.5"/>
</g>
<!-- PartiallyRefunded -->
<g id="node4" class="node">
<title>PartiallyRefunded</title>
<polygon fill="none" stroke="black" points="438.5,-52 324.25,-52 324.25,-16 438.5,-16 438.5,-52"/>
<text xml:space="preserve" text-anchor="middle" x="381.38" y="-28.95" font-family="Times,serif" font-size="14.00">PartiallyRefunded</text>
</g>
<!-- Captured&#45;&gt;PartiallyRefunded -->
<g id="edge3" class="edge">
<title>Captured&#45;&gt;PartiallyRefunded</title>
<path fill="none" stroke="black" d="M288.72,-74.69C300.95,-69.27 315.2,-62.94 328.77,-56.91"/>
<polygon fill="black" stroke="black" points="329.86,-60.26 337.58,-53 327.02,-53.86 329.86,-60.26"/>
</g>
<!-- FullyRefunded -->
<g id="node5" class="node">
<title>FullyRefunded</title>
<polygon fill="none" stroke="black" points="571.5,-89 474.5,-89 474.5,-53 571.5,-53 571.5,-89"/>
<text xml:space="preserve" text-anchor="middle" x="523" y="-65.95" font-family="Times,serif" font-size="14.00">FullyRefunded</text>
</g>
<!-- Captured&#45;&gt;FullyRefunded -->
<g id="edge4" class="edge">
<title>Captured&#45;&gt;FullyRefunded</title>
<path fill="none" stroke="black" d="M288.74,-87.62C325.14,-85.98 386.12,-82.95 438.5,-79 446.4,-78.41 454.71,-77.7 462.9,-76.96"/>
<polygon fill="black" stroke="black" points="463.2,-80.45 472.83,-76.04 462.55,-73.48 463.2,-80.45"/>
</g>
<!-- Settled -->
<g id="node6" class="node">
<title>Settled</title>
<polygon fill="none" stroke="black" points="661.5,-89 607.5,-89 607.5,-53 661.5,-53 661.5,-89"/>
<text xml:space="preserve" text-anchor="middle" x="634.5" y="-65.95" font-family="Times,serif" font-size="14.00">Settled</text>
</g>
<!-- Captured&#45;&gt;Settled -->
<g id="edge5" class="edge">
<title>Captured&#45;&gt;Settled</title>
<path fill="none" stroke="black" d="M288.68,-94.79C346.17,-104.05 470,-119.14 571.5,-98 579.97,-96.24 588.7,-93.25 596.84,-89.89"/>
<polygon fill="black" stroke="black" points="598.03,-93.2 605.75,-85.95 595.19,-86.8 598.03,-93.2"/>
</g>
<!-- PartiallyRefunded&#45;&gt;PartiallyRefunded -->
<g id="edge6" class="edge">
<title>PartiallyRefunded&#45;&gt;PartiallyRefunded</title>
<path fill="none" stroke="black" d="M358.6,-52.15C355.1,-61.54 362.69,-70 381.38,-70 391.89,-70 398.88,-67.32 402.37,-63.31"/>
<polygon fill="black" stroke="black" points="405.8,-64.07 403.91,-53.65 398.88,-62.97 405.8,-64.07"/>
</g>
<!-- PartiallyRefunded&#45;&gt;FullyRefunded -->
<g id="edge7" class="edge">
<title>PartiallyRefunded&#45;&gt;FullyRefunded</title>
<path fill="none" stroke="black" d="M438.76,-48.94C446.88,-51.09 455.25,-53.31 463.41,-55.47"/>
<polygon fill="black" stroke="black" points="462.33,-58.81 472.9,-57.99 464.13,-52.04 462.33,-58.81"/>
</g>
<!-- PartiallyRefunded&#45;&gt;Settled -->
<g id="edge8" class="edge">
<title>PartiallyRefunded&#45;&gt;Settled</title>
<path fill="none" stroke="black" d="M438.98,-31.76C476.95,-31.53 527.82,-33.69 571.5,-44 579.92,-45.99 588.63,-49.07 596.77,-52.45"/>
<polygon fill="black" stroke="black" points="595.12,-55.54 605.68,-56.39 597.95,-49.14 595.12,-55.54"/>
</g>
<!-- FullyRefunded&#45;&gt;Settled -->
<g id="edge9" class="edge">
<title>FullyRefunded&#45;&gt;Settled</title>
<path fill="none" stroke="black" d="M571.71,-71C579.82,-71 588.15,-71 595.95,-71"/>
<polygon fill="black" stroke="black" points="595.79,-74.5 605.79,-71 595.79,-67.5 595.79,-74.5"/>
</g>
</g>
</svg>
