<?xml version="1.0" encoding="UTF-8" standalone="no"?>
<!DOCTYPE svg PUBLIC "-//W3C//DTD SVG 1.1//EN"
 "http://www.w3.org/Graphics/SVG/1.1/DTD/svg11.dtd">
<!-- Generated by graphviz version 14.0.5 (20251129.0259)
 -->
<!-- Pages: 1 -->
<svg width="1388pt" height="320pt"
 viewBox="0.00 0.00 1388.00 320.00" xmlns="http://www.w3.org/2000/svg" xmlns:xlink="http://www.w3.org/1999/xlink">
<g id="graph0" class="graph" transform="scale(1 1) rotate(0) translate(21.6 298.6)">
<g id="clust1" class="cluster">
<title>cluster_Payment</title>
<path fill="#1e1e1e" stroke="#b39ddb" d="M20,-8C20,-8 1325.1,-8 1325.1,-8 1331.1,-8 1337.1,-14 1337.1,-20 1337.1,-20 1337.1,-257 1337.1,-257 1337.1,-263 1331.1,-269 1325.1,-269 1325.1,-269 20,-269 20,-269 14,-269 8,-263 8,-257 8,-257 8,-20 8,-20 8,-14 14,-8 20,-8"/>
<text xml:space="preserve" text-anchor="middle" x="672.55" y="-249.8" font-family="sans-serif" font-size="16.00" fill="#e0e0e0">Payment</text>
</g>
<!-- Created -->
<g id="node1" class="node">
<title>Created</title>
<path fill="#2d2d2d" stroke="#b39ddb" d="M121.6,-192.1C121.6,-192.1 40,-192.1 40,-192.1 34,-192.1 28,-186.1 28,-180.1 28,-180.1 28,-145.9 28,-145.9 28,-139.9 34,-133.9 40,-133.9 40,-133.9 121.6,-133.9 121.6,-133.9 127.6,-133.9 133.6,-139.9 133.6,-145.9 133.6,-145.9 133.6,-180.1 133.6,-180.1 133.6,-186.1 127.6,-192.1 121.6,-192.1"/>
<text xml:space="preserve" text-anchor="middle" x="80.8" y="-157.2" font-family="sans-serif" font-size="14.00" fill="#e0e0e0">Created</text>
</g>
<!-- Authorized -->
<g id="node2" class="node">
<title>Authorized</title>
<path fill="#2d2d2d" stroke="#b39ddb" d="M351.7,-192.1C351.7,-192.1 253.6,-192.1 253.6,-192.1 247.6,-192.1 241.6,-186.1 241.6,-180.1 241.6,-180.1 241.6,-145.9 241.6,-145.9 241.6,-139.9 247.6,-133.9 253.6,-133.9 253.6,-133.9 351.7,-133.9 351.7,-133.9 357.7,-133.9 363.7,-139.9 363.7,-145.9 363.7,-145.9 363.7,-180.1 363.7,-180.1 363.7,-186.1 357.7,-192.1 351.7,-192.1"/>
<text xml:space="preserve" text-anchor="middle" x="302.65" y="-157.2" font-family="sans-serif" font-size="14.00" fill="#e0e0e0">Authorized</text>
</g>
<!-- Created&#45;&gt;Authorized -->
<g id="edge1" class="edge">
<title>Created&#45;&gt;Authorized</title>
<path fill="none" stroke="#b0b0b0" d="M133.94,-163C133.94,-163 229.79,-163 229.79,-163"/>
<polygon fill="#b0b0b0" stroke="#b0b0b0" points="229.79,-166.5 239.79,-163 229.79,-159.5 229.79,-166.5"/>
</g>
<!-- Captured -->
<g id="node3" class="node">
<title>Captured</title>
<path fill="#2d2d2d" stroke="#b39ddb" d="M572.8,-192.1C572.8,-192.1 483.7,-192.1 483.7,-192.1 477.7,-192.1 471.7,-186.1 471.7,-180.1 471.7,-180.1 471.7,-145.9 471.7,-145.9 471.7,-139.9 477.7,-133.9 483.7,-133.9 483.7,-133.9 572.8,-133.9 572.8,-133.9 578.8,-133.9 584.8,-139.9 584.8,-145.9 584.8,-145.9 584.8,-180.1 584.8,-180.1 584.8,-186.1 578.8,-192.1 572.8,-192.1"/>
<text xml:space="preserve" text-anchor="middle" x="528.25" y="-157.2" font-family="sans-serif" font-size="14.00" fill="#e0e0e0">Captured</text>
</g>
<!-- Authorized&#45;&gt;Captured -->
<g id="edge2" class="edge">
<title>Authorized&#45;&gt;Captured</title>
<path fill="none" stroke="#b0b0b0" d="M364,-163C364,-163 460.05,-163 460.05,-163"/>
<polygon fill="#b0b0b0" stroke="#b0b0b0" points="460.05,-166.5 470.05,-163 460.05,-159.5 460.05,-166.5"/>
</g>
<!-- PartiallyRefunded -->
<g id="node4" class="node">
<title>PartiallyRefunded</title>
<path fill="#2d2d2d" stroke="#b39ddb" d="M844.9,-86.1C844.9,-86.1 704.8,-86.1 704.8,-86.1 698.8,-86.1 692.8,-80.1 692.8,-74.1 692.8,-74.1 692.8,-39.9 692.8,-39.9 692.8,-33.9 698.8,-27.9 704.8,-27.9 704.8,-27.9 844.9,-27.9 844.9,-27.9 850.9,-27.9 856.9,-33.9 856.9,-39.9 856.9,-39.9 856.9,-74.1 856.9,-74.1 856.9,-80.1 850.9,-86.1 844.9,-86.1"/>
<text xml:space="preserve" text-anchor="middle" x="774.85" y="-51.2" font-family="sans-serif" font-size="14.00" fill="#e0e0e0">PartiallyRefunded</text>
</g>
<!-- Captured&#45;&gt;PartiallyRefunded -->
<g id="edge3" class="edge">
<title>Captured&#45;&gt;PartiallyRefunded</title>
<path fill="none" stroke="#b0b0b0" d="M528.1,-133.5C528.1,-99.23 528.1,-47.3 528.1,-47.3 528.1,-47.3 680.83,-47.3 680.83,-47.3"/>
<polygon fill="#b0b0b0" stroke="#b0b0b0" points="680.83,-50.8 690.83,-47.3 680.83,-43.8 680.83,-50.8"/>
</g>
<!-- FullyRefunded -->
<g id="node5" class="node">
<title>FullyRefunded</title>
<path fill="#2d2d2d" stroke="#b39ddb" d="M1097.5,-164.1C1097.5,-164.1 976.9,-164.1 976.9,-164.1 970.9,-164.1 964.9,-158.1 964.9,-152.1 964.9,-152.1 964.9,-117.9 964.9,-117.9 964.9,-111.9 970.9,-105.9 976.9,-105.9 976.9,-105.9 1097.5,-105.9 1097.5,-105.9 1103.5,-105.9 1109.5,-111.9 1109.5,-117.9 1109.5,-117.9 1109.5,-152.1 1109.5,-152.1 1109.5,-158.1 1103.5,-164.1 1097.5,-164.1"/>
<text xml:space="preserve" text-anchor="middle" x="1037.2" y="-129.2" font-family="sans-serif" font-size="14.00" fill="#e0e0e0">FullyRefunded</text>
</g>
<!-- Captured&#45;&gt;FullyRefunded -->
<g id="edge4" class="edge">
<title>Captured&#45;&gt;FullyRefunded</title>
<path fill="none" stroke="#b0b0b0" d="M585.15,-149C585.15,-149 953.23,-149 953.23,-149"/>
<polygon fill="#b0b0b0" stroke="#b0b0b0" points="953.23,-152.5 963.23,-149 953.23,-145.5 953.23,-152.5"/>
</g>
<!-- Settled -->
<g id="node6" class="node">
<title>Settled</title>
<path fill="#2d2d2d" stroke="#b39ddb" d="M1305.1,-164.1C1305.1,-164.1 1229.5,-164.1 1229.5,-164.1 1223.5,-164.1 1217.5,-158.1 1217.5,-152.1 1217.5,-152.1 1217.5,-117.9 1217.5,-117.9 1217.5,-111.9 1223.5,-105.9 1229.5,-105.9 1229.5,-105.9 1305.1,-105.9 1305.1,-105.9 1311.1,-105.9 1317.1,-111.9 1317.1,-117.9 1317.1,-117.9 1317.1,-152.1 1317.1,-152.1 1317.1,-158.1 1311.1,-164.1 1305.1,-164.1"/>
<text xml:space="preserve" text-anchor="middle" x="1267.3" y="-129.2" font-family="sans-serif" font-size="14.00" fill="#e0e0e0">Settled</text>
</g>
<!-- Captured&#45;&gt;Settled -->
<g id="edge5" class="edge">
<title>Captured&#45;&gt;Settled</title>
<path fill="none" stroke="#b0b0b0" d="M585,-178.1C758.01,-178.1 1267.1,-178.1 1267.1,-178.1 1267.1,-178.1 1267.1,-175.98 1267.1,-175.98"/>
<polygon fill="#b0b0b0" stroke="#b0b0b0" points="1270.6,-175.98 1267.1,-165.98 1263.6,-175.98 1270.6,-175.98"/>
</g>
<!-- PartiallyRefunded&#45;&gt;PartiallyRefunded -->
<g id="edge6" class="edge">
<title>PartiallyRefunded&#45;&gt;PartiallyRefunded</title>
<path fill="none" stroke="#b0b0b0" d="M692.36,-66.7C663.94,-66.7 639.1,-66.7 639.1,-66.7 639.1,-66.7 639.1,-96 639.1,-96 639.1,-96 911.1,-96 911.1,-96 911.1,-96 911.1,-66.7 911.1,-66.7 911.1,-66.7 868.76,-66.7 868.76,-66.7"/>
<polygon fill="#b0b0b0" stroke="#b0b0b0" points="868.76,-63.2 858.76,-66.7 868.76,-70.2 868.76,-63.2"/>
</g>
<!-- PartiallyRefunded&#45;&gt;FullyRefunded -->
<g id="edge7" class="edge">
<title>PartiallyRefunded&#45;&gt;FullyRefunded</title>
<path fill="none" stroke="#b0b0b0" d="M775.1,-86.24C775.1,-102.67 775.1,-119.9 775.1,-119.9 775.1,-119.9 953.03,-119.9 953.03,-119.9"/>
<polygon fill="#b0b0b0" stroke="#b0b0b0" points="953.03,-123.4 963.03,-119.9 953.03,-116.4 953.03,-123.4"/>
</g>
<!-- PartiallyRefunded&#45;&gt;Settled -->
<g id="edge8" class="edge">
<title>PartiallyRefunded&#45;&gt;Settled</title>
<path fill="none" stroke="#b0b0b0" d="M857.24,-47.3C997.37,-47.3 1267.1,-47.3 1267.1,-47.3 1267.1,-47.3 1267.1,-94.28 1267.1,-94.28"/>
<polygon fill="#b0b0b0" stroke="#b0b0b0" points="1263.6,-94.28 1267.1,-104.28 1270.6,-94.28 1263.6,-94.28"/>
</g>
<!-- FullyRefunded&#45;&gt;Settled -->
<g id="edge9" class="edge">
<title>FullyRefunded&#45;&gt;Settled</title>
<path fill="none" stroke="#b0b0b0" d="M1109.69,-135C1109.69,-135 1205.51,-135 1205.51,-135"/>
<polygon fill="#b0b0b0" stroke="#b0b0b0" points="1205.51,-138.5 1215.51,-135 1205.51,-131.5 1205.51,-138.5"/>
</g>
</g>
</svg>
