<?xml version="1.0" encoding="UTF-8" standalone="no"?>
<!DOCTYPE svg PUBLIC "-//W3C//DTD SVG 1.1//EN"
 "http://www.w3.org/Graphics/SVG/1.1/DTD/svg11.dtd">
<!-- Generated by graphviz version 14.0.5 (20251129.0259)
 -->
<!-- Pages: 1 -->
<svg width="798pt" height="235pt"
 viewBox="0.00 0.00 798.00 235.00" xmlns="http://www.w3.org/2000/svg" xmlns:xlink="http://www.w3.org/1999/xlink">
<g id="graph0" class="graph" transform="scale(1 1) rotate(0) translate(36 199)">
<g id="clust1" class="cluster">
<title>cluster_Payment</title>
<path fill="#fafafa" stroke="#673ab7" d="M20,-8C20,-8 705.55,-8 705.55,-8 711.55,-8 717.55,-14 717.55,-20 717.55,-20 717.55,-143 717.55,-143 717.55,-149 711.55,-155 705.55,-155 705.55,-155 20,-155 20,-155 14,-155 8,-149 8,-143 8,-143 8,-20 8,-20 8,-14 14,-8 20,-8"/>
<text xml:space="preserve" text-anchor="middle" x="362.77" y="-139.6" font-family="Helvetica Bold" font-size="12.00">Payment</text>
</g>
<!-- Created -->
<g id="node1" class="node">
<title>Created</title>
<path fill="#f5f5f5" stroke="#673ab7" d="M79.8,-115C79.8,-115 36,-115 36,-115 30,-115 24,-109 24,-103 24,-103 24,-91 24,-91 24,-85 30,-79 36,-79 36,-79 79.8,-79 79.8,-79 85.8,-79 91.8,-85 91.8,-91 91.8,-91 91.8,-103 91.8,-103 91.8,-109 85.8,-115 79.8,-115"/>
<text xml:space="preserve" text-anchor="middle" x="57.9" y="-92.55" font-family="Helvetica,sans-Serif" font-size="11.00">Created</text>
</g>
<!-- Authorized -->
<g id="node2" class="node">
<title>Authorized</title>
<path fill="#f5f5f5" stroke="#673ab7" d="M196.35,-115C196.35,-115 139.8,-115 139.8,-115 133.8,-115 127.8,-109 127.8,-103 127.8,-103 127.8,-91 127.8,-91 127.8,-85 133.8,-79 139.8,-79 139.8,-79 196.35,-79 196.35,-79 202.35,-79 208.35,-85 208.35,-91 208.35,-91 208.35,-103 208.35,-103 208.35,-109 202.35,-115 196.35,-115"/>
<text xml:space="preserve" text-anchor="middle" x="168.07" y="-92.55" font-family="Helvetica,sans-Serif" font-size="11.00">Authorized</text>
</g>
<!-- Created&#45;&gt;Authorized -->
<g id="edge1" class="edge">
<title>Created&#45;&gt;Authorized</title>
<path fill="none" stroke="#424242" d="M92.24,-97C99.83,-97 108.07,-97 116.21,-97"/>
<polygon fill="#424242" stroke="#424242" points="116.07,-100.5 126.07,-97 116.07,-93.5 116.07,-100.5"/>
</g>
<!-- Captured -->
<g id="node3" class="node">
<title>Captured</title>
<path fill="#f5f5f5" stroke="#673ab7" d="M306.15,-115C306.15,-115 256.35,-115 256.35,-115 250.35,-115 244.35,-109 244.35,-103 244.35,-103 244.35,-91 244.35,-91 244.35,-85 250.35,-79 256.35,-79 256.35,-79 306.15,-79 306.15,-79 312.15,-79 318.15,-85 318.15,-91 318.15,-91 318.15,-103 318.15,-103 318.15,-109 312.15,-115 306.15,-115"/>
<text xml:space="preserve" text-anchor="middle" x="281.25" y="-92.55" font-family="Helvetica,sans-Serif" font-size="11.00">Captured</text>
</g>
<!-- Authorized&#45;&gt;Captured -->
<g id="edge2" class="edge">
<title>Authorized&#45;&gt;Captured</title>
<path fill="none" stroke="#424242" d="M208.58,-97C216.47,-97 224.84,-97 232.96,-97"/>
<polygon fill="#424242" stroke="#424242" points="232.69,-100.5 242.69,-97 232.69,-93.5 232.69,-100.5"/>
</g>
<!-- PartiallyRefunded -->
<g id="node4" class="node">
<title>PartiallyRefunded</title>
<path fill="#f5f5f5" stroke="#673ab7" d="M456.45,-60C456.45,-60 366.15,-60 366.15,-60 360.15,-60 354.15,-54 354.15,-48 354.15,-48 354.15,-36 354.15,-36 354.15,-30 360.15,-24 366.15,-24 366.15,-24 456.45,-24 456.45,-24 462.45,-24 468.45,-30 468.45,-36 468.45,-36 468.45,-48 468.45,-48 468.45,-54 462.45,-60 456.45,-60"/>
<text xml:space="preserve" text-anchor="middle" x="411.3" y="-37.55" font-family="Helvetica,sans-Serif" font-size="11.00">PartiallyRefunded</text>
</g>
<!-- Captured&#45;&gt;PartiallyRefunded -->
<g id="edge3" class="edge">
<title>Captured&#45;&gt;PartiallyRefunded</title>
<path fill="none" stroke="#424242" d="M318.6,-81.39C330.62,-76.22 344.25,-70.37 357.26,-64.78"/>
<polygon fill="#424242" stroke="#424242" points="358.31,-68.14 366.12,-60.98 355.55,-61.71 358.31,-68.14"/>
</g>
<!-- FullyRefunded -->
<g id="node5" class="node">
<title>FullyRefunded</title>
<path fill="#f5f5f5" stroke="#673ab7" d="M591,-97C591,-97 516.45,-97 516.45,-97 510.45,-97 504.45,-91 504.45,-85 504.45,-85 504.45,-73 504.45,-73 504.45,-67 510.45,-61 516.45,-61 516.45,-61 591,-61 591,-61 597,-61 603,-67 603,-73 603,-73 603,-85 603,-85 603,-91 597,-97 591,-97"/>
<text xml:space="preserve" text-anchor="middle" x="553.72" y="-74.55" font-family="Helvetica,sans-Serif" font-size="11.00">FullyRefunded</text>
</g>
<!-- Captured&#45;&gt;FullyRefunded -->
<g id="edge4" class="edge">
<title>Captured&#45;&gt;FullyRefunded</title>
<path fill="none" stroke="#424242" d="M318.32,-95.5C355.85,-93.84 416.31,-90.87 468.45,-87 476.32,-86.42 484.6,-85.72 492.76,-85"/>
<polygon fill="#424242" stroke="#424242" points="493.03,-88.49 502.67,-84.09 492.39,-81.52 493.03,-88.49"/>
</g>
<!-- Settled -->
<g id="node6" class="node">
<title>Settled</title>
<path fill="#f5f5f5" stroke="#673ab7" d="M689.55,-97C689.55,-97 651,-97 651,-97 645,-97 639,-91 639,-85 639,-85 639,-73 639,-73 639,-67 645,-61 651,-61 651,-61 689.55,-61 689.55,-61 695.55,-61 701.55,-67 701.55,-73 701.55,-73 701.55,-85 701.55,-85 701.55,-91 695.55,-97 689.55,-97"/>
<text xml:space="preserve" text-anchor="middle" x="670.27" y="-74.55" font-family="Helvetica,sans-Serif" font-size="11.00">Settled</text>
</g>
<!-- Captured&#45;&gt;Settled -->
<g id="edge5" class="edge">
<title>Captured&#45;&gt;Settled</title>
<path fill="none" stroke="#424242" d="M318.27,-103.12C378.07,-112.14 501.32,-125.92 603,-106 611.39,-104.36 620.06,-101.64 628.26,-98.56"/>
<polygon fill="#424242" stroke="#424242" points="629.33,-101.9 637.29,-94.91 626.7,-95.41 629.33,-101.9"/>
</g>
<!-- PartiallyRefunded&#45;&gt;PartiallyRefunded -->
<g id="edge6" class="edge">
<title>PartiallyRefunded&#45;&gt;PartiallyRefunded</title>
<path fill="none" stroke="#424242" d="M387.77,-60.15C384.15,-69.54 392,-78 411.3,-78 422.16,-78 429.39,-75.32 433,-71.31"/>
<polygon fill="#424242" stroke="#424242" points="436.42,-72.08 434.58,-61.65 429.51,-70.95 436.42,-72.08"/>
</g>
<!-- PartiallyRefunded&#45;&gt;FullyRefunded -->
<g id="edge7" class="edge">
<title>PartiallyRefunded&#45;&gt;FullyRefunded</title>
<path fill="none" stroke="#424242" d="M468.61,-56.84C476.69,-58.96 485.02,-61.16 493.16,-63.31"/>
<polygon fill="#424242" stroke="#424242" points="492.07,-66.64 502.63,-65.8 493.85,-59.87 492.07,-66.64"/>
</g>
<!-- PartiallyRefunded&#45;&gt;Settled -->
<g id="edge8" class="edge">
<title>PartiallyRefunded&#45;&gt;Settled</title>
<path fill="none" stroke="#424242" d="M468.87,-40.06C507.17,-39.94 558.67,-42.1 603,-52 611.35,-53.86 620,-56.68 628.18,-59.79"/>
<polygon fill="#424242" stroke="#424242" points="626.63,-62.94 637.21,-63.45 629.25,-56.45 626.63,-62.94"/>
</g>
<!-- FullyRefunded&#45;&gt;Settled -->
<g id="edge9" class="edge">
<title>FullyRefunded&#45;&gt;Settled</title>
<path fill="none" stroke="#424242" d="M603.3,-79C611.24,-79 619.41,-79 627.17,-79"/>
<polygon fill="#424242" stroke="#424242" points="627.05,-82.5 637.05,-79 627.05,-75.5 627.05,-82.5"/>
</g>
</g>
</svg>
