<?xml version="1.0" encoding="UTF-8" standalone="no"?>
<!DOCTYPE svg PUBLIC "-//W3C//DTD SVG 1.1//EN"
 "http://www.w3.org/Graphics/SVG/1.1/DTD/svg11.dtd">
<!-- Generated by graphviz version 14.0.5 (20251129.0259)
 -->
<!-- Pages: 1 -->
<svg width="1267pt" height="429pt"
 viewBox="0.00 0.00 1267.00 429.00" xmlns="http://www.w3.org/2000/svg" xmlns:xlink="http://www.w3.org/1999/xlink">
<g id="graph0" class="graph" transform="scale(1 1) rotate(0) translate(72 357)">
<g id="clust1" class="cluster">
<title>cluster_Payment</title>
<path fill="#1e1e1e" stroke="#b39ddb" d="M20,-8C20,-8 1102.85,-8 1102.85,-8 1108.85,-8 1114.85,-14 1114.85,-20 1114.85,-20 1114.85,-265 1114.85,-265 1114.85,-271 1108.85,-277 1102.85,-277 1102.85,-277 20,-277 20,-277 14,-277 8,-271 8,-265 8,-265 8,-20 8,-20 8,-14 14,-8 20,-8"/>
<text xml:space="preserve" text-anchor="middle" x="561.42" y="-259.7" font-family="Inter, SF Pro Display, -apple-system, BlinkMacSystemFont, Segoe UI, Roboto, sans-serif" font-size="14.00" fill="#e0e0e0">Payment</text>
</g>
<!-- Created -->
<g id="node1" class="node">
<title>Created</title>
<path fill="#2d2d2d" stroke="#b39ddb" d="M118.1,-195.72C118.1,-195.72 44,-195.72 44,-195.72 38,-195.72 32,-189.72 32,-183.72 32,-183.72 32,-150.28 32,-150.28 32,-144.28 38,-138.28 44,-138.28 44,-138.28 118.1,-138.28 118.1,-138.28 124.1,-138.28 130.1,-144.28 130.1,-150.28 130.1,-150.28 130.1,-183.72 130.1,-183.72 130.1,-189.72 124.1,-195.72 118.1,-195.72"/>
<text xml:space="preserve" text-anchor="middle" x="81.05" y="-162.72" font-family="Inter, SF Pro Display, -apple-system, BlinkMacSystemFont, Segoe UI, Roboto, sans-serif" font-size="12.00" fill="#e0e0e0">Created</text>
</g>
<!-- Authorized -->
<g id="node2" class="node">
<title>Authorized</title>
<path fill="#2d2d2d" stroke="#b39ddb" d="M304.7,-195.72C304.7,-195.72 214.1,-195.72 214.1,-195.72 208.1,-195.72 202.1,-189.72 202.1,-183.72 202.1,-183.72 202.1,-150.28 202.1,-150.28 202.1,-144.28 208.1,-138.28 214.1,-138.28 214.1,-138.28 304.7,-138.28 304.7,-138.28 310.7,-138.28 316.7,-144.28 316.7,-150.28 316.7,-150.28 316.7,-183.72 316.7,-183.72 316.7,-189.72 310.7,-195.72 304.7,-195.72"/>
<text xml:space="preserve" text-anchor="middle" x="259.4" y="-162.72" font-family="Inter, SF Pro Display, -apple-system, BlinkMacSystemFont, Segoe UI, Roboto, sans-serif" font-size="12.00" fill="#e0e0e0">Authorized</text>
</g>
<!-- Created&#45;&gt;Authorized -->
<g id="edge1" class="edge">
<title>Created&#45;&gt;Authorized</title>
<path fill="none" stroke="#b0b0b0" d="M130.24,-167C148.82,-167 170.42,-167 190.52,-167"/>
<polygon fill="#b0b0b0" stroke="#b0b0b0" points="190.32,-170.5 200.31,-167 190.31,-163.5 190.32,-170.5"/>
</g>
<!-- Captured -->
<g id="node3" class="node">
<title>Captured</title>
<path fill="#2d2d2d" stroke="#b39ddb" d="M482.3,-195.72C482.3,-195.72 400.7,-195.72 400.7,-195.72 394.7,-195.72 388.7,-189.72 388.7,-183.72 388.7,-183.72 388.7,-150.28 388.7,-150.28 388.7,-144.28 394.7,-138.28 400.7,-138.28 400.7,-138.28 482.3,-138.28 482.3,-138.28 488.3,-138.28 494.3,-144.28 494.3,-150.28 494.3,-150.28 494.3,-183.72 494.3,-183.72 494.3,-189.72 488.3,-195.72 482.3,-195.72"/>
<text xml:space="preserve" text-anchor="middle" x="441.5" y="-162.72" font-family="Inter, SF Pro Display, -apple-system, BlinkMacSystemFont, Segoe UI, Roboto, sans-serif" font-size="12.00" fill="#e0e0e0">Captured</text>
</g>
<!-- Authorized&#45;&gt;Captured -->
<g id="edge2" class="edge">
<title>Authorized&#45;&gt;Captured</title>
<path fill="none" stroke="#b0b0b0" d="M316.89,-167C336.03,-167 357.54,-167 377.18,-167"/>
<polygon fill="#b0b0b0" stroke="#b0b0b0" points="376.98,-170.5 386.98,-167 376.98,-163.5 376.98,-170.5"/>
</g>
<!-- PartiallyRefunded -->
<g id="node4" class="node">
<title>PartiallyRefunded</title>
<path fill="#2d2d2d" stroke="#b39ddb" d="M707.15,-89.72C707.15,-89.72 578.3,-89.72 578.3,-89.72 572.3,-89.72 566.3,-83.72 566.3,-77.72 566.3,-77.72 566.3,-44.28 566.3,-44.28 566.3,-38.28 572.3,-32.28 578.3,-32.28 578.3,-32.28 707.15,-32.28 707.15,-32.28 713.15,-32.28 719.15,-38.28 719.15,-44.28 719.15,-44.28 719.15,-77.72 719.15,-77.72 719.15,-83.72 713.15,-89.72 707.15,-89.72"/>
<text xml:space="preserve" text-anchor="middle" x="642.72" y="-56.73" font-family="Inter, SF Pro Display, -apple-system, BlinkMacSystemFont, Segoe UI, Roboto, sans-serif" font-size="12.00" fill="#e0e0e0">PartiallyRefunded</text>
</g>
<!-- Captured&#45;&gt;PartiallyRefunded -->
<g id="edge3" class="edge">
<title>Captured&#45;&gt;PartiallyRefunded</title>
<path fill="none" stroke="#b0b0b0" d="M494.58,-139.29C519.73,-125.91 550.16,-109.72 576.8,-95.54"/>
<polygon fill="#b0b0b0" stroke="#b0b0b0" points="578.29,-98.72 585.47,-90.93 575,-92.54 578.29,-98.72"/>
</g>
<!-- FullyRefunded -->
<g id="node5" class="node">
<title>FullyRefunded</title>
<path fill="#2d2d2d" stroke="#b39ddb" d="M913.25,-167.72C913.25,-167.72 803.15,-167.72 803.15,-167.72 797.15,-167.72 791.15,-161.72 791.15,-155.72 791.15,-155.72 791.15,-122.28 791.15,-122.28 791.15,-116.28 797.15,-110.28 803.15,-110.28 803.15,-110.28 913.25,-110.28 913.25,-110.28 919.25,-110.28 925.25,-116.28 925.25,-122.28 925.25,-122.28 925.25,-155.72 925.25,-155.72 925.25,-161.72 919.25,-167.72 913.25,-167.72"/>
<text xml:space="preserve" text-anchor="middle" x="858.2" y="-134.72" font-family="Inter, SF Pro Display, -apple-system, BlinkMacSystemFont, Segoe UI, Roboto, sans-serif" font-size="12.00" fill="#e0e0e0">FullyRefunded</text>
</g>
<!-- Captured&#45;&gt;FullyRefunded -->
<g id="edge4" class="edge">
<title>Captured&#45;&gt;FullyRefunded</title>
<path fill="none" stroke="#b0b0b0" d="M494.6,-163.48C566.39,-158.64 696.25,-149.87 779.52,-144.24"/>
<polygon fill="#b0b0b0" stroke="#b0b0b0" points="779.7,-147.74 789.44,-143.58 779.22,-140.76 779.7,-147.74"/>
</g>
<!-- Settled -->
<g id="node6" class="node">
<title>Settled</title>
<path fill="#2d2d2d" stroke="#b39ddb" d="M1078.85,-167.72C1078.85,-167.72 1009.25,-167.72 1009.25,-167.72 1003.25,-167.72 997.25,-161.72 997.25,-155.72 997.25,-155.72 997.25,-122.28 997.25,-122.28 997.25,-116.28 1003.25,-110.28 1009.25,-110.28 1009.25,-110.28 1078.85,-110.28 1078.85,-110.28 1084.85,-110.28 1090.85,-116.28 1090.85,-122.28 1090.85,-122.28 1090.85,-155.72 1090.85,-155.72 1090.85,-161.72 1084.85,-167.72 1078.85,-167.72"/>
<text xml:space="preserve" text-anchor="middle" x="1044.05" y="-134.72" font-family="Inter, SF Pro Display, -apple-system, BlinkMacSystemFont, Segoe UI, Roboto, sans-serif" font-size="12.00" fill="#e0e0e0">Settled</text>
</g>
<!-- Captured&#45;&gt;Settled -->
<g id="edge5" class="edge">
<title>Captured&#45;&gt;Settled</title>
<path fill="none" stroke="#b0b0b0" d="M494.7,-171.49C591.96,-179.86 791.15,-197 791.15,-197 791.15,-197 925.25,-197 925.25,-197 925.25,-197 956.39,-181.67 986.65,-166.77"/>
<polygon fill="#b0b0b0" stroke="#b0b0b0" points="988.05,-169.98 995.47,-162.43 984.95,-163.7 988.05,-169.98"/>
</g>
<!-- PartiallyRefunded&#45;&gt;PartiallyRefunded -->
<g id="edge6" class="edge">
<title>PartiallyRefunded&#45;&gt;PartiallyRefunded</title>
<path fill="none" stroke="#b0b0b0" d="M612.48,-89.87C596.29,-117.53 606.37,-147.72 642.72,-147.72 674.53,-147.72 686.23,-124.61 677.81,-100.3"/>
<polygon fill="#b0b0b0" stroke="#b0b0b0" points="680.99,-98.84 673.61,-91.25 674.65,-101.79 680.99,-98.84"/>
</g>
<!-- PartiallyRefunded&#45;&gt;FullyRefunded -->
<g id="edge7" class="edge">
<title>PartiallyRefunded&#45;&gt;FullyRefunded</title>
<path fill="none" stroke="#b0b0b0" d="M719.59,-88.72C739.21,-95.89 760.34,-103.61 780.03,-110.8"/>
<polygon fill="#b0b0b0" stroke="#b0b0b0" points="778.78,-114.07 789.37,-114.22 781.18,-107.5 778.78,-114.07"/>
</g>
<!-- PartiallyRefunded&#45;&gt;Settled -->
<g id="edge8" class="edge">
<title>PartiallyRefunded&#45;&gt;Settled</title>
<path fill="none" stroke="#b0b0b0" d="M719.54,-66.39C802.92,-72.31 925.25,-81 925.25,-81 925.25,-81 956.39,-96.33 986.65,-111.23"/>
<polygon fill="#b0b0b0" stroke="#b0b0b0" points="984.95,-114.3 995.47,-115.57 988.05,-108.02 984.95,-114.3"/>
</g>
<!-- FullyRefunded&#45;&gt;Settled -->
<g id="edge9" class="edge">
<title>FullyRefunded&#45;&gt;Settled</title>
<path fill="none" stroke="#b0b0b0" d="M925.57,-139C945.16,-139 966.44,-139 985.43,-139"/>
<polygon fill="#b0b0b0" stroke="#b0b0b0" points="985.41,-142.5 995.41,-139 985.41,-135.5 985.41,-142.5"/>
</g>
</g>
</svg>
