<?xml version="1.0" encoding="UTF-8" standalone="no"?>
<!DOCTYPE svg PUBLIC "-//W3C//DTD SVG 1.1//EN"
 "http://www.w3.org/Graphics/SVG/1.1/DTD/svg11.dtd">
<!-- Generated by graphviz version 14.0.5 (20251129.0259)
 -->
<!-- Pages: 1 -->
<svg width="888pt" height="242pt"
 viewBox="0.00 0.00 888.00 242.00" xmlns="http://www.w3.org/2000/svg" xmlns:xlink="http://www.w3.org/1999/xlink">
<g id="graph0" class="graph" transform="scale(1 1) rotate(0) translate(36 206)">
<g id="clust1" class="cluster">
<title>cluster_Payment</title>
<path fill="#1e1e1e" stroke="#b39ddb" d="M20,-8C20,-8 795.7,-8 795.7,-8 801.7,-8 807.7,-14 807.7,-20 807.7,-20 807.7,-150 807.7,-150 807.7,-156 801.7,-162 795.7,-162 795.7,-162 20,-162 20,-162 14,-162 8,-156 8,-150 8,-150 8,-20 8,-20 8,-14 14,-8 20,-8"/>
<text xml:space="preserve" text-anchor="middle" x="407.85" y="-146.6" font-family="Inter, SF Pro Display, -apple-system, BlinkMacSystemFont, Segoe UI, Roboto, sans-serif" font-size="12.00" fill="#e0e0e0">Payment</text>
</g>
<!-- Created -->
<g id="node1" class="node">
<title>Created</title>
<path fill="#2d2d2d" stroke="#b39ddb" d="M94.2,-124.15C94.2,-124.15 36,-124.15 36,-124.15 30,-124.15 24,-118.15 24,-112.15 24,-112.15 24,-93.85 24,-93.85 24,-87.85 30,-81.85 36,-81.85 36,-81.85 94.2,-81.85 94.2,-81.85 100.2,-81.85 106.2,-87.85 106.2,-93.85 106.2,-93.85 106.2,-112.15 106.2,-112.15 106.2,-118.15 100.2,-124.15 94.2,-124.15"/>
<text xml:space="preserve" text-anchor="middle" x="65.1" y="-99.3" font-family="Inter, SF Pro Display, -apple-system, BlinkMacSystemFont, Segoe UI, Roboto, sans-serif" font-size="11.00" fill="#e0e0e0">Created</text>
</g>
<!-- Authorized -->
<g id="node2" class="node">
<title>Authorized</title>
<path fill="#2d2d2d" stroke="#b39ddb" d="M225.9,-124.15C225.9,-124.15 154.2,-124.15 154.2,-124.15 148.2,-124.15 142.2,-118.15 142.2,-112.15 142.2,-112.15 142.2,-93.85 142.2,-93.85 142.2,-87.85 148.2,-81.85 154.2,-81.85 154.2,-81.85 225.9,-81.85 225.9,-81.85 231.9,-81.85 237.9,-87.85 237.9,-93.85 237.9,-93.85 237.9,-112.15 237.9,-112.15 237.9,-118.15 231.9,-124.15 225.9,-124.15"/>
<text xml:space="preserve" text-anchor="middle" x="190.05" y="-99.3" font-family="Inter, SF Pro Display, -apple-system, BlinkMacSystemFont, Segoe UI, Roboto, sans-serif" font-size="11.00" fill="#e0e0e0">Authorized</text>
</g>
<!-- Created&#45;&gt;Authorized -->
<g id="edge1" class="edge">
<title>Created&#45;&gt;Authorized</title>
<path fill="none" stroke="#b0b0b0" d="M106.7,-103C114.4,-103 122.6,-103 130.72,-103"/>
<polygon fill="#b0b0b0" stroke="#b0b0b0" points="130.59,-106.5 140.59,-103 130.59,-99.5 130.59,-106.5"/>
</g>
<!-- Captured -->
<g id="node3" class="node">
<title>Captured</title>
<path fill="#2d2d2d" stroke="#b39ddb" d="M350.1,-124.15C350.1,-124.15 285.9,-124.15 285.9,-124.15 279.9,-124.15 273.9,-118.15 273.9,-112.15 273.9,-112.15 273.9,-93.85 273.9,-93.85 273.9,-87.85 279.9,-81.85 285.9,-81.85 285.9,-81.85 350.1,-81.85 350.1,-81.85 356.1,-81.85 362.1,-87.85 362.1,-93.85 362.1,-93.85 362.1,-112.15 362.1,-112.15 362.1,-118.15 356.1,-124.15 350.1,-124.15"/>
<text xml:space="preserve" text-anchor="middle" x="318" y="-99.3" font-family="Inter, SF Pro Display, -apple-system, BlinkMacSystemFont, Segoe UI, Roboto, sans-serif" font-size="11.00" fill="#e0e0e0">Captured</text>
</g>
<!-- Authorized&#45;&gt;Captured -->
<g id="edge2" class="edge">
<title>Authorized&#45;&gt;Captured</title>
<path fill="none" stroke="#b0b0b0" d="M238.31,-103C246.09,-103 254.22,-103 262.17,-103"/>
<polygon fill="#b0b0b0" stroke="#b0b0b0" points="262.12,-106.5 272.12,-103 262.12,-99.5 262.12,-106.5"/>
</g>
<!-- PartiallyRefunded -->
<g id="node4" class="node">
<title>PartiallyRefunded</title>
<path fill="#2d2d2d" stroke="#b39ddb" d="M516.3,-66.15C516.3,-66.15 410.1,-66.15 410.1,-66.15 404.1,-66.15 398.1,-60.15 398.1,-54.15 398.1,-54.15 398.1,-35.85 398.1,-35.85 398.1,-29.85 404.1,-23.85 410.1,-23.85 410.1,-23.85 516.3,-23.85 516.3,-23.85 522.3,-23.85 528.3,-29.85 528.3,-35.85 528.3,-35.85 528.3,-54.15 528.3,-54.15 528.3,-60.15 522.3,-66.15 516.3,-66.15"/>
<text xml:space="preserve" text-anchor="middle" x="463.2" y="-41.3" font-family="Inter, SF Pro Display, -apple-system, BlinkMacSystemFont, Segoe UI, Roboto, sans-serif" font-size="11.00" fill="#e0e0e0">PartiallyRefunded</text>
</g>
<!-- Captured&#45;&gt;PartiallyRefunded -->
<g id="edge3" class="edge">
<title>Captured&#45;&gt;PartiallyRefunded</title>
<path fill="none" stroke="#b0b0b0" d="M362.35,-85.44C373.69,-80.85 386.14,-75.8 398.3,-70.88"/>
<polygon fill="#b0b0b0" stroke="#b0b0b0" points="399.52,-74.17 407.47,-67.17 396.89,-67.68 399.52,-74.17"/>
</g>
<!-- FullyRefunded -->
<g id="node5" class="node">
<title>FullyRefunded</title>
<path fill="#2d2d2d" stroke="#b39ddb" d="M665.25,-104.15C665.25,-104.15 576.3,-104.15 576.3,-104.15 570.3,-104.15 564.3,-98.15 564.3,-92.15 564.3,-92.15 564.3,-73.85 564.3,-73.85 564.3,-67.85 570.3,-61.85 576.3,-61.85 576.3,-61.85 665.25,-61.85 665.25,-61.85 671.25,-61.85 677.25,-67.85 677.25,-73.85 677.25,-73.85 677.25,-92.15 677.25,-92.15 677.25,-98.15 671.25,-104.15 665.25,-104.15"/>
<text xml:space="preserve" text-anchor="middle" x="620.77" y="-79.3" font-family="Inter, SF Pro Display, -apple-system, BlinkMacSystemFont, Segoe UI, Roboto, sans-serif" font-size="11.00" fill="#e0e0e0">FullyRefunded</text>
</g>
<!-- Captured&#45;&gt;FullyRefunded -->
<g id="edge4" class="edge">
<title>Captured&#45;&gt;FullyRefunded</title>
<path fill="none" stroke="#b0b0b0" d="M362.34,-101.7C404.7,-100.25 471,-97.5 528.3,-93 536.29,-92.37 544.67,-91.61 552.97,-90.78"/>
<polygon fill="#b0b0b0" stroke="#b0b0b0" points="553.1,-94.29 562.69,-89.78 552.38,-87.32 553.1,-94.29"/>
</g>
<!-- Settled -->
<g id="node6" class="node">
<title>Settled</title>
<path fill="#2d2d2d" stroke="#b39ddb" d="M779.7,-104.15C779.7,-104.15 725.25,-104.15 725.25,-104.15 719.25,-104.15 713.25,-98.15 713.25,-92.15 713.25,-92.15 713.25,-73.85 713.25,-73.85 713.25,-67.85 719.25,-61.85 725.25,-61.85 725.25,-61.85 779.7,-61.85 779.7,-61.85 785.7,-61.85 791.7,-67.85 791.7,-73.85 791.7,-73.85 791.7,-92.15 791.7,-92.15 791.7,-98.15 785.7,-104.15 779.7,-104.15"/>
<text xml:space="preserve" text-anchor="middle" x="752.47" y="-79.3" font-family="Inter, SF Pro Display, -apple-system, BlinkMacSystemFont, Segoe UI, Roboto, sans-serif" font-size="11.00" fill="#e0e0e0">Settled</text>
</g>
<!-- Captured&#45;&gt;Settled -->
<g id="edge5" class="edge">
<title>Captured&#45;&gt;Settled</title>
<path fill="none" stroke="#b0b0b0" d="M362.51,-110.28C430.44,-120.28 565.48,-134.73 677.25,-113 685.6,-111.38 694.2,-108.82 702.45,-105.86"/>
<polygon fill="#b0b0b0" stroke="#b0b0b0" points="703.55,-109.18 711.63,-102.33 701.04,-102.65 703.55,-109.18"/>
</g>
<!-- PartiallyRefunded&#45;&gt;PartiallyRefunded -->
<g id="edge6" class="edge">
<title>PartiallyRefunded&#45;&gt;PartiallyRefunded</title>
<path fill="none" stroke="#b0b0b0" d="M436.4,-66.34C433.85,-75.89 442.78,-84.15 463.2,-84.15 475,-84.15 482.97,-81.39 487.1,-77.22"/>
<polygon fill="#b0b0b0" stroke="#b0b0b0" points="490.41,-78.37 489.61,-67.81 483.65,-76.56 490.41,-78.37"/>
</g>
<!-- PartiallyRefunded&#45;&gt;FullyRefunded -->
<g id="edge7" class="edge">
<title>PartiallyRefunded&#45;&gt;FullyRefunded</title>
<path fill="none" stroke="#b0b0b0" d="M528.38,-60.68C536.55,-62.67 544.93,-64.72 553.13,-66.72"/>
<polygon fill="#b0b0b0" stroke="#b0b0b0" points="552.17,-70.09 562.72,-69.06 553.83,-63.29 552.17,-70.09"/>
</g>
<!-- PartiallyRefunded&#45;&gt;Settled -->
<g id="edge8" class="edge">
<title>PartiallyRefunded&#45;&gt;Settled</title>
<path fill="none" stroke="#b0b0b0" d="M528.77,-41.67C571.39,-40.88 628.21,-42.5 677.25,-53 685.57,-54.78 694.15,-57.42 702.39,-60.41"/>
<polygon fill="#b0b0b0" stroke="#b0b0b0" points="700.98,-63.62 711.57,-63.96 703.51,-57.09 700.98,-63.62"/>
</g>
<!-- FullyRefunded&#45;&gt;Settled -->
<g id="edge9" class="edge">
<title>FullyRefunded&#45;&gt;Settled</title>
<path fill="none" stroke="#b0b0b0" d="M677.53,-83C685.56,-83 693.77,-83 701.68,-83"/>
<polygon fill="#b0b0b0" stroke="#b0b0b0" points="701.45,-86.5 711.45,-83 701.45,-79.5 701.45,-86.5"/>
</g>
</g>
</svg>
