<?xml version="1.0" encoding="UTF-8" standalone="no"?>
<!DOCTYPE svg PUBLIC "-//W3C//DTD SVG 1.1//EN"
 "http://www.w3.org/Graphics/SVG/1.1/DTD/svg11.dtd">
<!-- Generated by graphviz version 2.43.0 (0)
 -->
<!-- Title: %3 Pages: 1 -->
<svg width="435pt" height="597pt"
 viewBox="0.00 0.00 434.70 597.20" xmlns="http://www.w3.org/2000/svg" xmlns:xlink="http://www.w3.org/1999/xlink">
<g id="graph0" class="graph" transform="scale(1 1) rotate(0) translate(21.6 575.6)">
<title>%3</title>
<g id="clust1" class="cluster">
<title>cluster_DbConnection</title>
<path fill="#1e1e1e" stroke="#b39ddb" d="M20,-8C20,-8 356,-8 356,-8 362,-8 368,-14 368,-20 368,-20 368,-534 368,-534 368,-540 362,-546 356,-546 356,-546 20,-546 20,-546 14,-546 8,-540 8,-534 8,-534 8,-20 8,-20 8,-14 14,-8 20,-8"/>
<text text-anchor="middle" x="188" y="-529.2" font-family="sans-serif" font-size="16.00" fill="#e0e0e0">DbConnection</text>
</g>
<!-- Pooled -->
<g id="node1" class="node">
<title>Pooled</title>
<path fill="#2d2d2d" stroke="#b39ddb" d="M301,-490C301,-490 221,-490 221,-490 215,-490 209,-484 209,-478 209,-478 209,-443 209,-443 209,-437 215,-431 221,-431 221,-431 301,-431 301,-431 307,-431 313,-437 313,-443 313,-443 313,-478 313,-478 313,-484 307,-490 301,-490"/>
<text text-anchor="middle" x="261" y="-456.8" font-family="sans-serif" font-size="14.00" fill="#e0e0e0">Pooled</text>
</g>
<!-- CheckedOut -->
<g id="node2" class="node">
<title>CheckedOut</title>
<path fill="#2d2d2d" stroke="#b39ddb" d="M248.5,-359C248.5,-359 129.5,-359 129.5,-359 123.5,-359 117.5,-353 117.5,-347 117.5,-347 117.5,-312 117.5,-312 117.5,-306 123.5,-300 129.5,-300 129.5,-300 248.5,-300 248.5,-300 254.5,-300 260.5,-306 260.5,-312 260.5,-312 260.5,-347 260.5,-347 260.5,-353 254.5,-359 248.5,-359"/>
<text text-anchor="middle" x="189" y="-325.8" font-family="sans-serif" font-size="14.00" fill="#e0e0e0">CheckedOut</text>
</g>
<!-- Pooled&#45;&gt;CheckedOut -->
<g id="edge1" class="edge">
<title>Pooled&#45;&gt;CheckedOut:e</title>
<path fill="none" stroke="#b0b0b0" d="M272.3,-430.97C284.63,-396.29 299.24,-341.13 271.89,-331.09"/>
<polygon fill="#b0b0b0" stroke="#b0b0b0" points="272.43,-327.64 262,-329.5 271.32,-334.55 272.43,-327.64"/>
</g>
<!-- Closed -->
<g id="node4" class="node">
<title>Closed</title>
<path fill="#2d2d2d" stroke="#b39ddb" d="M307.5,-97C307.5,-97 226.5,-97 226.5,-97 220.5,-97 214.5,-91 214.5,-85 214.5,-85 214.5,-50 214.5,-50 214.5,-44 220.5,-38 226.5,-38 226.5,-38 307.5,-38 307.5,-38 313.5,-38 319.5,-44 319.5,-50 319.5,-50 319.5,-85 319.5,-85 319.5,-91 313.5,-97 307.5,-97"/>
<text text-anchor="middle" x="267" y="-63.8" font-family="sans-serif" font-size="14.00" fill="#e0e0e0">Closed</text>
</g>
<!-- Pooled&#45;&gt;Closed -->
<g id="edge2" class="edge">
<title>Pooled&#45;&gt;Closed:e</title>
<path fill="none" stroke="#b0b0b0" d="M273.58,-430.62C281.64,-410.84 291.56,-383.8 297,-359 324.07,-235.49 444.17,-76.47 331.1,-67.86"/>
<polygon fill="#b0b0b0" stroke="#b0b0b0" points="331.12,-64.36 321,-67.5 330.87,-71.36 331.12,-64.36"/>
</g>
<!-- CheckedOut&#45;&gt;Pooled -->
<g id="edge3" class="edge">
<title>CheckedOut&#45;&gt;Pooled</title>
<path fill="none" stroke="#b0b0b0" d="M204.93,-359.05C215.27,-377.57 228.85,-401.9 240.06,-421.98"/>
<polygon fill="#b0b0b0" stroke="#b0b0b0" points="237.09,-423.84 245.02,-430.87 243.2,-420.43 237.09,-423.84"/>
</g>
<!-- InTransaction -->
<g id="node3" class="node">
<title>InTransaction</title>
<path fill="#2d2d2d" stroke="#b39ddb" d="M178,-228C178,-228 50,-228 50,-228 44,-228 38,-222 38,-216 38,-216 38,-181 38,-181 38,-175 44,-169 50,-169 50,-169 178,-169 178,-169 184,-169 190,-175 190,-181 190,-181 190,-216 190,-216 190,-222 184,-228 178,-228"/>
<text text-anchor="middle" x="114" y="-194.8" font-family="sans-serif" font-size="14.00" fill="#e0e0e0">InTransaction</text>
</g>
<!-- CheckedOut&#45;&gt;InTransaction -->
<g id="edge4" class="edge">
<title>CheckedOut&#45;&gt;InTransaction</title>
<path fill="none" stroke="#b0b0b0" d="M172.36,-299.87C161.58,-281.33 147.43,-257 135.76,-236.93"/>
<polygon fill="#b0b0b0" stroke="#b0b0b0" points="138.65,-234.94 130.6,-228.05 132.6,-238.45 138.65,-234.94"/>
</g>
<!-- CheckedOut&#45;&gt;Closed -->
<g id="edge5" class="edge">
<title>CheckedOut&#45;&gt;Closed:w</title>
<path fill="none" stroke="#b0b0b0" d="M202.65,-299.8C211.25,-280.1 221.53,-253.08 226,-228 236.26,-170.44 219.81,-155.18 214,-97 213.3,-89.96 209.25,-81.94 207.72,-76.04"/>
<polygon fill="#b0b0b0" stroke="#b0b0b0" points="210.72,-77.85 213,-67.5 204.77,-74.17 210.72,-77.85"/>
</g>
<!-- InTransaction&#45;&gt;CheckedOut -->
<g id="edge6" class="edge">
<title>InTransaction&#45;&gt;CheckedOut:w</title>
<path fill="none" stroke="#b0b0b0" d="M103.36,-228.03C91.83,-262.71 78.49,-317.87 106.08,-327.91"/>
<polygon fill="#b0b0b0" stroke="#b0b0b0" points="105.57,-331.37 116,-329.5 106.68,-324.46 105.57,-331.37"/>
</g>
<!-- InTransaction&#45;&gt;Closed -->
<g id="edge7" class="edge">
<title>InTransaction&#45;&gt;Closed:s</title>
<path fill="none" stroke="#757575" stroke-dasharray="1,5" d="M190.08,-181.62C236.13,-167.66 291.27,-142.23 319.5,-97 367.95,-19.37 289.2,-6 270.73,-26.88"/>
<polygon fill="#757575" stroke="#757575" points="267.36,-25.91 267,-36.5 273.88,-28.44 267.36,-25.91"/>
</g>
<!-- Closed&#45;&gt;Closed -->
<g id="edge8" class="edge">
<title>Closed&#45;&gt;Closed:e</title>
<path fill="none" stroke="#757575" stroke-dasharray="1,5" d="M319.78,-89.55C355.97,-96.12 391.5,-88.76 391.5,-67.5 391.5,-37.79 351.4,-35.24 326.56,-59.84"/>
<polygon fill="#757575" stroke="#757575" points="323.84,-57.63 320,-67.5 329.16,-62.18 323.84,-57.63"/>
</g>
</g>
</svg>
