<?xml version="1.0" encoding="UTF-8" standalone="no"?>
<!DOCTYPE svg PUBLIC "-//W3C//DTD SVG 1.1//EN"
 "http://www.w3.org/Graphics/SVG/1.1/DTD/svg11.dtd">
<!-- Generated by graphviz version 14.0.5 (20251129.0259)
 -->
<!-- Title: File Pages: 1 -->
<svg width="152pt" height="44pt"
 viewBox="0.00 0.00 152.00 44.00" xmlns="http://www.w3.org/2000/svg" xmlns:xlink="http://www.w3.org/1999/xlink">
<g id="graph0" class="graph" transform="scale(1 1) rotate(0) translate(4 40)">
<title>File</title>
<polygon fill="white" stroke="none" points="-4,4 -4,-40 148,-40 148,4 -4,4"/>
<!-- Closed -->
<g id="node1" class="node">
<title>Closed</title>
<polygon fill="none" stroke="black" points="54,-36 0,-36 0,0 54,0 54,-36"/>
<text xml:space="preserve" text-anchor="middle" x="27" y="-12.95" font-family="Times,serif" font-size="14.00">Closed</text>
</g>
<!-- Open -->
<g id="node2" class="node">
<title>Open</title>
<polygon fill="none" stroke="black" points="144,-36 90,-36 90,0 144,0 144,-36"/>
<text xml:space="preserve" text-anchor="middle" x="117" y="-12.95" font-family="Times,serif" font-size="14.00">Open</text>
</g>
<!-- Closed&#45;&gt;Open -->
<g id="edge1" class="edge">
<title>Closed&#45;&gt;Open</title>
<path fill="none" stroke="black" d="M54.4,-11.75C61.89,-11.3 70.18,-11.15 78.2,-11.31"/>
<polygon fill="black" stroke="black" points="77.97,-14.8 88.1,-11.7 78.25,-7.81 77.97,-14.8"/>
</g>
<!-- Open&#45;&gt;Closed -->
<g id="edge2" class="edge">
<title>Open&#45;&gt;Closed</title>
<path fill="none" stroke="black" d="M89.62,-24.24C82.13,-24.7 73.84,-24.85 65.82,-24.69"/>
<polygon fill="black" stroke="black" points="66.04,-21.2 55.92,-24.3 65.77,-28.19 66.04,-21.2"/>
</g>
</g>
</svg>
